<?xml version="1.0" encoding="UTF-8"?>
<svg width="452px" height="224px" viewBox="0 0 452 224" version="1.1" xmlns="http://www.w3.org/2000/svg" xmlns:xlink="http://www.w3.org/1999/xlink">
    <title>full logo</title>
    <g id="full-logo" stroke="none" stroke-width="1" fill="none" fill-rule="evenodd">
        <g id="Group" transform="translate(14.000000, 14.000000)">
            <path d="M16.5,172.603 L16.75,172.603 C16.816,171.834 17.633,167.691 19.199,160.172 L21.699,148.894 L32.1,148.894 L35.25,162.728 C35.883,165.704 36.383,168.996 36.75,172.603 L37,172.603 C37.266,169.665 37.766,166.439 38.5,162.926 L40.459,155.544 L37.709,155.544 L37.709,148.894 L51.996,148.894 L51.996,155.544 L49.246,155.544 L41.809,183.844 L29.699,183.844 L26.699,172.006 C26.266,170.415 25.85,168.359 25.449,165.839 L25.25,165.839 C25.016,167.497 24.617,169.521 24.051,171.907 L21,183.844 L9.4,183.844 L2.8,155.544 L0,155.544 L0,148.894 L16.5,148.894 L16.5,155.544 L13.6,155.544 L14.9,162.806 C15.366,164.794 15.9,168.062 16.5,172.603" id="Shape" fill="#000000"></path>
            <path d="M71.41,175.607 L75.61,180.49 C72.242,183.326 67.943,184.744 62.71,184.744 C59.21,184.744 56.135,183.595 53.485,181.295 C50.835,178.994 49.51,175.629 49.51,171.194 C49.51,167.226 50.777,164.076 53.31,161.744 C55.843,159.412 59.06,158.244 62.96,158.244 C65.893,158.244 68.435,158.916 70.585,160.258 C72.735,161.599 74.176,163.33 74.91,165.449 C75.277,166.509 75.501,167.767 75.585,169.224 C75.668,170.682 75.477,172.222 75.01,173.844 L59.26,173.844 C59.36,174.363 59.477,174.794 59.61,175.14 C59.742,175.486 59.985,175.926 60.335,176.462 C60.685,176.997 61.21,177.403 61.91,177.68 C62.61,177.956 63.443,178.094 64.41,178.094 C67.143,178.094 69.477,177.265 71.41,175.607 M63.26,164.894 C61.926,164.894 60.968,165.328 60.385,166.194 C59.801,167.061 59.477,167.961 59.41,168.894 L66.96,168.894 C66.926,167.694 66.66,166.728 66.16,165.994 C65.66,165.261 64.693,164.894 63.26,164.894" id="Shape" fill="#000000"></path>
            <path d="M89.38,183.845 L78.16,183.845 L78.16,177.183 L79.91,177.183 L79.91,152.894 L78.16,152.894 L78.16,146.345 L90.26,146.345 L90.26,160.66 C90.789,160.063 91.699,159.544 92.99,159.104 C94.281,158.664 95.539,158.444 96.764,158.444 C100.191,158.444 102.871,159.736 104.807,162.319 C106.742,164.902 107.676,167.977 107.61,171.544 C107.547,175.444 106.54,178.562 104.591,180.894 C102.641,183.228 100.016,184.394 96.714,184.394 C95.522,184.394 94.487,184.275 93.61,184.038 C92.731,183.801 92.077,183.545 91.647,183.273 C91.216,183.002 90.719,182.611 90.156,182.101 L89.38,183.845 L89.38,183.845 Z M97.26,171.369 C97.26,169.737 96.929,168.283 96.267,167.008 C95.605,165.734 94.744,165.096 93.686,165.096 C92.656,165.096 91.785,165.7 91.072,166.907 C90.358,168.114 90.054,169.686 90.16,171.624 C90.16,173.325 90.516,174.77 91.227,175.96 C91.939,177.151 92.775,177.745 93.735,177.745 C94.793,177.745 95.646,177.167 96.291,176.011 C96.937,174.853 97.26,173.306 97.26,171.369 L97.26,171.369 Z" id="Shape" fill="#000000"></path>
            <path d="M125.359,177.195 L125.359,183.844 L111.109,183.844 L111.109,177.195 L112.609,177.195 L112.609,164.945 L111.109,164.945 L111.109,158.894 L120.412,158.894 L121.58,161.594 C123.63,159.327 125.732,158.195 127.883,158.195 C129.097,158.195 130.18,158.303 131.133,158.521 C132.087,158.738 132.867,159.056 133.474,159.475 C134.081,159.896 134.514,160.244 134.774,160.525 C135.035,160.803 135.32,161.146 135.632,161.548 C137.777,159.314 140.238,158.194 143.018,158.194 C144.969,158.194 146.602,158.516 147.915,159.164 C149.227,159.811 150.195,160.739 150.818,161.948 C151.441,163.159 151.87,164.395 152.105,165.653 C152.341,166.914 152.46,168.405 152.46,170.131 L152.46,176.993 L154.809,176.993 L154.809,183.844 L142.109,183.844 L142.109,171.259 C142.109,171.054 142.117,170.687 142.134,170.155 C142.151,169.623 142.16,169.202 142.16,168.891 C142.16,168.58 142.142,168.192 142.109,167.723 C142.077,167.256 142.019,166.876 141.937,166.582 C141.854,166.288 141.747,165.994 141.615,165.699 C141.483,165.404 141.301,165.189 141.071,165.051 C140.839,164.912 140.56,164.843 140.23,164.843 C139.242,164.843 138.557,165.163 138.178,165.804 C137.798,166.444 137.609,167.387 137.609,168.633 L137.609,177.043 L140.21,177.043 L140.21,183.843 L127.259,183.843 L127.259,170.713 C127.259,168.413 127.144,166.859 126.914,166.053 C126.682,165.247 126.105,164.843 125.183,164.843 C123.701,164.843 122.96,165.881 122.96,167.956 L122.96,177.193 L125.359,177.193 L125.359,177.195 Z" id="Shape" fill="#000000"></path>
            <path d="M168.834,184.494 C164.946,184.494 161.629,183.337 158.882,181.019 C156.133,178.703 154.776,175.445 154.81,171.244 C154.843,167.279 156.226,164.119 158.957,161.769 C161.688,159.419 164.897,158.244 168.584,158.244 C172.673,158.311 176.008,159.512 178.588,161.845 C181.168,164.178 182.492,167.379 182.56,171.446 C182.593,175.479 181.302,178.663 178.688,180.995 C176.074,183.328 172.789,184.494 168.834,184.494 M168.834,177.844 C169.859,177.844 170.679,177.238 171.291,176.025 C171.903,174.813 172.21,173.269 172.21,171.393 C172.21,169.518 171.887,167.974 171.242,166.761 C170.596,165.549 169.711,164.927 168.586,164.894 C167.625,164.894 166.814,165.509 166.152,166.738 C165.49,167.967 165.16,169.47 165.16,171.248 C165.16,173.221 165.507,174.813 166.202,176.025 C166.897,177.238 167.774,177.844 168.834,177.844" id="Shape" fill="#000000"></path>
            <path d="M199.91,177.195 L199.91,183.844 L185.16,183.844 L185.16,177.195 L186.609,177.195 L186.609,165.344 L185.16,165.344 L185.16,158.844 L195.732,158.844 L196.96,161.945 C198.883,159.277 201.253,157.945 204.071,157.945 C205.586,157.945 206.906,158.16 208.035,158.591 C209.162,159.023 210.046,159.577 210.685,160.257 C211.324,160.937 211.837,161.782 212.224,162.794 C212.612,163.806 212.872,164.784 213.007,165.73 C213.14,166.674 213.209,167.727 213.209,168.887 L213.209,177.195 L215.459,177.195 L215.459,183.844 L202.858,183.844 L202.858,170.195 L202.858,169.045 C202.858,168.845 202.817,168.453 202.734,167.869 C202.651,167.287 202.518,166.879 202.338,166.644 C202.155,166.412 201.874,166.169 201.494,165.919 C201.114,165.669 200.642,165.544 200.081,165.544 C197.998,165.544 196.958,167.081 196.958,170.153 L196.958,177.194 L199.91,177.194 L199.91,177.195 Z" id="Shape" fill="#000000"></path>
            <path d="M216.01,165.494 L216.01,158.845 L218.71,158.845 L218.71,154.244 L227.91,151.295 L227.91,158.845 L232.66,158.845 L232.66,165.494 L227.91,165.494 L227.91,174.099 C227.91,174.228 227.901,174.46 227.885,174.8 C227.867,175.139 227.867,175.404 227.885,175.597 C227.902,175.79 227.918,176.025 227.935,176.298 C227.952,176.571 227.993,176.798 228.06,176.975 C228.126,177.154 228.218,177.339 228.335,177.535 C228.451,177.73 228.609,177.873 228.81,177.961 C229.01,178.051 229.243,178.095 229.51,178.095 C230.277,178.095 231.326,177.779 232.66,177.145 L232.66,183.795 C231.992,184.061 231.001,184.287 229.684,184.47 C228.367,184.653 227.342,184.744 226.609,184.744 C225.142,184.744 223.918,184.57 222.934,184.223 C221.951,183.874 221.184,183.454 220.634,182.958 C220.084,182.462 219.667,181.7 219.384,180.676 C219.101,179.651 218.925,178.724 218.859,177.898 C218.793,177.072 218.742,175.88 218.71,174.326 L218.71,165.494 L216.01,165.494 L216.01,165.494 Z" id="Shape" fill="#000000"></path>
            <path d="M237.441,166.251 L235.153,161.143 C239.351,158.912 243.23,157.794 246.789,157.794 C248.442,157.794 250.02,157.956 251.523,158.278 C253.024,158.6 254.476,159.116 255.877,159.825 C257.277,160.536 258.4,161.575 259.244,162.946 C260.088,164.317 260.51,165.922 260.51,167.76 L260.51,177.193 L263.51,177.193 L263.51,183.843 L252.658,183.843 L251.434,181.531 C250.603,182.686 249.557,183.519 248.294,184.029 C247.031,184.537 245.835,184.793 244.706,184.793 C241.846,184.793 239.348,184.06 237.212,182.595 C235.076,181.129 234.009,179.015 234.009,176.252 C234.009,173.363 235.099,171.039 237.279,169.281 C239.459,167.522 242.117,166.642 245.252,166.642 C246.145,166.642 246.979,166.788 247.755,167.081 C248.531,167.374 249.094,167.649 249.442,167.905 C249.789,168.163 250.028,168.383 250.161,168.565 L250.161,166.979 C250.161,165.288 248.591,164.441 245.451,164.441 C243.085,164.444 240.415,165.046 237.441,166.251 M246.987,178.144 C247.68,178.144 248.317,177.972 248.895,177.628 C249.473,177.284 249.894,176.89 250.16,176.442 L250.16,174.657 C249.598,173.749 248.622,173.294 247.234,173.294 C245.317,173.294 244.359,174.124 244.359,175.784 C244.359,176.487 244.607,177.056 245.103,177.491 C245.599,177.927 246.227,178.144 246.987,178.144" id="Shape" fill="#000000"></path>
            <path d="M264.44,189.759 L267.015,184.144 C267.795,184.867 269.001,185.597 270.63,186.335 C272.26,187.075 273.889,187.443 275.519,187.443 C277.566,187.443 279.05,186.978 279.974,186.046 C280.898,185.116 281.359,184.019 281.359,182.755 L281.359,181.059 C279.916,182.951 277.953,183.894 275.468,183.894 C271.566,183.894 268.638,182.671 266.687,180.226 C264.735,177.781 263.759,174.787 263.759,171.246 C263.759,167.264 264.818,164.119 266.935,161.808 C269.052,159.499 272.081,158.344 276.023,158.344 C277.063,158.344 278.078,158.557 279.069,158.981 C280.058,159.406 280.822,159.89 281.359,160.433 L282.405,158.844 L294.259,158.844 L294.259,165.493 L291.709,165.493 L291.709,180.391 C291.709,184.643 290.351,187.981 287.635,190.407 C284.918,192.831 280.913,194.06 275.619,194.094 C273.21,194.062 271.045,193.61 269.126,192.74 C267.207,191.869 265.645,190.875 264.44,189.759 M274.109,171.146 C274.109,172.732 274.445,174.146 275.117,175.385 C275.788,176.624 276.66,177.243 277.734,177.243 C278.775,177.243 279.656,176.659 280.378,175.491 C281.099,174.321 281.41,172.798 281.31,170.921 C281.31,169.275 280.95,167.876 280.227,166.723 C279.505,165.571 278.659,164.994 277.685,164.994 C276.61,164.994 275.747,165.553 275.09,166.668 C274.437,167.783 274.109,169.275 274.109,171.146" id="Shape" fill="#000000"></path>
            <path d="M314.956,183.844 L296.51,183.844 L296.51,177.195 L299.41,177.195 L299.41,155.545 L296.51,155.545 L296.51,148.895 L314.647,148.895 C322.589,148.895 326.56,151.793 326.56,157.59 C326.56,159.684 326.234,161.295 325.581,162.423 C324.928,163.551 323.766,164.475 322.095,165.195 C323.903,165.722 325.365,166.689 326.484,168.09 C327.602,169.492 328.162,171.332 328.162,173.608 C328.162,177.172 327.126,179.769 325.055,181.401 C322.981,183.029 319.615,183.844 314.956,183.844 L314.956,183.844 Z M312.91,155.695 L309.76,155.695 L309.76,162.994 L312.81,162.994 C314.077,162.994 314.96,162.679 315.46,162.047 C315.96,161.414 316.21,160.481 316.21,159.246 C316.21,158.143 315.901,157.277 315.285,156.643 C314.668,156.01 313.876,155.695 312.91,155.695 L312.91,155.695 Z M313.76,177.195 C314.86,177.195 315.81,176.81 316.61,176.04 C317.411,175.271 317.81,174.246 317.81,172.969 C317.81,171.692 317.443,170.653 316.71,169.849 C315.977,169.047 314.942,168.645 313.609,168.645 L309.759,168.645 L309.759,177.196 L313.76,177.196 L313.76,177.195 Z" id="Shape" fill="#96BF3D"></path>
            <path d="M343.834,184.494 C339.946,184.494 336.629,183.337 333.882,181.019 C331.133,178.703 329.777,175.445 329.81,171.244 C329.843,167.279 331.226,164.119 333.957,161.769 C336.687,159.419 339.896,158.244 343.584,158.244 C347.673,158.311 351.008,159.512 353.588,161.845 C356.168,164.178 357.492,167.379 357.56,171.446 C357.593,175.479 356.302,178.663 353.688,180.995 C351.074,183.328 347.789,184.494 343.834,184.494 M343.834,177.844 C344.859,177.844 345.679,177.238 346.291,176.025 C346.903,174.813 347.21,173.269 347.21,171.393 C347.21,169.518 346.887,167.974 346.242,166.761 C345.596,165.549 344.711,164.927 343.586,164.894 C342.625,164.894 341.815,165.509 341.152,166.738 C340.489,167.967 340.16,169.47 340.16,171.248 C340.16,173.221 340.507,174.813 341.202,176.025 C341.896,177.238 342.774,177.844 343.834,177.844" id="Shape" fill="#96BF3D"></path>
            <path d="M374.91,177.195 L374.91,183.844 L360.16,183.844 L360.16,177.195 L361.609,177.195 L361.609,165.344 L360.16,165.344 L360.16,158.844 L370.732,158.844 L371.96,161.945 C373.883,159.277 376.253,157.945 379.071,157.945 C380.586,157.945 381.906,158.16 383.035,158.591 C384.162,159.023 385.046,159.577 385.685,160.257 C386.324,160.937 386.837,161.782 387.225,162.794 C387.612,163.806 387.872,164.784 388.007,165.73 C388.14,166.674 388.209,167.727 388.209,168.887 L388.209,177.195 L390.459,177.195 L390.459,183.844 L377.858,183.844 L377.858,170.195 L377.858,169.045 C377.858,168.845 377.817,168.453 377.734,167.869 C377.651,167.287 377.519,166.879 377.338,166.644 C377.155,166.412 376.874,166.169 376.494,165.919 C376.114,165.669 375.642,165.544 375.081,165.544 C372.998,165.544 371.958,167.081 371.958,170.153 L371.958,177.194 L374.91,177.194 L374.91,177.195 Z" id="Shape" fill="#96BF3D"></path>
            <path d="M406.91,177.195 L406.91,183.844 L392.16,183.844 L392.16,177.195 L393.609,177.195 L393.609,165.344 L392.16,165.344 L392.16,158.844 L402.732,158.844 L403.96,161.945 C405.883,159.277 408.253,157.945 411.071,157.945 C412.586,157.945 413.906,158.16 415.035,158.591 C416.162,159.023 417.046,159.577 417.685,160.257 C418.324,160.937 418.837,161.782 419.225,162.794 C419.612,163.806 419.872,164.784 420.007,165.73 C420.14,166.674 420.209,167.727 420.209,168.887 L420.209,177.195 L422.459,177.195 L422.459,183.844 L409.858,183.844 L409.858,170.195 L409.858,169.045 C409.858,168.845 409.817,168.453 409.734,167.869 C409.651,167.287 409.519,166.879 409.338,166.644 C409.155,166.412 408.874,166.169 408.494,165.919 C408.114,165.669 407.642,165.544 407.081,165.544 C404.998,165.544 403.958,167.081 403.958,170.153 L403.958,177.194 L406.91,177.194 L406.91,177.195 Z" id="Shape" fill="#96BF3D"></path>
            <path d="M268.525,57.915 C268.525,25.98 242.547,0 210.61,0 C178.674,0 152.693,25.98 152.693,57.915 C152.693,89.851 178.674,115.832 210.61,115.832 C213.504,115.832 216.345,115.616 219.127,115.205 L219.127,135.731 C219.127,135.731 247.165,109.197 256.679,93.456 C262.828,84.69 268.525,71.031 268.525,57.915" id="Shape" fill="#96BF3D"></path>
            <path d="M250.479,44.703 L250.479,44.741 C250.474,44.726 250.47,44.712 250.465,44.698 L244.055,44.698 C245.763,48.878 246.712,53.445 246.712,58.232 C246.712,63.114 245.729,67.768 243.957,72.016 L250.38,72.016 C250.385,72.001 250.389,71.987 250.394,71.973 L250.394,72.016 L259.08,66.94 L259.08,50.18 L250.479,44.703 L250.479,44.703 Z" id="Shape" fill="#FFFFFF"></path>
            <path d="M242.304,75.4 C236.204,86.543 224.389,94.129 210.817,94.129 C191.022,94.129 174.919,78.026 174.919,58.232 C174.919,38.437 191.023,22.334 210.817,22.334 C224.498,22.334 236.391,30.041 242.448,41.329 L249.155,41.329 C242.657,26.61 227.94,16.334 210.817,16.334 C187.676,16.334 168.919,35.092 168.919,58.232 C168.919,81.372 187.677,100.129 210.817,100.129 C227.836,100.129 242.475,89.976 249.034,75.4 L242.304,75.4 L242.304,75.4 Z" id="Shape" fill="#FFFFFF"></path>
            <path d="M213.179,76.836 C212.655,76.836 211.951,76.648 211.075,76.274 C210.194,75.9 209.296,75.404 208.379,74.787 C207.461,74.169 206.591,73.458 205.768,72.653 C204.945,71.848 204.365,70.996 204.027,70.098 C202.08,71.932 200.133,73.486 198.187,74.758 C196.241,76.03 194.425,76.724 192.741,76.836 C192.179,76.836 191.365,76.592 190.298,76.106 C189.231,75.619 188.183,74.992 187.154,74.225 C186.124,73.458 185.226,72.578 184.458,71.586 C183.691,70.594 183.307,69.592 183.307,68.582 C183.307,66.111 183.579,63.575 184.121,60.973 C184.664,58.372 185.338,55.779 186.143,53.196 C186.948,50.613 187.819,48.096 188.754,45.643 C189.689,43.192 190.551,40.862 191.337,38.652 C193.246,39.514 195.117,40.477 196.952,41.544 C198.785,42.611 200.49,43.838 202.062,45.222 C201.5,46.345 200.919,47.674 200.321,49.209 C199.722,50.745 199.142,52.335 198.58,53.982 C198.019,55.63 197.486,57.295 196.98,58.98 C196.475,60.664 196.034,62.218 195.66,63.64 C195.286,65.064 194.987,66.317 194.762,67.402 C194.537,68.489 194.425,69.255 194.425,69.705 C194.425,70.005 194.49,70.276 194.621,70.519 C194.752,70.763 194.967,70.884 195.267,70.884 C195.829,70.884 196.455,70.679 197.149,70.266 C197.841,69.855 198.571,69.312 199.338,68.638 C200.105,67.964 200.891,67.188 201.696,66.307 C202.501,65.428 203.297,64.502 204.083,63.528 C204.345,61.544 204.737,59.579 205.263,57.632 C205.786,55.686 206.367,53.757 207.003,51.848 C207.639,49.939 208.313,48.058 209.024,46.205 C209.735,44.352 210.428,42.527 211.101,40.73 C213.01,41.592 214.882,42.555 216.717,43.622 C218.55,44.689 220.254,45.916 221.826,47.3 C221.264,48.423 220.703,49.696 220.141,51.118 C219.579,52.542 219.046,54.01 218.54,55.526 C218.035,57.043 217.558,58.54 217.108,60.018 C216.659,61.498 216.274,62.882 215.957,64.173 C215.639,65.465 215.386,66.598 215.199,67.571 C215.011,68.545 214.919,69.255 214.919,69.705 C214.919,70.005 214.975,70.276 215.087,70.519 C215.199,70.763 215.404,70.884 215.704,70.884 C216.303,70.884 216.996,70.669 217.782,70.238 C218.568,69.808 219.383,69.227 220.224,68.498 C221.067,67.767 221.917,66.917 222.78,65.942 C223.64,64.969 224.483,63.959 225.306,62.91 C224.969,61.751 224.801,60.421 224.801,58.923 C224.801,57.726 225.006,56.275 225.418,54.572 C225.83,52.869 226.354,51.174 226.99,49.49 C227.627,47.805 228.328,46.243 229.095,44.801 C229.864,43.36 230.583,42.284 231.257,41.572 C232.118,41.873 233.007,42.312 233.924,42.892 C234.841,43.473 235.693,44.09 236.48,44.745 C237.265,45.4 237.912,46.046 238.417,46.683 C238.923,47.32 239.212,47.826 239.287,48.199 C239.287,49.023 239.082,50.016 238.67,51.175 C238.258,52.336 237.688,53.59 236.957,54.938 C236.228,56.285 235.365,57.689 234.374,59.149 C233.382,60.609 232.305,62.069 231.145,63.529 C231.819,64.353 232.96,64.764 234.57,64.764 C236.442,64.764 238.313,64.1 240.185,62.771 C242.057,61.442 244.208,59.654 246.643,57.408 C247.017,57.745 247.466,58.186 247.991,58.728 C248.515,59.271 248.945,59.748 249.283,60.16 C246.138,63.268 243.32,65.522 240.832,66.926 C238.342,68.33 235.918,69.032 233.561,69.032 C231.315,69.032 229.461,68.414 228.001,67.179 C226.766,68.49 225.502,69.715 224.211,70.857 C222.919,71.999 221.637,73 220.365,73.861 C219.092,74.722 217.845,75.414 216.63,75.939 C215.415,76.461 214.264,76.76 213.179,76.836" id="Shape" fill="#FFFFFF"></path>
        </g>
    </g>
</svg>