<?xml version="1.0" encoding="utf-8"?>
<!-- Generator: Adobe Illustrator 13.0.2, SVG Export Plug-In . SVG Version: 6.00 Build 14948)  -->
<!DOCTYPE svg PUBLIC "-//W3C//DTD SVG 1.1 Tiny//EN" "http://www.w3.org/Graphics/SVG/1.1/DTD/svg11-tiny.dtd">
<svg version="1.1" baseProfile="tiny" id="Layer_1" xmlns="http://www.w3.org/2000/svg" xmlns:xlink="http://www.w3.org/1999/xlink"
	 x="0px" y="0px" width="422.46px" height="230.054px" viewBox="0 0 422.46 230.054" xml:space="preserve">
<g>
	<path d="M16.5,172.603h0.25c0.066-0.769,0.883-4.912,2.449-12.431l2.5-11.278H32.1l3.15,13.834c0.633,2.976,1.133,6.268,1.5,9.875
		H37c0.266-2.938,0.766-6.164,1.5-9.677l1.959-7.382h-2.75v-6.65h14.287v6.65h-2.75l-7.437,28.3h-12.11l-3-11.838
		c-0.433-1.591-0.849-3.647-1.25-6.167H25.25c-0.234,1.658-0.633,3.682-1.199,6.068L21,183.844H9.4l-6.6-28.3H0v-6.65h16.5v6.65
		h-2.9l1.3,7.262C15.366,164.794,15.9,168.062,16.5,172.603"/>
	<path d="M71.41,175.607l4.2,4.883c-3.368,2.836-7.667,4.254-12.9,4.254c-3.5,0-6.575-1.149-9.225-3.449
		c-2.65-2.301-3.975-5.666-3.975-10.101c0-3.968,1.267-7.118,3.8-9.45c2.533-2.332,5.75-3.5,9.65-3.5
		c2.933,0,5.475,0.672,7.625,2.014c2.15,1.341,3.591,3.072,4.325,5.191c0.367,1.06,0.591,2.318,0.675,3.775
		c0.083,1.458-0.108,2.998-0.575,4.62H59.26c0.1,0.519,0.217,0.95,0.35,1.296c0.132,0.346,0.375,0.786,0.725,1.322
		c0.35,0.535,0.875,0.941,1.575,1.218c0.7,0.276,1.533,0.414,2.5,0.414C67.143,178.094,69.477,177.265,71.41,175.607 M63.26,164.894
		c-1.334,0-2.292,0.434-2.875,1.3c-0.584,0.867-0.908,1.767-0.975,2.7h7.55c-0.034-1.2-0.3-2.166-0.8-2.9
		C65.66,165.261,64.693,164.894,63.26,164.894"/>
	<path d="M89.38,183.845H78.16v-6.662h1.75v-24.289h-1.75v-6.549h12.1v14.315c0.529-0.597,1.439-1.116,2.73-1.556
		c1.291-0.44,2.549-0.66,3.774-0.66c3.427,0,6.107,1.292,8.043,3.875c1.935,2.583,2.869,5.658,2.803,9.225
		c-0.063,3.9-1.07,7.018-3.019,9.35c-1.95,2.334-4.575,3.5-7.877,3.5c-1.192,0-2.227-0.119-3.104-0.356
		c-0.879-0.237-1.533-0.493-1.963-0.765c-0.431-0.271-0.928-0.662-1.491-1.172L89.38,183.845z M97.26,171.369
		c0-1.632-0.331-3.086-0.993-4.361c-0.662-1.274-1.523-1.912-2.581-1.912c-1.03,0-1.901,0.604-2.614,1.811
		c-0.714,1.207-1.018,2.779-0.912,4.717c0,1.701,0.356,3.146,1.067,4.336c0.712,1.191,1.548,1.785,2.508,1.785
		c1.058,0,1.911-0.578,2.556-1.734C96.937,174.853,97.26,173.306,97.26,171.369"/>
	<path d="M125.359,177.195v6.649h-14.25v-6.649h1.5v-12.25h-1.5v-6.051h9.303l1.168,2.7c2.05-2.267,4.152-3.399,6.303-3.399
		c1.214,0,2.297,0.108,3.25,0.326c0.954,0.217,1.734,0.535,2.341,0.954c0.607,0.421,1.04,0.769,1.3,1.05
		c0.261,0.278,0.546,0.621,0.858,1.023c2.145-2.234,4.606-3.354,7.386-3.354c1.951,0,3.584,0.322,4.897,0.97
		c1.312,0.647,2.28,1.575,2.903,2.784c0.623,1.211,1.052,2.447,1.287,3.705c0.236,1.261,0.355,2.752,0.355,4.478v6.862h2.349v6.851
		h-12.7v-12.585c0-0.205,0.008-0.572,0.025-1.104s0.026-0.953,0.026-1.264s-0.018-0.699-0.051-1.168
		c-0.032-0.467-0.09-0.847-0.172-1.141c-0.083-0.294-0.19-0.588-0.322-0.883c-0.132-0.295-0.314-0.51-0.544-0.648
		c-0.232-0.139-0.511-0.208-0.841-0.208c-0.988,0-1.673,0.32-2.052,0.961c-0.38,0.64-0.569,1.583-0.569,2.829v8.41h2.601v6.8
		h-12.951v-13.13c0-2.3-0.115-3.854-0.345-4.66c-0.232-0.806-0.809-1.21-1.731-1.21c-1.482,0-2.223,1.038-2.223,3.113v9.237H125.359
		z"/>
	<path d="M168.834,184.494c-3.888,0-7.205-1.157-9.952-3.475c-2.749-2.316-4.106-5.574-4.072-9.775
		c0.033-3.965,1.416-7.125,4.147-9.475s5.94-3.525,9.627-3.525c4.089,0.067,7.424,1.268,10.004,3.601s3.904,5.534,3.972,9.601
		c0.033,4.033-1.258,7.217-3.872,9.549C176.074,183.328,172.789,184.494,168.834,184.494 M168.834,177.844
		c1.025,0,1.845-0.606,2.457-1.819c0.612-1.212,0.919-2.756,0.919-4.632c0-1.875-0.323-3.419-0.968-4.632
		c-0.646-1.212-1.531-1.834-2.656-1.867c-0.961,0-1.772,0.615-2.434,1.844s-0.992,2.732-0.992,4.51c0,1.973,0.347,3.565,1.042,4.777
		C166.897,177.238,167.774,177.844,168.834,177.844"/>
	<path d="M199.91,177.195v6.649h-14.75v-6.649h1.449v-11.851h-1.449v-6.5h10.572l1.228,3.101c1.923-2.668,4.293-4,7.111-4
		c1.515,0,2.835,0.215,3.964,0.646c1.127,0.432,2.011,0.986,2.65,1.666c0.639,0.68,1.152,1.525,1.539,2.537
		c0.388,1.012,0.648,1.99,0.783,2.936c0.133,0.944,0.202,1.997,0.202,3.157v8.308h2.25v6.649h-12.601v-13.649v-1.15
		c0-0.2-0.041-0.592-0.124-1.176c-0.083-0.582-0.216-0.99-0.396-1.225c-0.183-0.232-0.464-0.475-0.844-0.725
		s-0.852-0.375-1.413-0.375c-2.083,0-3.123,1.537-3.123,4.609v7.041H199.91z"/>
	<path d="M216.01,165.494v-6.649h2.7v-4.601l9.2-2.949v7.55h4.75v6.649h-4.75v8.605c0,0.129-0.009,0.361-0.025,0.701
		c-0.018,0.339-0.018,0.604,0,0.797c0.017,0.193,0.033,0.428,0.05,0.701s0.058,0.5,0.125,0.677c0.066,0.179,0.158,0.364,0.275,0.56
		c0.116,0.195,0.274,0.338,0.475,0.426c0.2,0.09,0.433,0.134,0.7,0.134c0.767,0,1.816-0.316,3.15-0.95v6.65
		c-0.668,0.266-1.659,0.492-2.976,0.675c-1.317,0.183-2.342,0.274-3.075,0.274c-1.467,0-2.691-0.174-3.675-0.521
		c-0.983-0.349-1.75-0.769-2.3-1.265s-0.967-1.258-1.25-2.282c-0.283-1.025-0.459-1.952-0.525-2.778s-0.117-2.018-0.149-3.572
		v-8.832H216.01z"/>
	<path d="M237.441,166.251l-2.288-5.108c4.198-2.231,8.077-3.349,11.636-3.349c1.653,0,3.231,0.162,4.734,0.484
		c1.501,0.322,2.953,0.838,4.354,1.547c1.4,0.711,2.523,1.75,3.367,3.121s1.266,2.976,1.266,4.814v9.433h3v6.65h-10.852
		l-1.224-2.312c-0.831,1.155-1.877,1.988-3.14,2.498c-1.263,0.508-2.459,0.764-3.588,0.764c-2.86,0-5.358-0.733-7.494-2.198
		c-2.136-1.466-3.203-3.58-3.203-6.343c0-2.889,1.09-5.213,3.27-6.971c2.18-1.759,4.838-2.639,7.973-2.639
		c0.893,0,1.727,0.146,2.503,0.439s1.339,0.568,1.687,0.824c0.347,0.258,0.586,0.478,0.719,0.66v-1.586
		c0-1.691-1.57-2.538-4.71-2.538C243.085,164.444,240.415,165.046,237.441,166.251 M246.987,178.144c0.693,0,1.33-0.172,1.908-0.516
		s0.999-0.738,1.265-1.186v-1.785c-0.562-0.908-1.538-1.363-2.926-1.363c-1.917,0-2.875,0.83-2.875,2.49
		c0,0.703,0.248,1.272,0.744,1.707C245.599,177.927,246.227,178.144,246.987,178.144"/>
	<path d="M264.44,189.759l2.575-5.615c0.78,0.723,1.986,1.453,3.615,2.191c1.63,0.74,3.259,1.108,4.889,1.108
		c2.047,0,3.531-0.465,4.455-1.397c0.924-0.93,1.385-2.027,1.385-3.291v-1.696c-1.443,1.892-3.406,2.835-5.891,2.835
		c-3.902,0-6.83-1.223-8.781-3.668c-1.952-2.445-2.928-5.439-2.928-8.98c0-3.982,1.059-7.127,3.176-9.438
		c2.117-2.309,5.146-3.464,9.088-3.464c1.04,0,2.055,0.213,3.046,0.637c0.989,0.425,1.753,0.909,2.29,1.452l1.046-1.589h11.854
		v6.649h-2.55v14.898c0,4.252-1.358,7.59-4.074,10.016c-2.717,2.424-6.722,3.653-12.016,3.687c-2.409-0.032-4.574-0.484-6.493-1.354
		C267.207,191.869,265.645,190.875,264.44,189.759 M274.109,171.146c0,1.586,0.336,3,1.008,4.239
		c0.671,1.239,1.543,1.858,2.617,1.858c1.041,0,1.922-0.584,2.644-1.752c0.721-1.17,1.032-2.693,0.932-4.57
		c0-1.646-0.36-3.045-1.083-4.198c-0.722-1.152-1.568-1.729-2.542-1.729c-1.075,0-1.938,0.559-2.595,1.674
		C274.437,167.783,274.109,169.275,274.109,171.146"/>
	<path fill="#96BF3D" d="M314.956,183.844H296.51v-6.649h2.9v-21.65h-2.9v-6.65h18.137c7.942,0,11.913,2.898,11.913,8.695
		c0,2.094-0.326,3.705-0.979,4.833s-1.815,2.052-3.486,2.772c1.808,0.527,3.27,1.494,4.389,2.895
		c1.118,1.402,1.678,3.242,1.678,5.518c0,3.564-1.036,6.161-3.107,7.793C322.981,183.029,319.615,183.844,314.956,183.844
		 M312.91,155.695h-3.15v7.299h3.05c1.267,0,2.15-0.315,2.65-0.947c0.5-0.633,0.75-1.566,0.75-2.801
		c0-1.103-0.309-1.969-0.925-2.603C314.668,156.01,313.876,155.695,312.91,155.695 M313.76,177.195c1.1,0,2.05-0.385,2.85-1.155
		c0.801-0.769,1.2-1.794,1.2-3.071s-0.367-2.316-1.1-3.12c-0.733-0.802-1.768-1.204-3.101-1.204h-3.85v8.551H313.76z"/>
	<path fill="#96BF3D" d="M343.834,184.494c-3.888,0-7.205-1.157-9.952-3.475c-2.749-2.316-4.105-5.574-4.072-9.775
		c0.033-3.965,1.416-7.125,4.147-9.475c2.73-2.35,5.939-3.525,9.627-3.525c4.089,0.067,7.424,1.268,10.004,3.601
		s3.904,5.534,3.972,9.601c0.033,4.033-1.258,7.217-3.872,9.549C351.074,183.328,347.789,184.494,343.834,184.494 M343.834,177.844
		c1.025,0,1.845-0.606,2.457-1.819c0.612-1.212,0.919-2.756,0.919-4.632c0-1.875-0.323-3.419-0.968-4.632
		c-0.646-1.212-1.531-1.834-2.656-1.867c-0.961,0-1.771,0.615-2.434,1.844s-0.992,2.732-0.992,4.51c0,1.973,0.347,3.565,1.042,4.777
		C341.896,177.238,342.774,177.844,343.834,177.844"/>
	<path fill="#96BF3D" d="M374.91,177.195v6.649h-14.75v-6.649h1.449v-11.851h-1.449v-6.5h10.572l1.228,3.101
		c1.923-2.668,4.293-4,7.111-4c1.515,0,2.835,0.215,3.964,0.646c1.127,0.432,2.011,0.986,2.65,1.666
		c0.639,0.68,1.152,1.525,1.54,2.537c0.387,1.012,0.647,1.99,0.782,2.936c0.133,0.944,0.202,1.997,0.202,3.157v8.308h2.25v6.649
		h-12.601v-13.649v-1.15c0-0.2-0.041-0.592-0.124-1.176c-0.083-0.582-0.215-0.99-0.396-1.225c-0.183-0.232-0.464-0.475-0.844-0.725
		s-0.852-0.375-1.413-0.375c-2.083,0-3.123,1.537-3.123,4.609v7.041H374.91z"/>
	<path fill="#96BF3D" d="M406.91,177.195v6.649h-14.75v-6.649h1.449v-11.851h-1.449v-6.5h10.572l1.228,3.101
		c1.923-2.668,4.293-4,7.111-4c1.515,0,2.835,0.215,3.964,0.646c1.127,0.432,2.011,0.986,2.65,1.666
		c0.639,0.68,1.152,1.525,1.54,2.537c0.387,1.012,0.647,1.99,0.782,2.936c0.133,0.944,0.202,1.997,0.202,3.157v8.308h2.25v6.649
		h-12.601v-13.649v-1.15c0-0.2-0.041-0.592-0.124-1.176c-0.083-0.582-0.215-0.99-0.396-1.225c-0.183-0.232-0.464-0.475-0.844-0.725
		s-0.852-0.375-1.413-0.375c-2.083,0-3.123,1.537-3.123,4.609v7.041H406.91z"/>
	<path d="M57.94,225.439v0.606c0,0.177,0.006,0.328,0.018,0.453c1.082-0.765,2.128-1.701,3.135-2.812
		c1.009-1.111,1.951-2.33,2.829-3.658c0.877-1.326,1.68-2.736,2.41-4.229c0.728-1.491,1.352-3.005,1.871-4.536
		c0.518-1.533,0.92-3.049,1.205-4.547c0.284-1.498,0.427-2.925,0.427-4.281c0-0.387-0.011-0.72-0.034-0.998
		c-0.023-0.281-0.051-0.517-0.086-0.711c-0.034-0.192-0.065-0.344-0.093-0.453c-0.03-0.107-0.049-0.189-0.061-0.248l5.076,5.009
		c-0.353,2.005-0.9,3.95-1.64,5.836c-0.742,1.886-1.601,3.669-2.58,5.349c-0.981,1.682-2.038,3.244-3.171,4.691
		c-1.134,1.447-2.273,2.736-3.418,3.871c-1.145,1.134-2.256,2.094-3.332,2.88c-1.077,0.786-2.042,1.36-2.898,1.726
		c-0.113,0.057-0.216,0.094-0.306,0.111c-0.092,0.017-0.155,0.025-0.189,0.025c-0.228,0-0.459-0.077-0.692-0.23
		c-0.234-0.154-0.45-0.336-0.65-0.547c-0.199-0.211-0.376-0.422-0.529-0.633c-0.154-0.211-0.265-0.379-0.333-0.504
		c-0.023-0.045-0.055-0.119-0.095-0.223c-0.04-0.102-0.077-0.219-0.11-0.35c-0.035-0.131-0.067-0.264-0.095-0.393
		c-0.028-0.131-0.042-0.254-0.042-0.369c0-0.317,0.008-0.719,0.026-1.205c0.016-0.483,0.036-1.021,0.059-1.613
		c-2.883,2.951-5.526,4.927-7.93,5.93c-0.126,0.057-0.236,0.094-0.333,0.111c-0.097,0.017-0.162,0.025-0.197,0.025
		c-0.227,0-0.464-0.092-0.709-0.273c-0.245-0.183-0.478-0.393-0.7-0.632c-0.223-0.24-0.416-0.479-0.581-0.718
		c-0.166-0.239-0.282-0.422-0.351-0.547c-0.057-0.092-0.114-0.226-0.171-0.402c-0.057-0.178-0.085-0.379-0.085-0.606
		c0-0.593,0.062-1.393,0.188-2.401c0.125-1.008,0.308-2.162,0.547-3.461c0.239-1.299,0.521-2.711,0.846-4.237
		c0.325-1.527,0.692-3.104,1.102-4.734c0.41-1.629,0.849-3.284,1.317-4.965c0.466-1.68,0.957-3.317,1.468-4.913
		c0.172,0.182,0.382,0.422,0.633,0.719c0.25,0.295,0.513,0.611,0.786,0.947c0.274,0.336,0.544,0.676,0.812,1.018
		c0.267,0.342,0.507,0.648,0.718,0.922c0.21,0.273,0.441,0.588,0.692,0.94c-0.615,1.8-1.193,3.63-1.734,5.486
		c-0.542,1.856-1.049,3.68-1.522,5.468c-0.473,1.789-0.914,3.516-1.324,5.18c-0.41,1.662-0.786,3.201-1.128,4.613
		c1.492-0.91,2.916-1.997,4.272-3.256c1.356-1.258,2.58-2.646,3.674-4.161c0.104-1.06,0.232-2.104,0.385-3.136
		c0.154-1.031,0.334-1.957,0.539-2.777s0.438-1.484,0.7-1.99c0.262-0.508,0.558-0.762,0.889-0.762c0.147,0,0.361,0.098,0.641,0.291
		c0.279,0.194,0.564,0.426,0.854,0.692c0.291,0.268,0.564,0.536,0.82,0.803c0.257,0.269,0.442,0.476,0.556,0.624
		c0.057,0.068,0.113,0.168,0.171,0.299c0.057,0.131,0.086,0.311,0.086,0.538c0,0.548-0.052,1.05-0.154,1.504
		c-0.103,0.456-0.251,0.892-0.445,1.308c-0.194,0.416-0.425,0.828-0.692,1.24c-0.268,0.409-0.562,0.842-0.88,1.297
		c-0.092,0.627-0.171,1.277-0.239,1.949c-0.058,0.581-0.109,1.225-0.155,1.932C57.963,224.025,57.94,224.732,57.94,225.439"/>
	<path d="M81.327,224.909c0,0.067,0.034,0.103,0.103,0.103c0.102,0,0.273-0.074,0.512-0.223c0.239-0.148,0.513-0.336,0.821-0.564
		c0.307-0.227,0.634-0.482,0.982-0.769c0.348-0.284,0.681-0.563,1-0.837c0.318-0.273,0.606-0.523,0.863-0.752
		c0.256-0.229,0.453-0.404,0.59-0.529c0.102,0.103,0.231,0.238,0.384,0.409c0.154,0.171,0.293,0.325,0.419,0.462
		c-0.274,0.251-0.602,0.555-0.983,0.914s-0.792,0.732-1.23,1.119c-0.44,0.389-0.892,0.771-1.359,1.154
		c-0.467,0.382-0.922,0.721-1.368,1.017c-0.443,0.296-0.865,0.538-1.263,0.726c-0.4,0.188-0.747,0.283-1.043,0.283
		c-0.205,0-0.431-0.041-0.675-0.119c-0.245-0.08-0.47-0.191-0.675-0.334s-0.377-0.311-0.514-0.504
		c-0.136-0.193-0.205-0.41-0.205-0.649c0-0.091-0.003-0.202-0.007-0.335c-0.006-0.129,0.002-0.301,0.025-0.512
		c0.022-0.211,0.068-0.467,0.137-0.769c0.068-0.302,0.171-0.675,0.307-1.12c-0.376,0.398-0.817,0.814-1.324,1.248
		c-0.508,0.434-1.04,0.844-1.599,1.23c-0.557,0.388-1.119,0.738-1.682,1.051c-0.565,0.314-1.085,0.55-1.564,0.71
		c-0.057,0.022-0.103,0.034-0.136,0.034h-0.104c-0.113,0-0.265-0.057-0.452-0.172c-0.189-0.113-0.373-0.265-0.556-0.453
		c-0.181-0.188-0.339-0.401-0.469-0.641c-0.131-0.238-0.197-0.478-0.197-0.718c0-0.067,0.033-0.295,0.102-0.683
		c0.068-0.387,0.231-0.881,0.487-1.479c0.257-0.599,0.636-1.271,1.137-2.017c0.502-0.746,1.184-1.513,2.051-2.3
		c0.444-0.397,0.922-0.773,1.435-1.127c0.433-0.295,0.929-0.599,1.487-0.905c0.558-0.308,1.145-0.554,1.76-0.735
		c0.023,0,0.043-0.006,0.06-0.017c0.017-0.013,0.043-0.007,0.077,0.017c0.137,0.047,0.299,0.117,0.487,0.215
		c0.188,0.096,0.376,0.198,0.564,0.307c0.188,0.109,0.353,0.217,0.496,0.324c0.141,0.108,0.236,0.196,0.281,0.266
		c0.012,0.023,0.012,0.04,0,0.051l-0.033,0.034c-0.514,0.274-0.998,0.579-1.453,0.914c-0.456,0.337-0.861,0.653-1.213,0.948
		c-0.41,0.354-0.793,0.701-1.146,1.043c-0.832,0.82-1.407,1.529-1.725,2.127c-0.32,0.599-0.479,1.029-0.479,1.291
		c0,0.193,0.079,0.291,0.239,0.291s0.362-0.066,0.607-0.197c0.244-0.13,0.521-0.309,0.828-0.529
		c0.309-0.223,0.647-0.484,1.018-0.785c0.37-0.303,0.754-0.619,1.153-0.949c0.353-0.285,0.694-0.592,1.025-0.924
		c0.285-0.272,0.581-0.586,0.889-0.939s0.569-0.712,0.786-1.077c0-0.011,0.006-0.022,0.018-0.034c0.011-0.011,0.027-0.011,0.051,0
		c0.125,0.092,0.267,0.242,0.427,0.453c0.159,0.211,0.307,0.441,0.444,0.691c0.136,0.252,0.254,0.494,0.35,0.728
		c0.097,0.233,0.146,0.413,0.146,0.538c-0.263,0.536-0.465,1.023-0.607,1.461c-0.142,0.439-0.251,0.824-0.325,1.154
		c-0.074,0.33-0.119,0.613-0.137,0.846C81.336,224.603,81.327,224.784,81.327,224.909"/>
	<path d="M86.278,220.841c0.336-0.318,0.672-0.667,1.008-1.042c0.336-0.376,0.649-0.781,0.94-1.214
		c0.29-0.432,0.521-0.9,0.693-1.401c0.045-0.262,0.116-0.538,0.213-0.829c0.096-0.289,0.205-0.556,0.325-0.795
		c0.119-0.238,0.236-0.438,0.35-0.598c0.114-0.159,0.216-0.239,0.307-0.239c0.137,0.08,0.342,0.229,0.615,0.453
		c0.274,0.222,0.547,0.458,0.82,0.709c0.274,0.251,0.516,0.481,0.727,0.692s0.316,0.339,0.316,0.385
		c-0.136,0.523-0.202,0.997-0.196,1.418c0.005,0.422,0.039,0.837,0.103,1.248c0.062,0.41,0.131,0.846,0.205,1.307
		c0.073,0.463,0.111,0.994,0.111,1.598c0,0.365-0.06,0.785-0.18,1.256c-0.12,0.474-0.328,0.897-0.624,1.273
		c0.581-0.342,1.157-0.726,1.726-1.154c0.57-0.426,1.077-0.828,1.521-1.203c0.524-0.445,1.026-0.889,1.504-1.334l0.77,0.838
		c-0.377,0.354-0.784,0.73-1.223,1.128c-0.438,0.399-0.894,0.792-1.367,1.179c-0.473,0.389-0.954,0.758-1.443,1.111
		c-0.491,0.354-0.975,0.667-1.453,0.939c-0.479,0.274-0.94,0.49-1.385,0.65c-0.444,0.159-0.861,0.238-1.247,0.238
		c-0.331,0-0.696-0.079-1.094-0.238c-0.399-0.16-0.775-0.354-1.128-0.582c-0.353-0.227-0.661-0.466-0.923-0.717
		c-0.262-0.251-0.416-0.463-0.462-0.633c0-0.022,0.024-0.07,0.069-0.146c0.046-0.073,0.1-0.151,0.163-0.231
		c0.062-0.078,0.125-0.149,0.187-0.213c0.064-0.062,0.112-0.094,0.146-0.094c0.068,0,0.205,0.051,0.41,0.154
		c0.205,0.102,0.547,0.152,1.025,0.152c0.262,0,0.488-0.067,0.675-0.205c0.189-0.135,0.345-0.318,0.47-0.547
		c0.126-0.227,0.217-0.488,0.273-0.785c0.058-0.297,0.086-0.609,0.086-0.94c0-0.478-0.023-0.942-0.068-1.394
		c-0.046-0.448-0.097-0.885-0.154-1.307c-0.194,0.229-0.416,0.467-0.666,0.719c-0.251,0.25-0.504,0.498-0.761,0.744
		c-0.256,0.244-0.513,0.483-0.769,0.717c-0.257,0.233-0.487,0.441-0.692,0.623l-0.82-0.838
		C85.644,221.445,85.942,221.16,86.278,220.841"/>
	<path d="M98.175,227.677c-0.205,0-0.438-0.066-0.7-0.195c-0.262-0.133-0.53-0.309-0.804-0.531
		c-0.273-0.221-0.538-0.484-0.794-0.787c-0.257-0.301-0.47-0.616-0.641-0.947c-0.069-0.125-0.114-0.268-0.137-0.428
		c-0.023-0.158-0.033-0.363-0.033-0.614c0-0.649,0.099-1.302,0.298-1.957c0.2-0.655,0.476-1.278,0.829-1.872
		c0.353-0.592,0.778-1.146,1.273-1.666c0.496-0.518,1.034-0.965,1.615-1.341c0.581-0.376,1.202-0.672,1.864-0.89
		c0.66-0.215,1.332-0.324,2.015-0.324c0.104,0,0.242,0.054,0.419,0.162c0.177,0.108,0.368,0.254,0.573,0.436
		c0.205,0.184,0.412,0.389,0.623,0.616s0.403,0.459,0.573,0.692c0.172,0.232,0.31,0.461,0.419,0.683
		c0.108,0.223,0.163,0.419,0.163,0.59c-0.058,0.217-0.235,0.453-0.531,0.709c-0.296,0.257-0.646,0.496-1.05,0.718
		c-0.406,0.223-0.829,0.407-1.274,0.555c-0.444,0.149-0.832,0.224-1.162,0.224c-0.194,0-0.29-0.058-0.29-0.171
		c0-0.125,0.085-0.311,0.256-0.557c0.171-0.244,0.361-0.512,0.572-0.803c0.211-0.289,0.403-0.58,0.572-0.871
		c0.172-0.291,0.257-0.539,0.257-0.744c0-0.103-0.025-0.188-0.077-0.256c-0.051-0.068-0.122-0.103-0.213-0.103
		c-0.251,0-0.513,0.114-0.787,0.342c-0.273,0.228-0.547,0.53-0.82,0.906c-0.274,0.376-0.535,0.806-0.785,1.29
		c-0.251,0.484-0.471,0.982-0.659,1.494c-0.188,0.514-0.339,1.027-0.453,1.539c-0.114,0.513-0.171,0.979-0.171,1.401
		c0,0.251,0.075,0.425,0.222,0.521c0.149,0.097,0.377,0.145,0.684,0.145c0.763,0,1.501-0.128,2.214-0.384
		c0.711-0.257,1.395-0.587,2.05-0.991c0.655-0.403,1.279-0.858,1.871-1.358c0.592-0.502,1.151-1.004,1.675-1.504
		c0.125,0.147,0.28,0.293,0.461,0.436c0.183,0.143,0.32,0.266,0.41,0.367c-0.706,0.74-1.455,1.445-2.247,2.111
		s-1.626,1.248-2.503,1.742c-0.878,0.496-1.798,0.889-2.76,1.18C100.229,227.531,99.224,227.677,98.175,227.677"/>
	<path d="M117.259,224.976c0.171,0,0.398-0.072,0.684-0.221c0.284-0.148,0.6-0.336,0.948-0.564c0.347-0.227,0.703-0.48,1.068-0.762
		c0.364-0.277,0.715-0.551,1.051-0.819c0.336-0.267,0.635-0.513,0.897-0.733c0.262-0.224,0.461-0.391,0.598-0.506
		c0.104,0.104,0.226,0.234,0.368,0.393c0.142,0.16,0.276,0.309,0.402,0.445c-0.251,0.252-0.565,0.551-0.94,0.897
		c-0.377,0.348-0.781,0.704-1.214,1.067c-0.433,0.365-0.883,0.725-1.35,1.078c-0.467,0.353-0.922,0.672-1.368,0.957
		c-0.443,0.283-0.86,0.512-1.247,0.682c-0.387,0.172-0.712,0.258-0.973,0.258c-0.217,0-0.471-0.055-0.761-0.163
		c-0.291-0.108-0.57-0.245-0.838-0.41c-0.267-0.165-0.495-0.347-0.683-0.547c-0.188-0.199-0.283-0.396-0.283-0.589
		c0.012-0.49,0.104-1.061,0.274-1.709c0.172-0.65,0.373-1.316,0.607-2c0.234-0.684,0.484-1.358,0.752-2.025
		c0.268-0.666,0.515-1.261,0.743-1.785c-0.092,0.022-0.267,0.148-0.53,0.375c-0.262,0.229-0.578,0.539-0.948,0.932
		c-0.37,0.394-0.775,0.867-1.213,1.419c-0.44,0.553-0.872,1.171-1.299,1.854c-0.428,0.685-0.835,1.423-1.222,2.214
		c-0.387,0.793-0.713,1.627-0.974,2.504c-0.034,0.125-0.083,0.215-0.146,0.272c-0.062,0.058-0.168,0.086-0.315,0.086
		c-0.104,0-0.263-0.051-0.479-0.153c-0.217-0.103-0.445-0.226-0.683-0.369c-0.241-0.142-0.473-0.293-0.701-0.451
		c-0.228-0.16-0.411-0.303-0.547-0.428c-0.069-0.08-0.125-0.153-0.171-0.223c-0.045-0.068-0.069-0.171-0.069-0.307
		c0-0.752,0.126-1.676,0.376-2.77c0.251-1.094,0.596-2.281,1.035-3.562c0.438-1.282,0.951-2.62,1.538-4.016
		c0.586-1.396,1.213-2.767,1.88-4.11c0.666-1.345,1.361-2.624,2.084-3.837c0.723-1.215,1.436-2.284,2.136-3.213
		c0.701-0.928,1.373-1.674,2.017-2.239c0.643-0.563,1.233-0.863,1.769-0.897c0.262,0.08,0.527,0.205,0.794,0.377
		c0.268,0.17,0.522,0.358,0.761,0.563c0.239,0.205,0.453,0.405,0.641,0.598c0.188,0.194,0.334,0.359,0.435,0.496
		c0.069,0.091,0.114,0.2,0.137,0.325s0.035,0.216,0.035,0.273c0,0.41-0.114,0.918-0.342,1.521c-0.228,0.604-0.547,1.282-0.957,2.034
		c-0.41,0.752-0.909,1.558-1.496,2.418c-0.587,0.861-1.236,1.742-1.948,2.648s-1.482,1.82-2.307,2.743
		c-0.826,0.923-1.689,1.817-2.589,2.683c-0.228,0.615-0.433,1.213-0.615,1.795c0.615-0.637,1.179-1.174,1.692-1.606
		c0.512-0.433,0.967-0.776,1.367-1.034c0.398-0.256,0.737-0.438,1.016-0.547c0.28-0.107,0.494-0.162,0.642-0.162
		c0.102,0,0.284,0.066,0.547,0.196c0.262,0.131,0.535,0.288,0.82,0.47c0.284,0.184,0.547,0.371,0.785,0.564
		c0.241,0.193,0.388,0.354,0.446,0.479c0.022,0.057,0.022,0.135,0,0.23c-0.024,0.097-0.046,0.174-0.069,0.23
		c-0.103,0.309-0.225,0.664-0.368,1.068c-0.142,0.404-0.296,0.832-0.461,1.282c-0.166,0.45-0.328,0.903-0.487,1.358
		c-0.16,0.457-0.302,0.875-0.428,1.256c-0.125,0.383-0.227,0.717-0.307,1.008s-0.12,0.494-0.12,0.607
		C117.156,224.943,117.191,224.976,117.259,224.976 M115.755,210.28c-0.273,0.581-0.538,1.16-0.795,1.733
		c-0.256,0.576-0.504,1.154-0.743,1.735c0.763-0.979,1.504-1.974,2.222-2.981c0.717-1.008,1.358-1.977,1.922-2.905
		s1.017-1.786,1.359-2.572c0.342-0.786,0.513-1.446,0.513-1.983c0-0.25-0.046-0.375-0.137-0.375c-0.137,0-0.345,0.186-0.624,0.556
		c-0.279,0.37-0.613,0.88-1,1.528c-0.387,0.65-0.812,1.426-1.273,2.326C116.737,208.241,116.256,209.22,115.755,210.28"/>
	<path d="M123.278,220.841c0.336-0.318,0.672-0.667,1.008-1.042c0.336-0.376,0.649-0.781,0.94-1.214
		c0.29-0.432,0.521-0.9,0.693-1.401c0.045-0.262,0.116-0.538,0.213-0.829c0.096-0.289,0.205-0.556,0.325-0.795
		c0.119-0.238,0.236-0.438,0.35-0.598c0.114-0.159,0.216-0.239,0.307-0.239c0.137,0.08,0.342,0.229,0.615,0.453
		c0.274,0.222,0.547,0.458,0.82,0.709c0.274,0.251,0.516,0.481,0.727,0.692s0.316,0.339,0.316,0.385
		c-0.136,0.523-0.202,0.997-0.196,1.418c0.005,0.422,0.039,0.837,0.103,1.248c0.062,0.41,0.131,0.846,0.205,1.307
		c0.073,0.463,0.111,0.994,0.111,1.598c0,0.365-0.06,0.785-0.18,1.256c-0.12,0.474-0.328,0.897-0.624,1.273
		c0.581-0.342,1.157-0.726,1.726-1.154c0.57-0.426,1.077-0.828,1.521-1.203c0.524-0.445,1.026-0.889,1.504-1.334l0.77,0.838
		c-0.377,0.354-0.784,0.73-1.223,1.128c-0.438,0.399-0.894,0.792-1.367,1.179c-0.473,0.389-0.954,0.758-1.443,1.111
		c-0.491,0.354-0.975,0.667-1.453,0.939c-0.479,0.274-0.94,0.49-1.385,0.65c-0.444,0.159-0.861,0.238-1.247,0.238
		c-0.331,0-0.696-0.079-1.094-0.238c-0.399-0.16-0.775-0.354-1.128-0.582c-0.353-0.227-0.661-0.466-0.923-0.717
		c-0.262-0.251-0.416-0.463-0.462-0.633c0-0.022,0.024-0.07,0.069-0.146c0.046-0.073,0.1-0.151,0.163-0.231
		c0.062-0.078,0.125-0.149,0.187-0.213c0.064-0.062,0.112-0.094,0.146-0.094c0.068,0,0.205,0.051,0.41,0.154
		c0.205,0.102,0.547,0.152,1.025,0.152c0.262,0,0.488-0.067,0.675-0.205c0.189-0.135,0.345-0.318,0.47-0.547
		c0.126-0.227,0.217-0.488,0.273-0.785c0.058-0.297,0.086-0.609,0.086-0.94c0-0.478-0.023-0.942-0.068-1.394
		c-0.046-0.448-0.097-0.885-0.154-1.307c-0.194,0.229-0.416,0.467-0.666,0.719c-0.251,0.25-0.504,0.498-0.761,0.744
		c-0.256,0.244-0.513,0.483-0.769,0.717c-0.257,0.233-0.487,0.441-0.692,0.623l-0.82-0.838
		C122.644,221.445,122.942,221.16,123.278,220.841"/>
	<path d="M143.327,224.909c0,0.067,0.034,0.103,0.103,0.103c0.102,0,0.273-0.074,0.512-0.223c0.239-0.148,0.513-0.336,0.821-0.564
		c0.307-0.227,0.634-0.482,0.982-0.769c0.348-0.284,0.681-0.563,1-0.837c0.318-0.273,0.606-0.523,0.863-0.752
		c0.256-0.229,0.453-0.404,0.59-0.529c0.102,0.103,0.231,0.238,0.384,0.409c0.154,0.171,0.293,0.325,0.419,0.462
		c-0.274,0.251-0.602,0.555-0.983,0.914s-0.792,0.732-1.23,1.119c-0.44,0.389-0.892,0.771-1.359,1.154
		c-0.467,0.382-0.922,0.721-1.368,1.017c-0.443,0.296-0.865,0.538-1.263,0.726c-0.4,0.188-0.747,0.283-1.043,0.283
		c-0.205,0-0.431-0.041-0.675-0.119c-0.245-0.08-0.47-0.191-0.675-0.334s-0.377-0.311-0.514-0.504
		c-0.136-0.193-0.205-0.41-0.205-0.649c0-0.091-0.003-0.202-0.007-0.335c-0.006-0.129,0.002-0.301,0.025-0.512
		c0.022-0.211,0.068-0.467,0.137-0.769c0.068-0.302,0.171-0.675,0.307-1.12c-0.376,0.398-0.817,0.814-1.324,1.248
		c-0.508,0.434-1.04,0.844-1.599,1.23c-0.557,0.388-1.119,0.738-1.682,1.051c-0.565,0.314-1.085,0.55-1.564,0.71
		c-0.057,0.022-0.103,0.034-0.136,0.034h-0.104c-0.113,0-0.265-0.057-0.452-0.172c-0.189-0.113-0.373-0.265-0.556-0.453
		c-0.181-0.188-0.339-0.401-0.469-0.641c-0.131-0.238-0.197-0.478-0.197-0.718c0-0.067,0.033-0.295,0.102-0.683
		c0.068-0.387,0.231-0.881,0.487-1.479c0.257-0.599,0.636-1.271,1.137-2.017c0.502-0.746,1.184-1.513,2.051-2.3
		c0.444-0.397,0.922-0.773,1.435-1.127c0.433-0.295,0.929-0.599,1.487-0.905c0.558-0.308,1.145-0.554,1.76-0.735
		c0.023,0,0.043-0.006,0.06-0.017c0.017-0.013,0.043-0.007,0.077,0.017c0.137,0.047,0.299,0.117,0.487,0.215
		c0.188,0.096,0.376,0.198,0.564,0.307c0.188,0.109,0.353,0.217,0.496,0.324c0.141,0.108,0.236,0.196,0.281,0.266
		c0.012,0.023,0.012,0.04,0,0.051l-0.033,0.034c-0.514,0.274-0.998,0.579-1.453,0.914c-0.456,0.337-0.861,0.653-1.213,0.948
		c-0.41,0.354-0.793,0.701-1.146,1.043c-0.832,0.82-1.407,1.529-1.725,2.127c-0.32,0.599-0.479,1.029-0.479,1.291
		c0,0.193,0.079,0.291,0.239,0.291s0.362-0.066,0.607-0.197c0.244-0.13,0.521-0.309,0.828-0.529
		c0.309-0.223,0.647-0.484,1.018-0.785c0.37-0.303,0.754-0.619,1.153-0.949c0.353-0.285,0.694-0.592,1.025-0.924
		c0.285-0.272,0.581-0.586,0.889-0.939s0.569-0.712,0.786-1.077c0-0.011,0.006-0.022,0.018-0.034c0.011-0.011,0.027-0.011,0.051,0
		c0.125,0.092,0.267,0.242,0.427,0.453c0.159,0.211,0.307,0.441,0.444,0.691c0.136,0.252,0.254,0.494,0.35,0.728
		c0.097,0.233,0.146,0.413,0.146,0.538c-0.263,0.536-0.465,1.023-0.607,1.461c-0.142,0.439-0.251,0.824-0.325,1.154
		c-0.074,0.33-0.119,0.613-0.137,0.846C143.336,224.603,143.327,224.784,143.327,224.909"/>
	<path d="M151.312,225.216c0.181,0,0.429-0.08,0.743-0.238c0.313-0.16,0.658-0.362,1.034-0.607s0.769-0.516,1.18-0.812
		c0.41-0.295,0.794-0.586,1.153-0.871c0.358-0.285,0.681-0.547,0.966-0.787c0.284-0.238,0.495-0.414,0.632-0.528
		c0.102,0.103,0.224,0.233,0.367,0.394c0.142,0.158,0.276,0.307,0.401,0.443c-0.25,0.251-0.563,0.557-0.939,0.914
		c-0.376,0.359-0.783,0.727-1.222,1.104c-0.439,0.375-0.894,0.752-1.367,1.127c-0.474,0.377-0.935,0.713-1.385,1.008
		c-0.45,0.297-0.869,0.535-1.256,0.719c-0.387,0.182-0.712,0.273-0.973,0.273c-0.354,0-0.727-0.125-1.121-0.377
		c-0.392-0.25-0.76-0.543-1.102-0.879c-0.342-0.337-0.632-0.676-0.871-1.018c-0.239-0.342-0.376-0.598-0.41-0.77
		c-0.023-0.067-0.034-0.15-0.034-0.246v-0.317c0-0.569,0.071-1.29,0.213-2.162c0.143-0.871,0.333-1.794,0.573-2.769
		c0.239-0.974,0.515-1.941,0.829-2.905c0.312-0.962,0.64-1.813,0.982-2.554c0.695-1.517,1.41-2.86,2.145-4.035
		c0.735-1.172,1.455-2.195,2.162-3.066c0.706-0.872,1.384-1.604,2.034-2.195c0.648-0.594,1.232-1.072,1.751-1.437
		s0.957-0.626,1.316-0.786c0.359-0.158,0.607-0.238,0.744-0.238c0.215,0.08,0.435,0.195,0.658,0.35
		c0.221,0.154,0.429,0.316,0.623,0.486c0.194,0.172,0.365,0.34,0.513,0.504c0.148,0.166,0.256,0.289,0.325,0.369
		c0.091,0.09,0.15,0.178,0.179,0.264c0.029,0.086,0.043,0.197,0.043,0.334c0,0.273-0.068,0.648-0.205,1.128
		c-0.136,0.478-0.393,1.085-0.769,1.819c-0.376,0.735-0.898,1.615-1.564,2.641c-0.667,1.025-1.536,2.222-2.606,3.589
		c-0.502,0.638-1.031,1.288-1.59,1.948c-0.479,0.57-1.031,1.191-1.657,1.863c-0.627,0.672-1.271,1.315-1.931,1.931
		c-0.331,1.254-0.561,2.358-0.692,3.315c-0.132,0.957-0.197,1.703-0.197,2.238c0,0.354,0.028,0.582,0.085,0.684
		C151.129,225.166,151.209,225.216,151.312,225.216 M154.046,212.689c-0.194,0.434-0.373,0.854-0.538,1.266
		c-0.166,0.41-0.322,0.814-0.47,1.213c0.353-0.398,0.675-0.779,0.965-1.145c0.291-0.364,0.539-0.679,0.744-0.94
		c0.238-0.308,0.455-0.599,0.649-0.872c0.797-1.116,1.487-2.141,2.068-3.076c0.581-0.934,1.06-1.757,1.436-2.469
		c0.375-0.712,0.652-1.305,0.829-1.777c0.175-0.473,0.264-0.812,0.264-1.017c0-0.058-0.003-0.101-0.009-0.129
		c-0.005-0.028-0.037-0.042-0.093-0.042c-0.103,0-0.336,0.168-0.7,0.504c-0.366,0.336-0.813,0.869-1.342,1.598
		c-0.531,0.729-1.123,1.66-1.778,2.795C155.416,209.73,154.74,211.094,154.046,212.689"/>
	<path d="M158.773,224.669c0,0.342,0.125,0.514,0.376,0.514c0.262,0,0.609-0.209,1.043-0.625c0.433-0.416,0.882-0.943,1.35-1.58
		c-0.024-0.125-0.038-0.236-0.043-0.334c-0.006-0.097-0.008-0.185-0.008-0.265c0-0.228,0.025-0.498,0.076-0.812
		c0.052-0.313,0.18-0.67,0.385-1.068c0.136-0.309,0.301-0.609,0.496-0.906c0.159-0.261,0.352-0.544,0.58-0.846
		c0.228-0.301,0.478-0.583,0.752-0.846l0.103-0.103c0.114,0.138,0.265,0.322,0.453,0.556s0.375,0.473,0.564,0.717
		c0.187,0.246,0.352,0.471,0.495,0.676s0.231,0.348,0.266,0.427c0,0.491-0.089,0.979-0.266,1.47
		c-0.177,0.49-0.413,0.975-0.709,1.453c0.684-0.046,1.318-0.22,1.905-0.521c0.587-0.301,1.2-0.795,1.837-1.479
		c0.104,0.104,0.237,0.242,0.403,0.42c0.165,0.176,0.298,0.327,0.401,0.452c-0.479,0.501-0.948,0.917-1.41,1.247
		c-0.461,0.331-0.923,0.594-1.384,0.786c-0.462,0.194-0.932,0.334-1.41,0.419c-0.479,0.086-0.969,0.128-1.47,0.128
		c-0.388,0.411-0.804,0.787-1.247,1.128c-0.445,0.342-0.897,0.639-1.359,0.889c-0.461,0.25-0.92,0.444-1.375,0.582
		c-0.456,0.137-0.889,0.205-1.299,0.205c-0.342,0-0.695-0.103-1.061-0.309c-0.364-0.205-0.694-0.458-0.99-0.76
		c-0.297-0.303-0.541-0.624-0.735-0.967c-0.194-0.34-0.29-0.643-0.29-0.904c0-0.866,0.116-1.727,0.349-2.581
		c0.235-0.854,0.599-1.655,1.094-2.401c0.496-0.746,1.128-1.404,1.898-1.974c0.768-0.569,1.682-1.002,2.743-1.3
		c0.033-0.021,0.093-0.038,0.178-0.051c0.086-0.011,0.157-0.017,0.214-0.017c0.159,0,0.327,0.06,0.504,0.181
		c0.177,0.118,0.342,0.252,0.496,0.4c0.154,0.148,0.282,0.293,0.385,0.436c0.102,0.144,0.153,0.236,0.153,0.282
		c-0.023,0.058-0.108,0.128-0.256,0.214s-0.348,0.23-0.598,0.436c-0.251,0.205-0.547,0.499-0.889,0.88
		c-0.342,0.382-0.718,0.886-1.128,1.513c-0.615,0.924-1.031,1.758-1.247,2.504C158.881,223.681,158.773,224.259,158.773,224.669"/>
	<path d="M172.542,218.158c-0.137,0.365-0.273,0.735-0.41,1.111c-0.137,0.376-0.274,0.764-0.41,1.162
		c0.717-0.82,1.336-1.488,1.854-2.008c0.518-0.518,0.957-0.926,1.316-1.223c0.359-0.295,0.649-0.498,0.872-0.606
		c0.221-0.108,0.395-0.162,0.52-0.162c0.149,0,0.37,0.074,0.667,0.222c0.296,0.149,0.595,0.332,0.898,0.547
		c0.301,0.218,0.563,0.439,0.786,0.666c0.221,0.229,0.333,0.429,0.333,0.6c0,0.033-0.006,0.076-0.018,0.128
		c-0.011,0.051-0.028,0.117-0.051,0.196c-0.091,0.285-0.208,0.621-0.35,1.009c-0.143,0.387-0.293,0.789-0.452,1.204
		c-0.16,0.417-0.32,0.832-0.479,1.248c-0.16,0.416-0.303,0.806-0.428,1.171c-0.126,0.364-0.228,0.683-0.307,0.957
		c-0.08,0.272-0.12,0.473-0.12,0.598c0,0.068,0.035,0.103,0.103,0.103c0.125,0,0.313-0.073,0.564-0.223
		c0.25-0.148,0.538-0.342,0.863-0.58c0.324-0.24,0.663-0.502,1.017-0.787c0.352-0.285,0.692-0.565,1.016-0.846
		c0.325-0.279,0.618-0.531,0.88-0.76c0.263-0.229,0.462-0.398,0.599-0.514c0.113,0.103,0.239,0.234,0.376,0.394
		c0.136,0.16,0.267,0.308,0.392,0.444c-0.25,0.25-0.563,0.556-0.939,0.914c-0.376,0.359-0.783,0.727-1.222,1.103
		s-0.894,0.752-1.367,1.128c-0.474,0.376-0.932,0.713-1.376,1.008c-0.444,0.297-0.86,0.535-1.248,0.719
		c-0.387,0.182-0.712,0.272-0.974,0.272c-0.171,0-0.387-0.06-0.649-0.179c-0.263-0.12-0.516-0.268-0.761-0.444
		s-0.452-0.373-0.624-0.59c-0.17-0.216-0.256-0.427-0.256-0.632c0.103-0.467,0.242-0.997,0.419-1.59
		c0.176-0.592,0.367-1.198,0.572-1.82c0.206-0.621,0.419-1.236,0.641-1.846c0.223-0.609,0.437-1.17,0.642-1.684l-0.035,0.034
		c-0.216,0.263-0.527,0.606-0.931,1.034c-0.405,0.428-0.863,0.975-1.376,1.641c-0.513,0.668-1.054,1.469-1.623,2.41
		c-0.57,0.939-1.129,2.055-1.676,3.342c-0.068,0.158-0.131,0.283-0.187,0.375c-0.058,0.09-0.165,0.137-0.325,0.137
		c-0.194,0-0.414-0.055-0.658-0.162c-0.245-0.109-0.496-0.251-0.752-0.428c-0.257-0.176-0.513-0.373-0.769-0.59
		c-0.256-0.216-0.487-0.432-0.692-0.648c0-0.069,0.031-0.262,0.094-0.581c0.062-0.319,0.151-0.722,0.265-1.205
		c0.114-0.483,0.256-1.037,0.426-1.658c0.172-0.621,0.366-1.272,0.582-1.957c0.216-0.683,0.453-1.381,0.709-2.093
		c0.256-0.712,0.533-1.398,0.829-2.061c0.478,0.229,1.011,0.508,1.598,0.838C171.496,217.326,172.04,217.714,172.542,218.158"/>
	<path d="M209.787,202.759c0.056,0.127,0.107,0.289,0.153,0.488c0.045,0.199,0.068,0.441,0.068,0.727
		c0,0.706-0.103,1.495-0.308,2.365c-0.205,0.873-0.49,1.802-0.854,2.787c-0.365,0.985-0.81,2.008-1.334,3.067
		c-0.522,1.06-1.099,2.132-1.726,3.213c-0.627,1.082-1.305,2.156-2.035,3.222c-0.728,1.065-1.485,2.094-2.271,3.084
		c0.489,0.594,1.012,1.146,1.562,1.658c0.554,0.512,1.138,0.969,1.752,1.367c-0.375,0.285-0.729,0.508-1.059,0.666
		c-0.445-0.193-0.953-0.494-1.529-0.904c-0.576-0.412-1.17-0.912-1.787-1.504c-1.333,1.561-2.669,2.91-4.007,4.049
		c-1.339,1.14-2.664,1.988-3.973,2.547c-0.16,0.068-0.359,0.128-0.599,0.18c-0.239,0.051-0.558,0.076-0.957,0.076
		c-0.319,0-0.649-0.119-0.991-0.358s-0.669-0.524-0.982-0.854c-0.314-0.33-0.593-0.664-0.838-1
		c-0.244-0.336-0.436-0.602-0.573-0.795c-0.147-0.217-0.267-0.483-0.359-0.803c-0.091-0.318-0.137-0.718-0.137-1.197
		c0-0.58,0.064-1.172,0.189-1.776c0.126-0.604,0.353-1.293,0.683-2.067c0.137-0.058,0.379-0.14,0.727-0.248s0.729-0.22,1.145-0.334
		c0.416-0.113,0.829-0.222,1.239-0.324c0.41-0.103,0.752-0.176,1.025-0.223c-0.342,0.514-0.661,1.006-0.957,1.479
		c-0.297,0.473-0.55,0.947-0.761,1.419c-0.21,0.473-0.378,0.957-0.504,1.452c-0.125,0.496-0.188,1.017-0.188,1.563
		c0,0.228,0.043,0.448,0.129,0.658c0.085,0.211,0.242,0.315,0.47,0.315c0.352,0,0.797-0.176,1.333-0.528
		c0.535-0.353,1.131-0.843,1.786-1.47c0.654-0.627,1.352-1.367,2.093-2.223c0.741-0.854,1.498-1.777,2.273-2.768
		c-0.434-0.616-0.832-1.268-1.196-1.957c-0.366-0.689-0.681-1.407-0.949-2.153c-0.268-0.745-0.478-1.513-0.632-2.299
		c-0.154-0.786-0.231-1.589-0.231-2.41c0-1.207,0.191-2.323,0.572-3.349c0.382-1.026,0.889-1.957,1.522-2.795
		c0.632-0.838,1.355-1.574,2.17-2.213c0.814-0.637,1.655-1.174,2.521-1.606c0.867-0.433,1.724-0.761,2.572-0.983
		c0.849-0.222,1.627-0.332,2.334-0.332c0.385,0,0.676,0.074,0.871,0.222c0.193,0.126,0.422,0.317,0.682,0.571
		c0.264,0.258,0.522,0.528,0.779,0.812c0.256,0.286,0.483,0.562,0.684,0.829C209.584,202.371,209.718,202.589,209.787,202.759
		 M197.687,212.792c0,0.764,0.119,1.584,0.359,2.461c0.239,0.877,0.575,1.766,1.008,2.666c0.684-0.945,1.353-1.918,2.008-2.914
		c0.655-0.998,1.276-1.991,1.863-2.982c0.586-0.991,1.128-1.965,1.622-2.922c0.496-0.957,0.924-1.866,1.283-2.727
		c0.358-0.859,0.638-1.658,0.836-2.393c0.201-0.734,0.299-1.376,0.299-1.922c0-0.148-0.027-0.24-0.084-0.273
		c-0.057-0.035-0.137-0.052-0.239-0.052c-0.16,0-0.493,0.095-1,0.282s-1.091,0.479-1.752,0.871c-0.66,0.394-1.354,0.889-2.084,1.486
		c-0.729,0.599-1.399,1.309-2.009,2.129c-0.609,0.819-1.113,1.754-1.512,2.803C197.886,210.354,197.687,211.516,197.687,212.792"/>
	<path d="M211.542,218.158c-0.137,0.365-0.272,0.735-0.41,1.111c-0.137,0.376-0.274,0.764-0.409,1.162
		c0.717-0.82,1.336-1.488,1.854-2.008c0.518-0.518,0.957-0.926,1.315-1.223c0.359-0.295,0.649-0.498,0.872-0.606
		c0.222-0.108,0.396-0.162,0.521-0.162c0.148,0,0.37,0.074,0.667,0.222c0.296,0.149,0.595,0.332,0.897,0.547
		c0.302,0.218,0.563,0.439,0.786,0.666c0.222,0.229,0.333,0.429,0.333,0.6c0,0.033-0.006,0.076-0.018,0.128
		c-0.011,0.051-0.028,0.117-0.051,0.196c-0.092,0.285-0.208,0.621-0.351,1.009c-0.143,0.387-0.293,0.789-0.452,1.204
		c-0.159,0.417-0.319,0.832-0.479,1.248c-0.16,0.416-0.303,0.806-0.428,1.171c-0.126,0.364-0.229,0.683-0.308,0.957
		c-0.08,0.272-0.12,0.473-0.12,0.598c0,0.068,0.035,0.103,0.104,0.103c0.125,0,0.312-0.073,0.563-0.223
		c0.25-0.148,0.538-0.342,0.863-0.58c0.324-0.24,0.663-0.502,1.018-0.787c0.352-0.285,0.691-0.565,1.016-0.846
		c0.325-0.279,0.618-0.531,0.88-0.76c0.263-0.229,0.462-0.398,0.599-0.514c0.113,0.103,0.239,0.234,0.376,0.394
		c0.137,0.16,0.268,0.308,0.393,0.444c-0.25,0.25-0.563,0.556-0.939,0.914c-0.376,0.359-0.783,0.727-1.222,1.103
		c-0.439,0.376-0.895,0.752-1.367,1.128c-0.474,0.376-0.932,0.713-1.376,1.008c-0.444,0.297-0.86,0.535-1.248,0.719
		c-0.387,0.182-0.712,0.272-0.974,0.272c-0.171,0-0.387-0.06-0.649-0.179c-0.263-0.12-0.516-0.268-0.761-0.444
		s-0.452-0.373-0.624-0.59c-0.17-0.216-0.256-0.427-0.256-0.632c0.103-0.467,0.241-0.997,0.419-1.59
		c0.176-0.592,0.367-1.198,0.572-1.82c0.206-0.621,0.419-1.236,0.641-1.846c0.223-0.609,0.437-1.17,0.642-1.684l-0.034,0.034
		c-0.217,0.263-0.527,0.606-0.932,1.034s-0.863,0.975-1.376,1.641c-0.513,0.668-1.054,1.469-1.623,2.41
		c-0.569,0.939-1.129,2.055-1.676,3.342c-0.067,0.158-0.131,0.283-0.187,0.375c-0.059,0.09-0.166,0.137-0.326,0.137
		c-0.193,0-0.413-0.055-0.657-0.162c-0.245-0.109-0.496-0.251-0.752-0.428c-0.257-0.176-0.513-0.373-0.769-0.59
		c-0.256-0.216-0.487-0.432-0.692-0.648c0-0.069,0.03-0.262,0.094-0.581c0.062-0.319,0.151-0.722,0.265-1.205
		c0.114-0.483,0.256-1.037,0.426-1.658c0.173-0.621,0.367-1.272,0.582-1.957c0.217-0.683,0.453-1.381,0.709-2.093
		c0.257-0.712,0.533-1.398,0.83-2.061c0.478,0.229,1.011,0.508,1.598,0.838C210.496,217.326,211.04,217.714,211.542,218.158"/>
	<path d="M225.542,218.158c-0.137,0.365-0.272,0.735-0.41,1.111c-0.137,0.376-0.273,0.764-0.41,1.162
		c0.718-0.82,1.336-1.488,1.854-2.008c0.518-0.518,0.957-0.926,1.315-1.223c0.359-0.295,0.649-0.498,0.872-0.606
		c0.222-0.108,0.396-0.162,0.521-0.162c0.148,0,0.37,0.074,0.667,0.222c0.296,0.149,0.595,0.332,0.897,0.547
		c0.302,0.218,0.563,0.439,0.786,0.666c0.222,0.229,0.333,0.429,0.333,0.6c0,0.033-0.006,0.076-0.018,0.128
		c-0.011,0.051-0.028,0.117-0.051,0.196c-0.092,0.285-0.208,0.621-0.351,1.009c-0.143,0.387-0.293,0.789-0.452,1.204
		c-0.159,0.417-0.319,0.832-0.479,1.248c-0.16,0.416-0.303,0.806-0.428,1.171c-0.126,0.364-0.229,0.683-0.308,0.957
		c-0.08,0.272-0.12,0.473-0.12,0.598c0,0.068,0.035,0.103,0.104,0.103c0.125,0,0.312-0.073,0.563-0.223
		c0.25-0.148,0.538-0.342,0.863-0.58c0.324-0.24,0.663-0.502,1.018-0.787c0.352-0.285,0.691-0.565,1.016-0.846
		c0.325-0.279,0.618-0.531,0.88-0.76c0.263-0.229,0.462-0.398,0.599-0.514c0.113,0.103,0.239,0.234,0.376,0.394
		c0.137,0.16,0.268,0.308,0.393,0.444c-0.25,0.25-0.563,0.556-0.939,0.914c-0.376,0.359-0.783,0.727-1.222,1.103
		c-0.439,0.376-0.895,0.752-1.367,1.128c-0.474,0.376-0.932,0.713-1.376,1.008c-0.444,0.297-0.86,0.535-1.248,0.719
		c-0.387,0.182-0.712,0.272-0.974,0.272c-0.171,0-0.387-0.06-0.649-0.179c-0.263-0.12-0.516-0.268-0.761-0.444
		s-0.452-0.373-0.624-0.59c-0.17-0.216-0.256-0.427-0.256-0.632c0.103-0.467,0.242-0.997,0.419-1.59
		c0.176-0.592,0.367-1.198,0.572-1.82c0.206-0.621,0.419-1.236,0.641-1.846c0.223-0.609,0.437-1.17,0.642-1.684l-0.034,0.034
		c-0.217,0.263-0.527,0.606-0.932,1.034s-0.863,0.975-1.376,1.641c-0.513,0.668-1.054,1.469-1.623,2.41
		c-0.569,0.939-1.129,2.055-1.676,3.342c-0.068,0.158-0.131,0.283-0.187,0.375c-0.059,0.09-0.165,0.137-0.325,0.137
		c-0.194,0-0.414-0.055-0.658-0.162c-0.245-0.109-0.496-0.251-0.752-0.428c-0.257-0.176-0.513-0.373-0.77-0.59
		c-0.256-0.216-0.486-0.432-0.691-0.648c0-0.069,0.031-0.262,0.094-0.581s0.151-0.722,0.265-1.205
		c0.114-0.483,0.257-1.037,0.427-1.658c0.172-0.621,0.365-1.272,0.582-1.957c0.216-0.683,0.452-1.381,0.709-2.093
		c0.256-0.712,0.532-1.398,0.829-2.061c0.478,0.229,1.011,0.508,1.598,0.838C224.496,217.326,225.04,217.714,225.542,218.158"/>
	<path d="M236.773,224.669c0,0.342,0.125,0.514,0.376,0.514c0.262,0,0.609-0.209,1.043-0.625c0.433-0.416,0.882-0.943,1.35-1.58
		c-0.023-0.125-0.037-0.236-0.043-0.334c-0.006-0.097-0.008-0.185-0.008-0.265c0-0.228,0.025-0.498,0.076-0.812
		c0.052-0.313,0.18-0.67,0.385-1.068c0.137-0.309,0.302-0.609,0.496-0.906c0.159-0.261,0.353-0.544,0.58-0.846
		c0.229-0.301,0.479-0.583,0.752-0.846l0.104-0.103c0.113,0.138,0.265,0.322,0.452,0.556c0.188,0.233,0.375,0.473,0.564,0.717
		c0.188,0.246,0.352,0.471,0.495,0.676c0.143,0.205,0.23,0.348,0.266,0.427c0,0.491-0.089,0.979-0.266,1.47
		s-0.413,0.975-0.709,1.453c0.684-0.046,1.318-0.22,1.905-0.521c0.587-0.301,1.199-0.795,1.837-1.479
		c0.104,0.104,0.236,0.242,0.402,0.42c0.165,0.176,0.299,0.327,0.401,0.452c-0.479,0.501-0.948,0.917-1.41,1.247
		c-0.461,0.331-0.923,0.594-1.384,0.786c-0.462,0.194-0.932,0.334-1.41,0.419c-0.479,0.086-0.969,0.128-1.47,0.128
		c-0.388,0.411-0.804,0.787-1.247,1.128c-0.445,0.342-0.897,0.639-1.359,0.889c-0.461,0.25-0.92,0.444-1.375,0.582
		c-0.456,0.137-0.889,0.205-1.299,0.205c-0.342,0-0.695-0.103-1.061-0.309c-0.364-0.205-0.694-0.458-0.99-0.76
		c-0.297-0.303-0.541-0.624-0.735-0.967c-0.193-0.34-0.29-0.643-0.29-0.904c0-0.866,0.116-1.727,0.35-2.581
		c0.234-0.854,0.599-1.655,1.094-2.401c0.496-0.746,1.128-1.404,1.897-1.974c0.769-0.569,1.683-1.002,2.743-1.3
		c0.033-0.021,0.094-0.038,0.179-0.051c0.086-0.011,0.156-0.017,0.214-0.017c0.159,0,0.327,0.06,0.504,0.181
		c0.177,0.118,0.342,0.252,0.496,0.4c0.153,0.148,0.282,0.293,0.385,0.436c0.102,0.144,0.153,0.236,0.153,0.282
		c-0.023,0.058-0.108,0.128-0.256,0.214c-0.148,0.086-0.349,0.23-0.599,0.436c-0.251,0.205-0.547,0.499-0.889,0.88
		c-0.342,0.382-0.718,0.886-1.128,1.513c-0.615,0.924-1.031,1.758-1.247,2.504C236.882,223.681,236.773,224.259,236.773,224.669"/>
	<path d="M253.687,224.635c-0.479,0-0.895-0.08-1.248-0.239c-0.375,0.399-0.769,0.772-1.179,1.119
		c-0.41,0.348-0.814,0.656-1.214,0.924c-0.398,0.266-0.792,0.48-1.179,0.641c-0.388,0.158-0.752,0.25-1.094,0.272
		c-0.171,0-0.419-0.073-0.743-0.222c-0.325-0.148-0.644-0.339-0.957-0.572c-0.313-0.234-0.587-0.502-0.82-0.804
		s-0.351-0.606-0.351-0.914c0-0.752,0.074-1.506,0.222-2.265c0.148-0.758,0.334-1.506,0.556-2.248
		c0.223-0.739,0.468-1.465,0.736-2.178c0.267-0.711,0.521-1.398,0.759-2.06c0.582,0.262,1.148,0.553,1.701,0.872
		c0.552,0.318,1.068,0.695,1.547,1.128c-0.172,0.341-0.341,0.733-0.514,1.179c-0.17,0.444-0.336,0.906-0.495,1.385
		c-0.16,0.479-0.308,0.957-0.444,1.436s-0.256,0.922-0.359,1.333c-0.102,0.41-0.182,0.772-0.237,1.085
		c-0.059,0.314-0.087,0.538-0.087,0.675c0,0.091,0.02,0.175,0.06,0.248c0.04,0.074,0.105,0.111,0.196,0.111
		c0.183,0,0.385-0.058,0.607-0.171c0.222-0.114,0.458-0.266,0.709-0.453c0.25-0.188,0.504-0.41,0.761-0.667
		c0.256-0.257,0.505-0.526,0.743-0.812c-0.205-0.353-0.308-0.705-0.308-1.06c0-0.239,0.037-0.527,0.111-0.863
		c0.073-0.336,0.173-0.687,0.299-1.051c0.125-0.364,0.265-0.731,0.419-1.103c0.153-0.369,0.312-0.715,0.479-1.033
		c0.165-0.319,0.324-0.598,0.479-0.838c0.153-0.239,0.293-0.416,0.418-0.529c0.263,0.102,0.536,0.242,0.82,0.418
		c0.285,0.177,0.547,0.365,0.787,0.564c0.238,0.199,0.436,0.393,0.589,0.582c0.154,0.187,0.242,0.344,0.265,0.469
		c0,0.24-0.057,0.519-0.17,0.838c-0.114,0.318-0.271,0.664-0.471,1.033c-0.199,0.371-0.438,0.759-0.718,1.162
		c-0.278,0.404-0.584,0.812-0.914,1.223c0.068,0.023,0.14,0.042,0.214,0.06c0.073,0.017,0.162,0.025,0.265,0.025
		c0.455,0,0.86-0.045,1.214-0.138c0.353-0.09,0.688-0.224,1.008-0.4c0.318-0.178,0.633-0.396,0.939-0.658
		c0.309-0.262,0.644-0.564,1.009-0.906c0.103,0.104,0.237,0.237,0.402,0.402c0.164,0.165,0.298,0.311,0.401,0.436
		c-0.479,0.479-0.932,0.879-1.358,1.205c-0.428,0.324-0.85,0.588-1.266,0.787c-0.416,0.198-0.835,0.344-1.256,0.435
		C254.598,224.59,254.153,224.635,253.687,224.635"/>
	<path d="M267.327,224.909c0,0.067,0.034,0.103,0.103,0.103c0.103,0,0.273-0.074,0.513-0.223s0.513-0.336,0.82-0.564
		c0.308-0.227,0.635-0.482,0.982-0.769c0.348-0.284,0.681-0.563,1-0.837c0.318-0.273,0.606-0.523,0.863-0.752
		c0.256-0.229,0.453-0.404,0.59-0.529c0.102,0.103,0.23,0.238,0.384,0.409c0.154,0.171,0.293,0.325,0.419,0.462
		c-0.273,0.251-0.602,0.555-0.982,0.914c-0.382,0.359-0.792,0.732-1.23,1.119c-0.44,0.389-0.892,0.771-1.359,1.154
		c-0.467,0.382-0.922,0.721-1.367,1.017c-0.443,0.296-0.865,0.538-1.264,0.726c-0.399,0.188-0.747,0.283-1.043,0.283
		c-0.205,0-0.431-0.041-0.675-0.119c-0.245-0.08-0.47-0.191-0.675-0.334s-0.377-0.311-0.514-0.504s-0.205-0.41-0.205-0.649
		c0-0.091-0.003-0.202-0.008-0.335c-0.006-0.129,0.003-0.301,0.025-0.512s0.068-0.467,0.137-0.769s0.171-0.675,0.308-1.12
		c-0.376,0.398-0.817,0.814-1.324,1.248c-0.508,0.434-1.04,0.844-1.599,1.23c-0.558,0.388-1.119,0.738-1.683,1.051
		c-0.564,0.314-1.085,0.55-1.563,0.71c-0.058,0.022-0.104,0.034-0.137,0.034h-0.104c-0.113,0-0.265-0.057-0.452-0.172
		c-0.189-0.113-0.373-0.265-0.556-0.453c-0.182-0.188-0.339-0.401-0.47-0.641c-0.131-0.238-0.196-0.478-0.196-0.718
		c0-0.067,0.032-0.295,0.102-0.683c0.068-0.387,0.231-0.881,0.487-1.479c0.257-0.599,0.636-1.271,1.137-2.017
		c0.502-0.746,1.185-1.513,2.051-2.3c0.444-0.397,0.922-0.773,1.436-1.127c0.433-0.295,0.929-0.599,1.486-0.905
		c0.559-0.308,1.146-0.554,1.761-0.735c0.022,0,0.043-0.006,0.06-0.017c0.018-0.013,0.043-0.007,0.077,0.017
		c0.137,0.047,0.299,0.117,0.487,0.215c0.188,0.096,0.376,0.198,0.563,0.307c0.188,0.109,0.354,0.217,0.496,0.324
		c0.142,0.108,0.236,0.196,0.281,0.266c0.012,0.023,0.012,0.04,0,0.051l-0.033,0.034c-0.514,0.274-0.998,0.579-1.453,0.914
		c-0.456,0.337-0.86,0.653-1.213,0.948c-0.41,0.354-0.793,0.701-1.146,1.043c-0.832,0.82-1.407,1.529-1.726,2.127
		c-0.319,0.599-0.479,1.029-0.479,1.291c0,0.193,0.079,0.291,0.238,0.291c0.16,0,0.362-0.066,0.607-0.197
		c0.244-0.13,0.521-0.309,0.828-0.529c0.309-0.223,0.646-0.484,1.018-0.785c0.37-0.303,0.754-0.619,1.153-0.949
		c0.353-0.285,0.694-0.592,1.025-0.924c0.284-0.272,0.581-0.586,0.889-0.939s0.569-0.712,0.786-1.077
		c0-0.011,0.006-0.022,0.018-0.034c0.011-0.011,0.027-0.011,0.051,0c0.125,0.092,0.268,0.242,0.428,0.453
		c0.159,0.211,0.307,0.441,0.443,0.691c0.137,0.252,0.254,0.494,0.351,0.728s0.146,0.413,0.146,0.538
		c-0.263,0.536-0.465,1.023-0.606,1.461c-0.143,0.439-0.251,0.824-0.325,1.154s-0.119,0.613-0.137,0.846
		C267.336,224.603,267.327,224.784,267.327,224.909"/>
	<path d="M273.38,227.353c-0.193,0-0.447-0.088-0.76-0.266c-0.313-0.177-0.618-0.393-0.914-0.65
		c-0.297-0.254-0.553-0.521-0.77-0.793c-0.216-0.273-0.324-0.508-0.324-0.701c0-0.342,0.094-0.883,0.281-1.623
		c0.188-0.74,0.436-1.588,0.744-2.539c0.306-0.95,0.657-1.967,1.051-3.051c0.393-1.082,0.788-2.141,1.188-3.178h-2.41h-0.017
		c-0.011,0-0.017-0.012-0.017-0.033c0-0.069,0.025-0.168,0.076-0.3c0.052-0.131,0.114-0.268,0.188-0.409
		c0.074-0.144,0.159-0.274,0.256-0.395c0.098-0.119,0.191-0.196,0.281-0.23l2.223-0.103c0.318-0.774,0.624-1.489,0.914-2.146
		c0.291-0.654,0.55-1.215,0.778-1.683c0.057-0.125,0.116-0.259,0.179-0.401s0.154-0.285,0.273-0.428
		c0.12-0.142,0.279-0.29,0.479-0.445c0.199-0.152,0.47-0.31,0.812-0.469c0.251-0.125,0.556-0.262,0.915-0.41
		c0.358-0.147,0.712-0.285,1.06-0.41c0.347-0.125,0.663-0.23,0.948-0.316c0.284-0.085,0.489-0.128,0.615-0.128
		c0.113,0,0.171,0.022,0.171,0.067v0.035c0,0.012-0.012,0.041-0.034,0.086c-0.068,0.113-0.194,0.361-0.376,0.743
		c-0.183,0.382-0.407,0.86-0.675,1.435c-0.269,0.576-0.564,1.231-0.889,1.966c-0.325,0.735-0.658,1.513-1,2.333l4.102-0.154
		c0.113,0,0.147,0.069,0.103,0.205c-0.046,0.137-0.131,0.297-0.256,0.479c-0.126,0.183-0.271,0.371-0.437,0.564
		c-0.165,0.194-0.305,0.342-0.419,0.444c-0.022,0.022-0.069,0.046-0.137,0.069c-0.068,0.021-0.153,0.033-0.256,0.033h-3.385
		c-0.409,0.991-0.803,1.994-1.178,3.008c-0.377,1.015-0.713,1.978-1.009,2.889c-0.297,0.91-0.533,1.748-0.709,2.512
		c-0.177,0.764-0.265,1.391-0.265,1.88c0,0.068,0.033,0.103,0.102,0.103c0.126,0,0.313-0.07,0.564-0.215
		c0.25-0.142,0.532-0.326,0.846-0.555c0.313-0.227,0.646-0.479,1-0.752c0.353-0.273,0.689-0.544,1.008-0.812
		c0.319-0.267,0.607-0.512,0.863-0.733c0.257-0.224,0.453-0.39,0.59-0.504c0.103,0.103,0.225,0.233,0.367,0.394
		c0.143,0.158,0.276,0.307,0.402,0.443c-0.251,0.251-0.564,0.557-0.94,0.914c-0.376,0.359-0.783,0.727-1.222,1.104
		c-0.439,0.375-0.895,0.752-1.367,1.127c-0.474,0.375-0.935,0.713-1.386,1.008c-0.449,0.297-0.868,0.535-1.255,0.719
		C273.967,227.261,273.643,227.353,273.38,227.353"/>
	<path d="M280.816,227.353c-0.171,0-0.387-0.061-0.649-0.18c-0.262-0.121-0.513-0.268-0.752-0.445
		c-0.239-0.176-0.444-0.373-0.615-0.59c-0.171-0.215-0.256-0.426-0.256-0.631c0.113-0.502,0.268-1.078,0.461-1.727
		c0.194-0.648,0.401-1.311,0.624-1.982c0.222-0.672,0.456-1.33,0.7-1.974c0.245-0.644,0.467-1.216,0.667-1.718
		c0.199-0.502,0.373-0.906,0.521-1.213c0.148-0.309,0.245-0.463,0.291-0.463c0.068,0,0.239,0.076,0.513,0.224
		s0.561,0.327,0.863,0.538c0.302,0.211,0.572,0.433,0.812,0.666c0.239,0.234,0.359,0.436,0.359,0.607
		c0,0.033-0.007,0.076-0.018,0.129c-0.012,0.049-0.028,0.115-0.051,0.195c-0.092,0.285-0.209,0.621-0.351,1.008
		c-0.143,0.389-0.294,0.789-0.453,1.205c-0.16,0.416-0.319,0.832-0.479,1.248c-0.16,0.416-0.302,0.807-0.427,1.17
		c-0.126,0.365-0.229,0.684-0.309,0.957c-0.079,0.274-0.119,0.473-0.119,0.598c0,0.07,0.034,0.104,0.103,0.104
		c0.125,0,0.312-0.074,0.562-0.222c0.252-0.148,0.54-0.343,0.864-0.581c0.325-0.24,0.664-0.501,1.018-0.786
		c0.353-0.285,0.691-0.567,1.017-0.847c0.324-0.278,0.617-0.532,0.88-0.76c0.262-0.228,0.461-0.398,0.597-0.514
		c0.104,0.104,0.227,0.234,0.369,0.393c0.142,0.16,0.275,0.309,0.401,0.445c-0.251,0.251-0.564,0.555-0.939,0.914
		c-0.377,0.359-0.784,0.727-1.223,1.102c-0.438,0.377-0.895,0.752-1.367,1.129c-0.473,0.375-0.932,0.713-1.375,1.009
		c-0.445,0.296-0.861,0.534-1.248,0.717C281.42,227.261,281.09,227.353,280.816,227.353 M287.584,211.22
		c-0.012,0.045-0.055,0.156-0.128,0.332c-0.074,0.178-0.162,0.383-0.267,0.616c-0.101,0.233-0.218,0.478-0.349,0.734
		c-0.132,0.257-0.26,0.493-0.385,0.71c-0.126,0.216-0.245,0.396-0.359,0.538c-0.113,0.143-0.205,0.214-0.273,0.214
		c-0.205-0.012-0.452-0.074-0.743-0.188c-0.29-0.115-0.569-0.242-0.837-0.386c-0.269-0.142-0.496-0.282-0.684-0.419
		c-0.188-0.136-0.282-0.232-0.282-0.29c0-0.239,0.068-0.55,0.205-0.932s0.296-0.752,0.479-1.11c0.182-0.359,0.367-0.67,0.556-0.932
		c0.188-0.262,0.333-0.393,0.436-0.393c0.205,0,0.455,0.065,0.752,0.196c0.296,0.131,0.584,0.282,0.863,0.453
		c0.278,0.17,0.518,0.339,0.718,0.504C287.484,211.035,287.584,211.152,287.584,211.22"/>
	<path d="M288.773,224.669c0,0.342,0.125,0.514,0.376,0.514c0.262,0,0.609-0.209,1.043-0.625c0.433-0.416,0.882-0.943,1.35-1.58
		c-0.023-0.125-0.037-0.236-0.043-0.334c-0.006-0.097-0.008-0.185-0.008-0.265c0-0.228,0.025-0.498,0.076-0.812
		c0.052-0.313,0.18-0.67,0.385-1.068c0.137-0.309,0.302-0.609,0.496-0.906c0.159-0.261,0.353-0.544,0.58-0.846
		c0.229-0.301,0.479-0.583,0.752-0.846l0.104-0.103c0.113,0.138,0.265,0.322,0.452,0.556c0.188,0.233,0.375,0.473,0.564,0.717
		c0.188,0.246,0.352,0.471,0.495,0.676c0.143,0.205,0.23,0.348,0.266,0.427c0,0.491-0.089,0.979-0.266,1.47
		s-0.413,0.975-0.709,1.453c0.684-0.046,1.318-0.22,1.905-0.521c0.587-0.301,1.199-0.795,1.837-1.479
		c0.104,0.104,0.236,0.242,0.402,0.42c0.165,0.176,0.299,0.327,0.401,0.452c-0.479,0.501-0.948,0.917-1.41,1.247
		c-0.461,0.331-0.923,0.594-1.384,0.786c-0.462,0.194-0.932,0.334-1.41,0.419c-0.479,0.086-0.969,0.128-1.47,0.128
		c-0.388,0.411-0.804,0.787-1.247,1.128c-0.445,0.342-0.897,0.639-1.359,0.889c-0.461,0.25-0.92,0.444-1.375,0.582
		c-0.456,0.137-0.889,0.205-1.299,0.205c-0.342,0-0.695-0.103-1.061-0.309c-0.364-0.205-0.694-0.458-0.99-0.76
		c-0.297-0.303-0.541-0.624-0.735-0.967c-0.193-0.34-0.29-0.643-0.29-0.904c0-0.866,0.116-1.727,0.35-2.581
		c0.234-0.854,0.599-1.655,1.094-2.401c0.496-0.746,1.128-1.404,1.897-1.974c0.769-0.569,1.683-1.002,2.743-1.3
		c0.033-0.021,0.094-0.038,0.179-0.051c0.086-0.011,0.156-0.017,0.214-0.017c0.159,0,0.327,0.06,0.504,0.181
		c0.177,0.118,0.342,0.252,0.496,0.4c0.153,0.148,0.282,0.293,0.385,0.436c0.102,0.144,0.153,0.236,0.153,0.282
		c-0.023,0.058-0.108,0.128-0.256,0.214c-0.148,0.086-0.349,0.23-0.599,0.436c-0.251,0.205-0.547,0.499-0.889,0.88
		c-0.342,0.382-0.718,0.886-1.128,1.513c-0.615,0.924-1.031,1.758-1.247,2.504C288.882,223.681,288.773,224.259,288.773,224.669"/>
	<path d="M302.542,218.158c-0.137,0.365-0.272,0.735-0.41,1.111c-0.137,0.376-0.273,0.764-0.41,1.162
		c0.718-0.82,1.336-1.488,1.854-2.008c0.518-0.518,0.957-0.926,1.315-1.223c0.359-0.295,0.649-0.498,0.872-0.606
		c0.222-0.108,0.396-0.162,0.521-0.162c0.148,0,0.37,0.074,0.667,0.222c0.296,0.149,0.595,0.332,0.897,0.547
		c0.302,0.218,0.563,0.439,0.786,0.666c0.222,0.229,0.333,0.429,0.333,0.6c0,0.033-0.006,0.076-0.018,0.128
		c-0.011,0.051-0.028,0.117-0.051,0.196c-0.092,0.285-0.208,0.621-0.351,1.009c-0.143,0.387-0.293,0.789-0.452,1.204
		c-0.159,0.417-0.319,0.832-0.479,1.248c-0.16,0.416-0.303,0.806-0.428,1.171c-0.126,0.364-0.229,0.683-0.308,0.957
		c-0.08,0.272-0.12,0.473-0.12,0.598c0,0.068,0.035,0.103,0.104,0.103c0.125,0,0.312-0.073,0.563-0.223
		c0.25-0.148,0.538-0.342,0.863-0.58c0.324-0.24,0.663-0.502,1.018-0.787c0.352-0.285,0.691-0.565,1.016-0.846
		c0.325-0.279,0.618-0.531,0.88-0.76c0.263-0.229,0.462-0.398,0.599-0.514c0.113,0.103,0.239,0.234,0.376,0.394
		c0.137,0.16,0.268,0.308,0.393,0.444c-0.25,0.25-0.563,0.556-0.939,0.914c-0.376,0.359-0.783,0.727-1.222,1.103
		c-0.439,0.376-0.895,0.752-1.367,1.128c-0.474,0.376-0.932,0.713-1.376,1.008c-0.444,0.297-0.86,0.535-1.248,0.719
		c-0.387,0.182-0.712,0.272-0.974,0.272c-0.171,0-0.387-0.06-0.649-0.179c-0.263-0.12-0.516-0.268-0.761-0.444
		s-0.452-0.373-0.624-0.59c-0.17-0.216-0.256-0.427-0.256-0.632c0.103-0.467,0.242-0.997,0.419-1.59
		c0.176-0.592,0.367-1.198,0.572-1.82c0.206-0.621,0.419-1.236,0.641-1.846c0.223-0.609,0.437-1.17,0.642-1.684l-0.034,0.034
		c-0.217,0.263-0.527,0.606-0.932,1.034s-0.863,0.975-1.376,1.641c-0.513,0.668-1.054,1.469-1.623,2.41
		c-0.569,0.939-1.129,2.055-1.676,3.342c-0.068,0.158-0.131,0.283-0.187,0.375c-0.059,0.09-0.165,0.137-0.325,0.137
		c-0.194,0-0.414-0.055-0.658-0.162c-0.245-0.109-0.496-0.251-0.752-0.428c-0.257-0.176-0.513-0.373-0.77-0.59
		c-0.256-0.216-0.486-0.432-0.691-0.648c0-0.069,0.031-0.262,0.094-0.581s0.151-0.722,0.265-1.205
		c0.114-0.483,0.257-1.037,0.427-1.658c0.172-0.621,0.365-1.272,0.582-1.957c0.216-0.683,0.452-1.381,0.709-2.093
		c0.256-0.712,0.532-1.398,0.829-2.061c0.478,0.229,1.011,0.508,1.598,0.838C301.496,217.326,302.04,217.714,302.542,218.158"/>
	<path d="M345.323,205.068c0,0.819-0.146,1.654-0.436,2.502c-0.291,0.851-0.687,1.688-1.188,2.514
		c-0.502,0.826-1.089,1.621-1.761,2.384c-0.673,0.765-1.383,1.47-2.136,2.119c-0.752,0.649-1.533,1.228-2.342,1.733
		c-0.81,0.508-1.596,0.91-2.358,1.207c-0.126-0.184-0.282-0.402-0.47-0.66c-0.188-0.256-0.391-0.522-0.607-0.801
		c-0.216-0.281-0.436-0.559-0.657-0.839c-0.223-0.278-0.437-0.538-0.642-0.778c1.63-0.637,3.091-1.395,4.384-2.272
		c1.293-0.877,2.393-1.796,3.299-2.76c0.905-0.962,1.601-1.937,2.085-2.923c0.483-0.984,0.727-1.904,0.727-2.76
		c0-0.113-0.018-0.232-0.052-0.358c-0.034-0.125-0.092-0.233-0.171-0.325c-0.08-0.09-0.186-0.156-0.316-0.195
		c-0.131-0.041-0.288-0.037-0.47,0.008c-0.536,0.114-1.125,0.324-1.769,0.633c-0.645,0.307-1.322,0.691-2.034,1.154
		c-0.712,0.461-1.452,0.993-2.222,1.596c-0.769,0.604-1.547,1.255-2.332,1.949c-0.422,1.321-0.906,2.721-1.453,4.195
		c-0.547,1.477-1.14,2.946-1.777,4.409c-0.639,1.464-1.308,2.886-2.008,4.265c-0.701,1.379-1.413,2.639-2.137,3.785
		c-0.724,1.145-1.447,2.137-2.17,2.973c-0.724,0.838-1.421,1.439-2.094,1.804c-0.171,0.091-0.379,0.177-0.624,0.257
		c-0.246,0.079-0.55,0.137-0.914,0.17c-0.137,0.012-0.299-0.045-0.487-0.17c-0.188-0.126-0.378-0.285-0.572-0.479
		c-0.193-0.193-0.387-0.409-0.581-0.648c-0.193-0.24-0.373-0.468-0.538-0.685s-0.302-0.41-0.41-0.58
		c-0.108-0.172-0.18-0.285-0.214-0.342c-0.091-0.172-0.14-0.373-0.146-0.607c-0.005-0.233,0.021-0.465,0.077-0.692
		c0.229-0.763,0.547-1.6,0.957-2.512c0.41-0.911,0.892-1.865,1.444-2.862c0.552-0.997,1.167-2.023,1.847-3.076
		c0.677-1.054,1.405-2.103,2.187-3.145c0.78-1.043,1.601-2.071,2.461-3.085c0.859-1.015,1.745-1.982,2.657-2.905
		c0.581-1.812,1.06-3.525,1.436-5.145c0.376-1.617,0.599-3.024,0.667-4.221c0.455,0.182,0.889,0.416,1.299,0.7
		c0.41,0.285,0.779,0.581,1.11,0.89c0.33,0.308,0.621,0.614,0.872,0.922c0.25,0.308,0.449,0.582,0.598,0.82
		c-0.023,0.194-0.051,0.391-0.086,0.59c-0.034,0.199-0.079,0.414-0.137,0.642c1.151-0.741,2.282-1.319,3.393-1.735
		c1.111-0.416,2.19-0.624,3.238-0.624c0.217,0,0.453,0.069,0.71,0.205c0.256,0.138,0.515,0.316,0.777,0.539
		c0.262,0.222,0.516,0.47,0.761,0.743c0.244,0.273,0.464,0.55,0.658,0.829c0.193,0.278,0.35,0.541,0.47,0.786
		c0.119,0.244,0.185,0.447,0.196,0.606V205.068z M320.577,226.549c0.262,0,0.615-0.291,1.06-0.872s0.942-1.372,1.495-2.375
		s1.137-2.17,1.752-3.503s1.225-2.746,1.828-4.239c-0.899,1.072-1.734,2.131-2.503,3.18c-0.77,1.047-1.436,2.041-2,2.981
		c-0.563,0.94-1.006,1.806-1.324,2.599c-0.319,0.791-0.479,1.467-0.479,2.024C320.406,226.482,320.464,226.549,320.577,226.549"/>
	<path d="M341.773,224.669c0,0.342,0.125,0.514,0.376,0.514c0.262,0,0.609-0.209,1.043-0.625c0.433-0.416,0.882-0.943,1.35-1.58
		c-0.023-0.125-0.037-0.236-0.043-0.334c-0.006-0.097-0.008-0.185-0.008-0.265c0-0.228,0.025-0.498,0.076-0.812
		c0.052-0.313,0.18-0.67,0.385-1.068c0.137-0.309,0.302-0.609,0.496-0.906c0.159-0.261,0.353-0.544,0.58-0.846
		c0.229-0.301,0.479-0.583,0.752-0.846l0.104-0.103c0.113,0.138,0.265,0.322,0.452,0.556c0.188,0.233,0.375,0.473,0.564,0.717
		c0.188,0.246,0.352,0.471,0.495,0.676c0.143,0.205,0.23,0.348,0.266,0.427c0,0.491-0.089,0.979-0.266,1.47
		s-0.413,0.975-0.709,1.453c0.684-0.046,1.318-0.22,1.905-0.521c0.587-0.301,1.199-0.795,1.837-1.479
		c0.104,0.104,0.236,0.242,0.402,0.42c0.165,0.176,0.299,0.327,0.401,0.452c-0.479,0.501-0.948,0.917-1.41,1.247
		c-0.461,0.331-0.923,0.594-1.384,0.786c-0.462,0.194-0.932,0.334-1.41,0.419c-0.479,0.086-0.969,0.128-1.47,0.128
		c-0.388,0.411-0.804,0.787-1.247,1.128c-0.445,0.342-0.897,0.639-1.359,0.889c-0.461,0.25-0.92,0.444-1.375,0.582
		c-0.456,0.137-0.889,0.205-1.299,0.205c-0.342,0-0.695-0.103-1.061-0.309c-0.364-0.205-0.694-0.458-0.99-0.76
		c-0.297-0.303-0.541-0.624-0.735-0.967c-0.193-0.34-0.29-0.643-0.29-0.904c0-0.866,0.116-1.727,0.35-2.581
		c0.234-0.854,0.599-1.655,1.094-2.401c0.496-0.746,1.128-1.404,1.897-1.974c0.769-0.569,1.683-1.002,2.743-1.3
		c0.033-0.021,0.094-0.038,0.179-0.051c0.086-0.011,0.156-0.017,0.214-0.017c0.159,0,0.327,0.06,0.504,0.181
		c0.177,0.118,0.342,0.252,0.496,0.4c0.153,0.148,0.282,0.293,0.385,0.436c0.102,0.144,0.153,0.236,0.153,0.282
		c-0.023,0.058-0.108,0.128-0.256,0.214c-0.148,0.086-0.349,0.23-0.599,0.436c-0.251,0.205-0.547,0.499-0.889,0.88
		c-0.342,0.382-0.718,0.886-1.128,1.513c-0.615,0.924-1.031,1.758-1.247,2.504C341.882,223.681,341.773,224.259,341.773,224.669"/>
	<path d="M351.816,227.353c-0.171,0-0.387-0.061-0.649-0.18c-0.262-0.121-0.513-0.268-0.752-0.445
		c-0.239-0.176-0.444-0.373-0.615-0.59c-0.171-0.215-0.256-0.426-0.256-0.631c0.113-0.502,0.268-1.078,0.461-1.727
		c0.194-0.648,0.401-1.311,0.624-1.982c0.222-0.672,0.456-1.33,0.7-1.974c0.245-0.644,0.467-1.216,0.667-1.718
		c0.199-0.502,0.373-0.906,0.521-1.213c0.148-0.309,0.245-0.463,0.291-0.463c0.068,0,0.239,0.076,0.513,0.224
		s0.561,0.327,0.863,0.538c0.302,0.211,0.572,0.433,0.812,0.666c0.239,0.234,0.359,0.436,0.359,0.607
		c0,0.033-0.007,0.076-0.018,0.129c-0.012,0.049-0.028,0.115-0.051,0.195c-0.092,0.285-0.209,0.621-0.351,1.008
		c-0.143,0.389-0.294,0.789-0.453,1.205c-0.16,0.416-0.319,0.832-0.479,1.248c-0.16,0.416-0.302,0.807-0.427,1.17
		c-0.126,0.365-0.229,0.684-0.309,0.957c-0.079,0.274-0.119,0.473-0.119,0.598c0,0.07,0.034,0.104,0.103,0.104
		c0.125,0,0.312-0.074,0.562-0.222c0.252-0.148,0.54-0.343,0.864-0.581c0.325-0.24,0.664-0.501,1.018-0.786
		c0.353-0.285,0.691-0.567,1.017-0.847c0.324-0.278,0.617-0.532,0.88-0.76c0.262-0.228,0.461-0.398,0.597-0.514
		c0.104,0.104,0.227,0.234,0.369,0.393c0.142,0.16,0.275,0.309,0.401,0.445c-0.251,0.251-0.564,0.555-0.939,0.914
		c-0.377,0.359-0.784,0.727-1.223,1.102c-0.438,0.377-0.895,0.752-1.367,1.129c-0.473,0.375-0.932,0.713-1.375,1.009
		c-0.445,0.296-0.861,0.534-1.248,0.717C352.42,227.261,352.09,227.353,351.816,227.353 M358.584,211.22
		c-0.012,0.045-0.055,0.156-0.128,0.332c-0.074,0.178-0.162,0.383-0.267,0.616c-0.101,0.233-0.218,0.478-0.349,0.734
		c-0.132,0.257-0.26,0.493-0.385,0.71c-0.126,0.216-0.245,0.396-0.359,0.538c-0.113,0.143-0.205,0.214-0.273,0.214
		c-0.205-0.012-0.452-0.074-0.743-0.188c-0.29-0.115-0.569-0.242-0.837-0.386c-0.269-0.142-0.496-0.282-0.684-0.419
		c-0.188-0.136-0.282-0.232-0.282-0.29c0-0.239,0.068-0.55,0.205-0.932s0.296-0.752,0.479-1.11c0.182-0.359,0.367-0.67,0.556-0.932
		c0.188-0.262,0.333-0.393,0.436-0.393c0.205,0,0.455,0.065,0.752,0.196c0.296,0.131,0.584,0.282,0.863,0.453
		c0.278,0.17,0.518,0.339,0.718,0.504C358.484,211.035,358.584,211.152,358.584,211.22"/>
	<path d="M362.542,218.158c-0.137,0.365-0.272,0.735-0.41,1.111c-0.137,0.376-0.273,0.764-0.41,1.162
		c0.718-0.82,1.336-1.488,1.854-2.008c0.518-0.518,0.957-0.926,1.315-1.223c0.359-0.295,0.649-0.498,0.872-0.606
		c0.222-0.108,0.396-0.162,0.521-0.162c0.148,0,0.37,0.074,0.667,0.222c0.296,0.149,0.595,0.332,0.897,0.547
		c0.302,0.218,0.563,0.439,0.786,0.666c0.222,0.229,0.333,0.429,0.333,0.6c0,0.033-0.006,0.076-0.018,0.128
		c-0.011,0.051-0.028,0.117-0.051,0.196c-0.092,0.285-0.208,0.621-0.351,1.009c-0.143,0.387-0.293,0.789-0.452,1.204
		c-0.159,0.417-0.319,0.832-0.479,1.248c-0.16,0.416-0.303,0.806-0.428,1.171c-0.126,0.364-0.229,0.683-0.308,0.957
		c-0.08,0.272-0.12,0.473-0.12,0.598c0,0.068,0.035,0.103,0.104,0.103c0.125,0,0.312-0.073,0.563-0.223
		c0.25-0.148,0.538-0.342,0.863-0.58c0.324-0.24,0.663-0.502,1.018-0.787c0.352-0.285,0.691-0.565,1.016-0.846
		c0.325-0.279,0.618-0.531,0.88-0.76c0.263-0.229,0.462-0.398,0.599-0.514c0.113,0.103,0.239,0.234,0.376,0.394
		c0.137,0.16,0.268,0.308,0.393,0.444c-0.25,0.25-0.563,0.556-0.939,0.914c-0.376,0.359-0.783,0.727-1.222,1.103
		c-0.439,0.376-0.895,0.752-1.367,1.128c-0.474,0.376-0.932,0.713-1.376,1.008c-0.444,0.297-0.86,0.535-1.248,0.719
		c-0.387,0.182-0.712,0.272-0.974,0.272c-0.171,0-0.387-0.06-0.649-0.179c-0.263-0.12-0.516-0.268-0.761-0.444
		s-0.452-0.373-0.624-0.59c-0.17-0.216-0.256-0.427-0.256-0.632c0.103-0.467,0.242-0.997,0.419-1.59
		c0.176-0.592,0.367-1.198,0.572-1.82c0.206-0.621,0.419-1.236,0.641-1.846c0.223-0.609,0.437-1.17,0.642-1.684l-0.034,0.034
		c-0.217,0.263-0.527,0.606-0.932,1.034s-0.863,0.975-1.376,1.641c-0.513,0.668-1.054,1.469-1.623,2.41
		c-0.569,0.939-1.129,2.055-1.676,3.342c-0.068,0.158-0.131,0.283-0.187,0.375c-0.059,0.09-0.165,0.137-0.325,0.137
		c-0.194,0-0.414-0.055-0.658-0.162c-0.245-0.109-0.496-0.251-0.752-0.428c-0.257-0.176-0.513-0.373-0.77-0.59
		c-0.256-0.216-0.486-0.432-0.691-0.648c0-0.069,0.031-0.262,0.094-0.581s0.151-0.722,0.265-1.205
		c0.114-0.483,0.257-1.037,0.427-1.658c0.172-0.621,0.365-1.272,0.582-1.957c0.216-0.683,0.452-1.381,0.709-2.093
		c0.256-0.712,0.532-1.398,0.829-2.061c0.478,0.229,1.011,0.508,1.598,0.838C361.496,217.326,362.04,217.714,362.542,218.158"/>
	<path d="M373.38,227.353c-0.193,0-0.447-0.088-0.76-0.266c-0.313-0.177-0.618-0.393-0.914-0.65
		c-0.297-0.254-0.553-0.521-0.77-0.793c-0.216-0.273-0.324-0.508-0.324-0.701c0-0.342,0.094-0.883,0.281-1.623
		c0.188-0.74,0.436-1.588,0.744-2.539c0.306-0.95,0.657-1.967,1.051-3.051c0.393-1.082,0.788-2.141,1.188-3.178h-2.41h-0.017
		c-0.011,0-0.017-0.012-0.017-0.033c0-0.069,0.025-0.168,0.076-0.3c0.052-0.131,0.114-0.268,0.188-0.409
		c0.074-0.144,0.159-0.274,0.256-0.395c0.098-0.119,0.191-0.196,0.281-0.23l2.223-0.103c0.318-0.774,0.624-1.489,0.914-2.146
		c0.291-0.654,0.55-1.215,0.778-1.683c0.057-0.125,0.116-0.259,0.179-0.401s0.154-0.285,0.273-0.428
		c0.12-0.142,0.279-0.29,0.479-0.445c0.199-0.152,0.47-0.31,0.812-0.469c0.251-0.125,0.556-0.262,0.915-0.41
		c0.358-0.147,0.712-0.285,1.06-0.41c0.347-0.125,0.663-0.23,0.948-0.316c0.284-0.085,0.489-0.128,0.615-0.128
		c0.113,0,0.171,0.022,0.171,0.067v0.035c0,0.012-0.012,0.041-0.034,0.086c-0.068,0.113-0.194,0.361-0.376,0.743
		c-0.183,0.382-0.407,0.86-0.675,1.435c-0.269,0.576-0.564,1.231-0.889,1.966c-0.325,0.735-0.658,1.513-1,2.333l4.102-0.154
		c0.113,0,0.147,0.069,0.103,0.205c-0.046,0.137-0.131,0.297-0.256,0.479c-0.126,0.183-0.271,0.371-0.437,0.564
		c-0.165,0.194-0.305,0.342-0.419,0.444c-0.022,0.022-0.069,0.046-0.137,0.069c-0.068,0.021-0.153,0.033-0.256,0.033h-3.385
		c-0.409,0.991-0.803,1.994-1.178,3.008c-0.377,1.015-0.713,1.978-1.009,2.889c-0.297,0.91-0.533,1.748-0.709,2.512
		c-0.177,0.764-0.265,1.391-0.265,1.88c0,0.068,0.033,0.103,0.102,0.103c0.126,0,0.313-0.07,0.564-0.215
		c0.25-0.142,0.532-0.326,0.846-0.555c0.313-0.227,0.646-0.479,1-0.752c0.353-0.273,0.689-0.544,1.008-0.812
		c0.319-0.267,0.607-0.512,0.863-0.733c0.257-0.224,0.453-0.39,0.59-0.504c0.103,0.103,0.225,0.233,0.367,0.394
		c0.143,0.158,0.276,0.307,0.402,0.443c-0.251,0.251-0.564,0.557-0.94,0.914c-0.376,0.359-0.783,0.727-1.222,1.104
		c-0.439,0.375-0.895,0.752-1.367,1.127c-0.474,0.375-0.935,0.713-1.386,1.008c-0.449,0.297-0.868,0.535-1.255,0.719
		C373.967,227.261,373.643,227.353,373.38,227.353"/>
	<path fill="#96BF3D" d="M268.525,57.915C268.525,25.98,242.547,0,210.61,0c-31.936,0-57.917,25.98-57.917,57.915
		c0,31.936,25.981,57.917,57.917,57.917c2.894,0,5.735-0.216,8.517-0.627v20.526c0,0,28.038-26.534,37.552-42.275
		C262.828,84.69,268.525,71.031,268.525,57.915"/>
	<path fill="#FFFFFF" d="M250.479,44.703v0.038c-0.005-0.015-0.009-0.029-0.014-0.043h-6.41c1.708,4.18,2.657,8.747,2.657,13.534
		c0,4.882-0.983,9.536-2.755,13.784h6.423c0.005-0.015,0.009-0.029,0.014-0.043v0.043l8.686-5.076V50.18L250.479,44.703z"/>
	<path fill="#FFFFFF" d="M242.304,75.4c-6.1,11.143-17.915,18.729-31.487,18.729c-19.795,0-35.898-16.103-35.898-35.897
		c0-19.795,16.104-35.898,35.898-35.898c13.681,0,25.574,7.707,31.631,18.995h6.707c-6.498-14.719-21.215-24.995-38.338-24.995
		c-23.141,0-41.898,18.758-41.898,41.898s18.758,41.897,41.898,41.897c17.019,0,31.658-10.153,38.217-24.729H242.304z"/>
	<path fill="#FFFFFF" d="M213.179,76.836c-0.524,0-1.228-0.188-2.104-0.562c-0.881-0.374-1.779-0.87-2.696-1.487
		c-0.918-0.618-1.788-1.329-2.611-2.134c-0.823-0.805-1.403-1.657-1.741-2.555c-1.947,1.834-3.894,3.388-5.84,4.66
		c-1.946,1.272-3.762,1.966-5.446,2.078c-0.562,0-1.376-0.244-2.443-0.73c-1.067-0.487-2.115-1.114-3.144-1.881
		c-1.03-0.767-1.928-1.647-2.696-2.639c-0.767-0.992-1.151-1.994-1.151-3.004c0-2.471,0.272-5.007,0.814-7.609
		c0.543-2.601,1.217-5.194,2.022-7.777c0.805-2.583,1.676-5.1,2.611-7.553c0.935-2.451,1.797-4.781,2.583-6.991
		c1.909,0.862,3.78,1.825,5.615,2.892c1.833,1.067,3.538,2.294,5.11,3.678c-0.562,1.123-1.143,2.452-1.741,3.987
		c-0.599,1.536-1.179,3.126-1.741,4.773c-0.561,1.648-1.094,3.313-1.6,4.998c-0.505,1.684-0.946,3.238-1.32,4.66
		c-0.374,1.424-0.673,2.677-0.898,3.762c-0.225,1.087-0.337,1.853-0.337,2.303c0,0.3,0.065,0.571,0.196,0.814
		c0.131,0.244,0.346,0.365,0.646,0.365c0.562,0,1.188-0.205,1.882-0.618c0.692-0.411,1.422-0.954,2.189-1.628
		c0.767-0.674,1.553-1.45,2.358-2.331c0.805-0.879,1.601-1.805,2.387-2.779c0.262-1.984,0.654-3.949,1.18-5.896
		c0.523-1.946,1.104-3.875,1.74-5.784c0.636-1.909,1.31-3.79,2.021-5.643c0.711-1.853,1.404-3.678,2.077-5.475
		c1.909,0.862,3.781,1.825,5.616,2.892c1.833,1.067,3.537,2.294,5.109,3.678c-0.562,1.123-1.123,2.396-1.685,3.818
		c-0.562,1.424-1.095,2.892-1.601,4.408c-0.505,1.517-0.982,3.014-1.432,4.492c-0.449,1.48-0.834,2.864-1.151,4.155
		c-0.318,1.292-0.571,2.425-0.758,3.398c-0.188,0.974-0.28,1.684-0.28,2.134c0,0.3,0.056,0.571,0.168,0.814
		c0.112,0.244,0.317,0.365,0.617,0.365c0.599,0,1.292-0.215,2.078-0.646c0.786-0.43,1.601-1.011,2.442-1.74
		c0.843-0.731,1.693-1.581,2.556-2.556c0.86-0.973,1.703-1.983,2.526-3.032c-0.337-1.159-0.505-2.489-0.505-3.987
		c0-1.197,0.205-2.648,0.617-4.351s0.936-3.398,1.572-5.082c0.637-1.685,1.338-3.247,2.105-4.689
		c0.769-1.441,1.488-2.517,2.162-3.229c0.861,0.301,1.75,0.74,2.667,1.32c0.917,0.581,1.769,1.198,2.556,1.853
		c0.785,0.655,1.432,1.301,1.937,1.938c0.506,0.637,0.795,1.143,0.87,1.516c0,0.824-0.205,1.817-0.617,2.976
		c-0.412,1.161-0.982,2.415-1.713,3.763c-0.729,1.347-1.592,2.751-2.583,4.211c-0.992,1.46-2.069,2.92-3.229,4.38
		c0.674,0.824,1.815,1.235,3.425,1.235c1.872,0,3.743-0.664,5.615-1.993s4.023-3.117,6.458-5.363
		c0.374,0.337,0.823,0.778,1.348,1.32c0.524,0.543,0.954,1.02,1.292,1.432c-3.145,3.108-5.963,5.362-8.451,6.766
		c-2.49,1.404-4.914,2.106-7.271,2.106c-2.246,0-4.1-0.618-5.56-1.853c-1.235,1.311-2.499,2.536-3.79,3.678
		c-1.292,1.142-2.574,2.143-3.846,3.004c-1.273,0.861-2.52,1.553-3.735,2.078C215.415,76.461,214.264,76.76,213.179,76.836"/>
</g>
</svg>
