<?xml version="1.0" encoding="UTF-8"?>
<svg width="37px" height="37px" viewBox="0 0 37 37" version="1.1" xmlns="http://www.w3.org/2000/svg" xmlns:xlink="http://www.w3.org/1999/xlink">
    <title>checkmark</title>
    <g id="Layout" stroke="none" stroke-width="1" fill="none" fill-rule="evenodd">
        <path d="M28.7671651,5.31369621 C29.9746986,3.80427944 32.1772219,3.55955463 33.6866386,4.76708805 C35.1960554,5.97462147 35.4407802,8.17714477 34.2332468,9.68656155 L18.2332468,29.6865615 L18.209206,29.7151289 L18.169091,29.7656089 L18.116206,29.8231289 L18.1001378,29.8434368 L18.085206,29.8571289 L18.0402716,29.9088566 L17.989206,29.9591289 L17.9598754,29.9905821 L17.933206,30.0141289 L17.9024782,30.0459682 L17.856206,30.0861289 L17.8129211,30.1279461 L17.779206,30.1551289 L17.7557699,30.1765302 L17.719206,30.2051289 L17.6597363,30.2554775 L17.625206,30.2801289 L17.600206,30.3001289 L17.557206,30.3301289 L17.5007824,30.3731251 L17.450206,30.4051289 L17.4379934,30.4148627 L17.417206,30.4261289 L17.3365207,30.4808375 L17.296206,30.5031289 L17.2715756,30.5191452 L17.231206,30.5411289 L17.1674127,30.5785637 L17.116206,30.6041289 L17.1013662,30.6130356 L17.074206,30.6251289 L16.9939197,30.6662521 L16.954206,30.6831289 L16.927779,30.6965929 L16.863206,30.7221289 L16.8165032,30.7438517 L16.797206,30.7501289 L16.7512275,30.7698763 L16.689206,30.7911289 L16.6356245,30.8113112 L16.600206,30.8221289 L16.5721254,30.8329448 L16.502206,30.8521289 L16.4517451,30.8685792 L16.430206,30.8731289 L16.3908864,30.8858575 L16.300206,30.9061289 L16.2653263,30.9156045 L16.249206,30.9181289 L16.2079241,30.9286735 L16.107206,30.9461289 L16.0768296,30.9523358 L16.064206,30.9541289 L16.0236521,30.961452 C15.9004595,30.9799715 15.7766695,30.9918388 15.6528338,30.9971324 L15.542206,30.9991289 L15.5034856,31.0002534 L15.489206,31.0002534 L15.4671148,31.0002534 L15.384206,30.9971289 L15.311291,30.9952963 L15.292206,30.9931289 L15.2817407,30.9933716 L15.223206,30.9881289 L15.1193255,30.9797888 L15.099206,30.9761289 L15.079206,30.9741289 L14.9280503,30.9536798 C14.6736821,30.9117773 14.4223855,30.8414673 14.1790818,30.7422029 L14.060206,30.6901289 L14.0285272,30.6764341 L14.022206,30.6731289 L13.9981797,30.6623171 L13.931206,30.6281289 L13.8608041,30.5933707 L13.833206,30.5781289 L13.8207364,30.5715222 L13.790206,30.5531289 L13.6971488,30.5010378 C13.5894931,30.436406 13.484825,30.3656339 13.3836961,30.2888004 L13.338206,30.2521289 L13.3137733,30.2331697 L13.284206,30.2091289 L13.234726,30.1690139 L13.176206,30.1161289 L13.156898,30.1000607 L13.142206,30.0851289 L13.0914783,30.0401945 L13.038206,29.9871289 L13.0097527,29.9597983 L12.985206,29.9331289 L12.9543666,29.9024011 L12.901206,29.8431289 L12.8723888,29.812844 L12.844206,29.7791289 L12.8238046,29.7556928 L12.794206,29.7191289 L12.7448574,29.6596592 L12.712206,29.6161289 L12.700206,29.6001289 L3.70020598,17.6001289 C2.54040801,16.0537316 2.85380868,13.8599269 4.40020598,12.7001289 C5.94660328,11.5403309 8.14040801,11.8537316 9.30020598,13.4001289 L15.589206,21.7851289 L28.7671651,5.31369621 Z" id="checkmark-copy" fill="#000000" fill-rule="nonzero"></path>
    </g>
</svg>