<?xml version="1.0" encoding="UTF-8"?>
<svg width="910.152632px" height="241.2px" viewBox="0 0 910.152632 241.2" version="1.1" xmlns="http://www.w3.org/2000/svg" xmlns:xlink="http://www.w3.org/1999/xlink">
    <title>Webmontag Bonn-LogoType</title>
    <g id="Webmontag-Bonn-LogoType" stroke="none" stroke-width="1" fill="none" fill-rule="evenodd" transform="translate(0, 0)">
        <polygon id="Path" fill="#000000" fill-rule="nonzero" points="150.45 5.7 123 111 91.95 111 75.15 41.7 57.75 111 26.7 111 0 5.7 27.45 5.7 42.6 82.35 61.35 5.7 89.55 5.7 107.55 82.35 122.85 5.7"></polygon>
        <path d="M231.986842,67.8 C231.986842,70.2 231.836842,72.7 231.536842,75.3 L173.486842,75.3 C173.886842,80.5 175.561842,84.475 178.511842,87.225 C181.461842,89.975 185.086842,91.35 189.386842,91.35 C195.786842,91.35 200.236842,88.65 202.736842,83.25 L230.036842,83.25 C228.636842,88.75 226.111842,93.7 222.461842,98.1 C218.811842,102.5 214.236842,105.95 208.736842,108.45 C203.236842,110.95 197.086842,112.2 190.286842,112.2 C182.086842,112.2 174.786842,110.45 168.386842,106.95 C161.986842,103.45 156.986842,98.45 153.386842,91.95 C149.786842,85.45 147.986842,77.85 147.986842,69.15 C147.986842,60.45 149.761842,52.85 153.311842,46.35 C156.861842,39.85 161.836842,34.85 168.236842,31.35 C174.636842,27.85 181.986842,26.1 190.286842,26.1 C198.386842,26.1 205.586842,27.8 211.886842,31.2 C218.186842,34.6 223.111842,39.45 226.661842,45.75 C230.211842,52.05 231.986842,59.4 231.986842,67.8 Z M205.736842,61.05 C205.736842,56.65 204.236842,53.15 201.236842,50.55 C198.236842,47.95 194.486842,46.65 189.986842,46.65 C185.686842,46.65 182.061842,47.9 179.111842,50.4 C176.161842,52.9 174.336842,56.45 173.636842,61.05 L205.736842,61.05 Z" id="Shape" fill="#000000" fill-rule="nonzero"></path>
        <path d="M265.610526,39.15 C268.010526,35.25 271.460526,32.1 275.960526,29.7 C280.460526,27.3 285.610526,26.1 291.410526,26.1 C298.310526,26.1 304.560526,27.85 310.160526,31.35 C315.760526,34.85 320.185526,39.85 323.435526,46.35 C326.685526,52.85 328.310526,60.4 328.310526,69 C328.310526,77.6 326.685526,85.175 323.435526,91.725 C320.185526,98.275 315.760526,103.325 310.160526,106.875 C304.560526,110.425 298.310526,112.2 291.410526,112.2 C285.510526,112.2 280.360526,111.025 275.960526,108.675 C271.560526,106.325 268.110526,103.2 265.610526,99.3 L265.610526,111 L239.960526,111 L239.960526,0 L265.610526,0 L265.610526,39.15 Z M302.210526,69 C302.210526,62.6 300.435526,57.575 296.885526,53.925 C293.335526,50.275 288.960526,48.45 283.760526,48.45 C278.660526,48.45 274.335526,50.3 270.785526,54 C267.235526,57.7 265.460526,62.75 265.460526,69.15 C265.460526,75.55 267.235526,80.6 270.785526,84.3 C274.335526,88 278.660526,89.85 283.760526,89.85 C288.860526,89.85 293.210526,87.975 296.810526,84.225 C300.410526,80.475 302.210526,75.4 302.210526,69 Z" id="Shape" fill="#000000" fill-rule="nonzero"></path>
        <path d="M443.084211,26.4 C453.484211,26.4 461.759211,29.55 467.909211,35.85 C474.059211,42.15 477.134211,50.9 477.134211,62.1 L477.134211,111 L451.634211,111 L451.634211,65.55 C451.634211,60.15 450.209211,55.975 447.359211,53.025 C444.509211,50.075 440.584211,48.6 435.584211,48.6 C430.584211,48.6 426.659211,50.075 423.809211,53.025 C420.959211,55.975 419.534211,60.15 419.534211,65.55 L419.534211,111 L394.034211,111 L394.034211,65.55 C394.034211,60.15 392.609211,55.975 389.759211,53.025 C386.909211,50.075 382.984211,48.6 377.984211,48.6 C372.984211,48.6 369.059211,50.075 366.209211,53.025 C363.359211,55.975 361.934211,60.15 361.934211,65.55 L361.934211,111 L336.284211,111 L336.284211,27.3 L361.934211,27.3 L361.934211,37.8 C364.534211,34.3 367.934211,31.525 372.134211,29.475 C376.334211,27.425 381.084211,26.4 386.384211,26.4 C392.684211,26.4 398.309211,27.75 403.259211,30.45 C408.209211,33.15 412.084211,37 414.884211,42 C417.784211,37.4 421.734211,33.65 426.734211,30.75 C431.734211,27.85 437.184211,26.4 443.084211,26.4 Z" id="Path" fill="#000000" fill-rule="nonzero"></path>
        <path d="M527.707895,112.2 C519.507895,112.2 512.132895,110.45 505.582895,106.95 C499.032895,103.45 493.882895,98.45 490.132895,91.95 C486.382895,85.45 484.507895,77.85 484.507895,69.15 C484.507895,60.55 486.407895,52.975 490.207895,46.425 C494.007895,39.875 499.207895,34.85 505.807895,31.35 C512.407895,27.85 519.807895,26.1 528.007895,26.1 C536.207895,26.1 543.607895,27.85 550.207895,31.35 C556.807895,34.85 562.007895,39.875 565.807895,46.425 C569.607895,52.975 571.507895,60.55 571.507895,69.15 C571.507895,77.75 569.582895,85.325 565.732895,91.875 C561.882895,98.425 556.632895,103.45 549.982895,106.95 C543.332895,110.45 535.907895,112.2 527.707895,112.2 Z M527.707895,90 C532.607895,90 536.782895,88.2 540.232895,84.6 C543.682895,81 545.407895,75.85 545.407895,69.15 C545.407895,62.45 543.732895,57.3 540.382895,53.7 C537.032895,50.1 532.907895,48.3 528.007895,48.3 C523.007895,48.3 518.857895,50.075 515.557895,53.625 C512.257895,57.175 510.607895,62.35 510.607895,69.15 C510.607895,75.85 512.232895,81 515.482895,84.6 C518.732895,88.2 522.807895,90 527.707895,90 Z" id="Shape" fill="#000000" fill-rule="nonzero"></path>
        <path d="M630.631579,26.4 C640.431579,26.4 648.256579,29.575 654.106579,35.925 C659.956579,42.275 662.881579,51 662.881579,62.1 L662.881579,111 L637.381579,111 L637.381579,65.55 C637.381579,59.95 635.931579,55.6 633.031579,52.5 C630.131579,49.4 626.231579,47.85 621.331579,47.85 C616.431579,47.85 612.531579,49.4 609.631579,52.5 C606.731579,55.6 605.281579,59.95 605.281579,65.55 L605.281579,111 L579.631579,111 L579.631579,27.3 L605.281579,27.3 L605.281579,38.4 C607.881579,34.7 611.381579,31.775 615.781579,29.625 C620.181579,27.475 625.131579,26.4 630.631579,26.4 Z" id="Path" fill="#000000" fill-rule="nonzero"></path>
        <path d="M721.855263,89.25 L721.855263,111 L708.805263,111 C699.505263,111 692.255263,108.725 687.055263,104.175 C681.855263,99.625 679.255263,92.2 679.255263,81.9 L679.255263,48.6 L669.055263,48.6 L669.055263,27.3 L679.255263,27.3 L679.255263,6.9 L704.905263,6.9 L704.905263,27.3 L721.705263,27.3 L721.705263,48.6 L704.905263,48.6 L704.905263,82.2 C704.905263,84.7 705.505263,86.5 706.705263,87.6 C707.905263,88.7 709.905263,89.25 712.705263,89.25 L721.855263,89.25 Z" id="Path" fill="#000000" fill-rule="nonzero"></path>
        <path d="M725.478947,69 C725.478947,60.4 727.103947,52.85 730.353947,46.35 C733.603947,39.85 738.028947,34.85 743.628947,31.35 C749.228947,27.85 755.478947,26.1 762.378947,26.1 C768.278947,26.1 773.453947,27.3 777.903947,29.7 C782.353947,32.1 785.778947,35.25 788.178947,39.15 L788.178947,27.3 L813.828947,27.3 L813.828947,111 L788.178947,111 L788.178947,99.15 C785.678947,103.05 782.203947,106.2 777.753947,108.6 C773.303947,111 768.128947,112.2 762.228947,112.2 C755.428947,112.2 749.228947,110.425 743.628947,106.875 C738.028947,103.325 733.603947,98.275 730.353947,91.725 C727.103947,85.175 725.478947,77.6 725.478947,69 Z M788.178947,69.15 C788.178947,62.75 786.403947,57.7 782.853947,54 C779.303947,50.3 774.978947,48.45 769.878947,48.45 C764.778947,48.45 760.453947,50.275 756.903947,53.925 C753.353947,57.575 751.578947,62.6 751.578947,69 C751.578947,75.4 753.353947,80.475 756.903947,84.225 C760.453947,87.975 764.778947,89.85 769.878947,89.85 C774.978947,89.85 779.303947,88 782.853947,84.3 C786.403947,80.6 788.178947,75.55 788.178947,69.15 Z" id="Shape" fill="#000000" fill-rule="nonzero"></path>
        <path d="M858.702632,26.1 C864.602632,26.1 869.777632,27.3 874.227632,29.7 C878.677632,32.1 882.102632,35.25 884.502632,39.15 L884.502632,27.3 L910.152632,27.3 L910.152632,110.85 C910.152632,118.55 908.627632,125.525 905.577632,131.775 C902.527632,138.025 897.877632,143 891.627632,146.7 C885.377632,150.4 877.602632,152.25 868.302632,152.25 C855.902632,152.25 845.852632,149.325 838.152632,143.475 C830.452632,137.625 826.052632,129.7 824.952632,119.7 L850.302632,119.7 C851.102632,122.9 853.002632,125.425 856.002632,127.275 C859.002632,129.125 862.702632,130.05 867.102632,130.05 C872.402632,130.05 876.627632,128.525 879.777632,125.475 C882.927632,122.425 884.502632,117.55 884.502632,110.85 L884.502632,99 C882.002632,102.9 878.552632,106.075 874.152632,108.525 C869.752632,110.975 864.602632,112.2 858.702632,112.2 C851.802632,112.2 845.552632,110.425 839.952632,106.875 C834.352632,103.325 829.927632,98.275 826.677632,91.725 C823.427632,85.175 821.802632,77.6 821.802632,69 C821.802632,60.4 823.427632,52.85 826.677632,46.35 C829.927632,39.85 834.352632,34.85 839.952632,31.35 C845.552632,27.85 851.802632,26.1 858.702632,26.1 Z M884.502632,69.15 C884.502632,62.75 882.727632,57.7 879.177632,54 C875.627632,50.3 871.302632,48.45 866.202632,48.45 C861.102632,48.45 856.777632,50.275 853.227632,53.925 C849.677632,57.575 847.902632,62.6 847.902632,69 C847.902632,75.4 849.677632,80.475 853.227632,84.225 C856.777632,87.975 861.102632,89.85 866.202632,89.85 C871.302632,89.85 875.627632,88 879.177632,84.3 C882.727632,80.6 884.502632,75.55 884.502632,69.15 Z" id="Shape" fill="#000000" fill-rule="nonzero"></path>
        <path d="M69.3,186 C75.4,187.3 80.3,190.325 84,195.075 C87.7,199.825 89.55,205.25 89.55,211.35 C89.55,220.15 86.475,227.125 80.325,232.275 C74.175,237.425 65.6,240 54.6,240 L5.55,240 L5.55,134.7 L52.95,134.7 C63.65,134.7 72.025,137.15 78.075,142.05 C84.125,146.95 87.15,153.6 87.15,162 C87.15,168.2 85.525,173.35 82.275,177.45 C79.025,181.55 74.7,184.4 69.3,186 Z M31.2,177.3 L48,177.3 C52.2,177.3 55.425,176.375 57.675,174.525 C59.925,172.675 61.05,169.95 61.05,166.35 C61.05,162.75 59.925,160 57.675,158.1 C55.425,156.2 52.2,155.25 48,155.25 L31.2,155.25 L31.2,177.3 Z M50.1,219.3 C54.4,219.3 57.725,218.325 60.075,216.375 C62.425,214.425 63.6,211.6 63.6,207.9 C63.6,204.2 62.375,201.3 59.925,199.2 C57.475,197.1 54.1,196.05 49.8,196.05 L31.2,196.05 L31.2,219.3 L50.1,219.3 Z" id="Shape" fill="#000000" fill-rule="nonzero"></path>
        <path d="M138.552632,241.2 C130.352632,241.2 122.977632,239.45 116.427632,235.95 C109.877632,232.45 104.727632,227.45 100.977632,220.95 C97.2276316,214.45 95.3526316,206.85 95.3526316,198.15 C95.3526316,189.55 97.2526316,181.975 101.052632,175.425 C104.852632,168.875 110.052632,163.85 116.652632,160.35 C123.252632,156.85 130.652632,155.1 138.852632,155.1 C147.052632,155.1 154.452632,156.85 161.052632,160.35 C167.652632,163.85 172.852632,168.875 176.652632,175.425 C180.452632,181.975 182.352632,189.55 182.352632,198.15 C182.352632,206.75 180.427632,214.325 176.577632,220.875 C172.727632,227.425 167.477632,232.45 160.827632,235.95 C154.177632,239.45 146.752632,241.2 138.552632,241.2 Z M138.552632,219 C143.452632,219 147.627632,217.2 151.077632,213.6 C154.527632,210 156.252632,204.85 156.252632,198.15 C156.252632,191.45 154.577632,186.3 151.227632,182.7 C147.877632,179.1 143.752632,177.3 138.852632,177.3 C133.852632,177.3 129.702632,179.075 126.402632,182.625 C123.102632,186.175 121.452632,191.35 121.452632,198.15 C121.452632,204.85 123.077632,210 126.327632,213.6 C129.577632,217.2 133.652632,219 138.552632,219 Z" id="Shape" fill="#000000" fill-rule="nonzero"></path>
        <path d="M241.476316,155.4 C251.276316,155.4 259.101316,158.575 264.951316,164.925 C270.801316,171.275 273.726316,180 273.726316,191.1 L273.726316,240 L248.226316,240 L248.226316,194.55 C248.226316,188.95 246.776316,184.6 243.876316,181.5 C240.976316,178.4 237.076316,176.85 232.176316,176.85 C227.276316,176.85 223.376316,178.4 220.476316,181.5 C217.576316,184.6 216.126316,188.95 216.126316,194.55 L216.126316,240 L190.476316,240 L190.476316,156.3 L216.126316,156.3 L216.126316,167.4 C218.726316,163.7 222.226316,160.775 226.626316,158.625 C231.026316,156.475 235.976316,155.4 241.476316,155.4 Z" id="Path" fill="#000000" fill-rule="nonzero"></path>
        <path d="M337.05,155.4 C346.85,155.4 354.675,158.575 360.525,164.925 C366.375,171.275 369.3,180 369.3,191.1 L369.3,240 L343.8,240 L343.8,194.55 C343.8,188.95 342.35,184.6 339.45,181.5 C336.55,178.4 332.65,176.85 327.75,176.85 C322.85,176.85 318.95,178.4 316.05,181.5 C313.15,184.6 311.7,188.95 311.7,194.55 L311.7,240 L286.05,240 L286.05,156.3 L311.7,156.3 L311.7,167.4 C314.3,163.7 317.8,160.775 322.2,158.625 C326.6,156.475 331.55,155.4 337.05,155.4 Z" id="Path" fill="#000000" fill-rule="nonzero"></path>
    </g>
</svg>