<?xml version="1.0" encoding="UTF-8"?>
<svg width="75px" height="67px" viewBox="0 0 75 67" version="1.1" xmlns="http://www.w3.org/2000/svg" xmlns:xlink="http://www.w3.org/1999/xlink">
    <title>icon-facebook</title>
    <g id="Page-1" stroke="none" stroke-width="1" fill="none" fill-rule="evenodd">
        <g id="icons" transform="translate(-275.000000, -755.000000)" fill="#000000" fill-rule="nonzero">
            <path d="M312,766 C324.65,766 335,776.175879 335,788.613065 C335,799.806533 326.72,809.077889 315.795,811 L315.697168,810.923914 C315.768112,810.911943 315.839056,810.899617 315.91,810.886935 L315.91,794.944724 L320.97,794.944724 L322.005,788.613065 L315.91,788.613065 L315.91,784.203518 C315.91,782.394472 316.6,781.037688 319.36,781.037688 L322.35,781.037688 L322.35,775.271357 C320.74,775.045226 318.9,774.819095 317.29,774.819095 C312,774.819095 308.32,777.984925 308.32,783.638191 L308.32,788.613065 L302.57,788.613065 L302.57,794.944724 L308.32,794.944724 L308.32,810.886935 L308.342,810.89 L308.205,811 C297.28,809.077889 289,799.806533 289,788.613065 C289,776.175879 299.35,766 312,766 Z" id="Combined-Shape"></path>
        </g>
    </g>
</svg>