<?xml version="1.0" encoding="UTF-8"?>
<svg width="75px" height="67px" viewBox="0 0 75 67" version="1.1" xmlns="http://www.w3.org/2000/svg" xmlns:xlink="http://www.w3.org/1999/xlink">
    <title>icon-linkedin</title>
    <g id="Page-1" stroke="none" stroke-width="1" fill="none" fill-rule="evenodd">
        <g id="icons" transform="translate(-197.000000, -755.000000)" fill="#171817" fill-rule="nonzero">
            <path d="M253.674582,767 C255.511138,767 257,768.443098 257,770.22352 L257,808.77648 C257,810.556301 255.511138,812 253.674582,812 L215.325418,812 C213.488802,812 212,810.556301 212,808.77648 L212,770.22352 C212,768.443098 213.488802,767 215.325418,767 L253.674582,767 Z M222.242439,797.424712 L222.198145,797.424712 C219.9172,797.424712 218.442255,798.985061 218.442255,800.935047 C218.442255,802.928927 219.962401,804.445984 222.287398,804.445984 C224.612637,804.445984 226.043711,802.928927 226.087884,800.935047 C226.087884,798.985061 224.612637,797.424712 222.242439,797.424712 Z M236.198592,774.330336 L229.401805,774.330336 L229.401986,774.367954 C229.402045,774.380388 229.402119,774.39585 229.402206,774.414261 L229.402889,774.559485 C229.407352,775.515975 229.424532,779.329588 229.434416,783.393674 L229.436178,784.157989 C229.436456,784.285652 229.436726,784.4134 229.436986,784.541154 L229.438438,785.307115 C229.439105,785.689495 229.43968,786.070497 229.440147,786.447973 L229.440933,787.197586 C229.441038,787.321526 229.44113,787.444915 229.441208,787.567673 L229.441266,789.351825 C229.441191,789.46629 229.441098,789.579728 229.440988,789.692057 L229.440114,790.352105 C229.436465,792.503715 229.425324,794.148595 229.401805,794.650356 L236.198773,794.650356 L236.198,791.772 L236.236702,791.831251 C237.11873,793.169013 238.667909,795.008013 241.996428,795.121644 L242.324135,795.12718 C246.795925,795.12718 250.149117,792.222945 250.149117,785.981547 L250.149117,774.330336 L243.352875,774.330336 L243.352875,785.201072 C243.352875,787.932736 242.369034,789.796136 239.909582,789.796136 C238.03194,789.796136 236.913584,788.539438 236.422239,787.326033 C236.242764,786.891901 236.198592,786.285199 236.198592,785.677895 L236.198592,774.330336 Z M225.640893,774.330336 L218.844045,774.330336 L218.844045,794.650356 L225.640893,794.650356 L225.640893,774.330336 Z" id="Combined-Shape" transform="translate(234.500000, 789.500000) scale(-1, 1) rotate(-180.000000) translate(-234.500000, -789.500000) "></path>
        </g>
    </g>
</svg>