<svg id="sprite" style="display:none">
    <defs>
        <symbol id="icon-b2b" viewBox="0 0 117 136"><g stroke="none" stroke-width="1" fill="none" fill-rule="evenodd"><g transform="translate(-844.000000, -229.000000)"><g transform="translate(844.000000, 229.000000)"><path d="M116.7 58.2C116.7 26.2 90.7 0.3 58.8 0.3 26.8 0.3 0.8 26.2 0.8 58.2 0.8 90.1 26.8 116.1 58.8 116.1 61.6 116.1 64.5 115.9 67.3 115.5L67.3 136C67.3 136 95.3 109.5 104.8 93.7 111 84.9 116.7 71.3 116.7 58.2ZM58.8 94C78.7 94 94.8 77.9 94.8 58 94.8 38.1 78.7 22 58.8 22 39 22 22.8 38.1 22.8 58 22.8 77.9 39 94 58.8 94Z" fill="#1A1918"/><g transform="translate(39.250652, 31.000000)" fill="#96BF3D"><path d="M0 46C0 48.2 1.8 50 4 50L29 50C31.2 50 33 48.2 33 46L33 11 0 11 0 46ZM5.1 18.2C5.1 16.9 6 15.9 7.2 15.9 8.3 15.9 9.2 16.9 9.2 18.2L9.2 42.7C9.2 44 8.3 45 7.2 45 6 45 5.1 43.9 5.1 42.7L5.1 18.2 5.1 18.2ZM14.4 18.2C14.4 16.9 15.3 15.9 16.5 15.9 17.6 15.9 18.6 16.9 18.6 18.2L18.6 42.7C18.6 44 17.7 45 16.5 45 15.4 45 14.4 43.9 14.4 42.7L14.4 18.2 14.4 18.2ZM23.8 18.2C23.8 16.9 24.8 15.9 25.9 15.9 27.1 15.9 28 16.9 28 18.2L28 42.7C28 44 27.1 45 25.9 45 24.8 45 23.8 43.9 23.8 42.7L23.8 18.2 23.8 18.2ZM35 21L35 17 40 17C42.8 17 45 19.2 45 22L45 35C45 37.8 42.8 40 40 40L35 40 35 36 39 36C40.1 36 41 35.1 41 34L41 23C41 21.9 40.1 21 39 21L35 21ZM30.3 9.5L33 9.5C33 8.3 32.1 7.3 31 7 30.8 4.8 29.1 3 27 3 25.9 3 24.8 3.5 24.1 4.4 23 3.6 21.1 3 19 3 18.3 3 17.6 3.1 16.9 3.2 16.6 1.9 15.6 1 14.5 1 14.1 1 13.7 1.1 13.4 1.3 12.5 0.5 11.3 0 10 0 7.2 0 5 2.2 5 5 5 5 5 5.1 5 5.1 4.7 5 4.3 5 4 5 1.8 5 0 7.6 0 9.5L2.4 9.5C3 8.3 4.1 7.2 5.5 7.2 5.8 7.2 6.1 7.2 6.4 7.3 6.4 7.3 6.4 7.2 6.4 7.2 6.4 4.9 8.4 3 10.8 3 11.9 3 13 3.4 13.8 4.1 14.1 3.9 14.4 3.8 14.7 3.8 15.7 3.8 16.6 4.6 16.9 5.7 17.4 5.6 18.1 5.5 18.7 5.5 20.6 5.5 22.2 6 23.2 6.7 23.8 6 24.7 5.5 25.7 5.5 27.5 5.5 29 7 29.2 8.9 29.7 9 30 9.2 30.3 9.5Z"/></g></g></g></g></symbol>
        <symbol id="icon-talk" viewBox="0 0 116 136"><g stroke="none" stroke-width="1" fill="none" fill-rule="evenodd"><g transform="translate(-557.000000, -229.000000)"><g transform="translate(557.000000, 229.000000)"><path d="M53.9 48.1C52.7 48.1 51.6 47 51.6 45.8 51.6 44.5 52.7 43.5 53.9 43.5 55.2 43.5 56.2 44.5 56.2 45.8 56.2 47 55.2 48.1 53.9 48.1L53.9 48.1ZM44 35L44 64.6 51.5 64.6C51 68 48.4 70.7 44 72.7L44 83C50.2 82 55.6 80 60.5 77 65.4 73.9 69.1 70.3 71.1 65.9 73.1 61.6 73.7 57.5 73.7 50.7L73.7 35 44 35 44 35Z" fill="#96BF3D"/><path d="M115.8 58.2C115.8 26.2 89.9 0.3 57.9 0.3 26 0.3 0 26.2 0 58.2 0 90.1 26 116.1 57.9 116.1 60.8 116.1 63.7 115.9 66.4 115.5L66.4 136C66.4 136 94.5 109.5 104 93.7 110.1 84.9 115.8 71.3 115.8 58.2ZM58 94C77.9 94 94 77.9 94 58 94 38.1 77.9 22 58 22 38.1 22 22 38.1 22 58 22 77.9 38.1 94 58 94Z" fill="#1A1918"/></g></g></g></symbol>
        <symbol id="icon-talk-inactive" viewBox="0 0 116 136"><g stroke="none" stroke-width="1" fill="none" fill-rule="evenodd"><g transform="translate(-696.000000, -229.000000)"><g transform="translate(696.000000, 229.000000)"><path d="M115.8 58.2C115.8 26.2 89.9 0.3 57.9 0.3 26 0.3 0 26.2 0 58.2 0 90.1 26 116.1 57.9 116.1 60.8 116.1 63.7 115.9 66.4 115.5L66.4 136C66.4 136 94.5 109.5 104 93.7 110.1 84.9 115.8 71.3 115.8 58.2ZM58 94C77.9 94 94 77.9 94 58 94 38.1 77.9 22 58 22 38.1 22 22 38.1 22 58 22 77.9 38.1 94 58 94Z" fill="#FFFFFF"/><path d="M56.7 80C55.1 80 53.8 79.5 52.7 78.3 51.5 77.2 51 75.8 51 74.2 51 72.7 51.5 71.3 52.7 70.2 53.8 69 55.1 68.4 56.7 68.4 58.3 68.4 59.7 69 60.8 70.2 61.9 71.3 62.5 72.7 62.5 74.2 62.5 75.8 61.9 77.2 60.8 78.3 59.7 79.5 58.3 80 56.7 80L56.7 80ZM58.2 45.3C56 45.3 54.3 45.8 53 46.9 54.3 47.9 54.9 49.1 54.9 50.3 54.9 51.9 54.3 53.3 53.1 54.4 51.9 55.5 50.4 56.1 48.7 56.1 46.8 56.1 45.3 55.4 44.1 54.2 43 53 42.4 51.3 42.4 49.4 42.4 45.9 44 43 47.2 40.7 50.4 38.4 54.5 37.2 59.4 37.2 64.2 37.2 68.1 38.4 71 40.8 73.9 43.1 75.4 46.2 75.4 50.1 75.4 51.8 75 53.5 74.3 55.1 73.6 56.7 72.6 57.9 71.5 58.7 69.9 59.9 67.5 60.9 64.2 61.6 63.2 61.8 62.6 62.1 62.3 62.3 62 62.6 61.9 63.1 61.8 63.8 61.8 64.9 61.6 65.7 61.2 66 60.8 66.3 59.9 66.5 58.5 66.6L56.8 66.7C56.8 66.7 56.6 66.7 56.2 66.7 54.6 66.7 53.5 66.4 52.9 65.8 52.3 65.2 52 64 52 62.4 52 60.3 52.4 58.8 53.4 57.8 54.3 56.8 56.1 56 58.7 55.5 62.6 54.6 64.6 52.8 64.6 50.2 64.6 48.7 64 47.6 62.9 46.6 61.7 45.7 60.1 45.3 58.2 45.3L58.2 45.3Z" fill="#000000"/></g></g></g></symbol>
        <symbol id="icon-g-plus" viewBox="0 0 120 85"><g stroke="none" stroke-width="1" fill="none" fill-rule="evenodd"><g transform="translate(-313.000000, -631.000000)"><g transform="translate(331.000000, 644.000000)"><path d="M0.5 61.7L2.3 47.6C2.3 47.6 4.6 27.2 21 26.5 38.2 25.8 75.2 26.5 75.2 26.5L84.4 61.7 0.5 61.7 0.5 61.7ZM12.1 0.2L62.2 0.2C69.6 0.2 75.2 26.5 75.2 26.5" stroke="#1A1918" stroke-width="6"/><path d="M43.2 43.5C43.2 43.9 43.4 44.3 43.7 44.7 44.1 45 44.5 45.4 45 45.8 45.6 46.2 46.1 46.6 46.6 47 47.1 47.5 47.5 48.1 47.9 48.8 48.2 49.5 48.4 50.3 48.4 51.2 48.4 52.2 48.1 53.2 47.6 54.1 46.8 55.5 45.6 56.5 44 57.2 42.5 57.8 40.8 58.1 39 58.1 37.5 58.1 36.1 57.9 34.8 57.4 33.5 57 32.6 56.2 31.9 55.1 31.5 54.4 31.3 53.7 31.3 52.9 31.3 52 31.5 51.1 32 50.4 32.6 49.6 33.2 48.9 34.1 48.4 35.5 47.5 37.8 46.9 40.9 46.7 40.5 46.3 40.3 45.8 40.1 45.5 39.9 45.1 39.8 44.7 39.8 44.2 39.8 43.8 39.9 43.4 40.2 42.8 39.7 42.8 39.3 42.9 39 42.9 37.4 42.9 36 42.3 34.8 41.2 33.7 40.2 33.1 38.8 33.1 37.1 33.1 36.2 33.3 35.3 33.7 34.4 34.1 33.5 34.7 32.8 35.4 32.2 36.2 31.5 37.3 30.9 38.5 30.5 39.6 30.2 40.9 30 42.1 30L49.2 30 46.9 31.5 44.7 31.5C45.5 32.2 46.1 32.9 46.6 33.7 47 34.5 47.2 35.4 47.2 36.4 47.2 37.3 47.1 38 46.8 38.6 46.5 39.3 46.2 39.8 45.8 40.2 45.4 40.6 45 41 44.6 41.3 44.2 41.6 43.9 42 43.6 42.3 43.3 42.7 43.2 43.1 43.2 43.5L43.2 43.5ZM40.7 41.5C41.1 41.5 41.5 41.4 41.9 41.3 42.3 41.1 42.7 40.9 43 40.6 43.5 40 43.8 39.1 43.8 38 43.8 37.4 43.7 36.8 43.5 36.1 43.4 35.3 43.1 34.7 42.8 34 42.4 33.3 42 32.8 41.4 32.4 40.9 31.9 40.2 31.7 39.6 31.7 39.1 31.7 38.7 31.8 38.3 32 37.8 32.2 37.5 32.5 37.2 32.8 36.7 33.5 36.5 34.3 36.5 35.4 36.5 35.9 36.5 36.4 36.6 36.9 36.7 37.5 36.9 38 37.1 38.6 37.4 39.1 37.6 39.6 38 40 38.3 40.5 38.7 40.8 39.1 41.1 39.6 41.4 40.1 41.5 40.7 41.5L40.7 41.5ZM40.7 56.4C41.3 56.4 41.9 56.3 42.5 56.2 43.1 56 43.6 55.8 44.1 55.5 44.6 55.3 45 54.9 45.3 54.4 45.6 53.9 45.7 53.3 45.7 52.6 45.7 52.4 45.7 52.1 45.6 51.8 45.5 51.6 45.5 51.4 45.4 51.2 45.3 51 45.2 50.7 44.9 50.5 44.7 50.2 44.6 50.1 44.5 49.9 44.4 49.8 44.2 49.6 43.9 49.4 43.5 49.1 43.4 49 43.3 48.9 43.2 48.8 43 48.7 42.6 48.4 42.2 48.2 42 48 42 48 41.8 48 41.6 48 41.2 48 40.7 48 40.1 48 39.6 48.1 39 48.2 38.4 48.3 37.8 48.5 37.2 48.7 36.7 48.9 36.3 49.2 35.8 49.5 35.5 49.9 35.2 50.4 34.9 50.9 34.7 51.5 34.7 52.1 34.7 52.9 34.9 53.5 35.3 54.1 35.7 54.7 36.2 55.1 36.8 55.4 37.4 55.8 38 56 38.7 56.2 39.3 56.3 40 56.4 40.7 56.4L40.7 56.4ZM54.5 41.8L58.1 41.8 58.1 43.6 54.5 43.6 54.5 47.3 52.7 47.3 52.7 43.6 49.1 43.6 49.1 41.8 52.7 41.8 52.7 38.1 54.5 38.1 54.5 41.8Z" fill="#262626"/></g></g></g></symbol>
        <symbol id="icon-meetup" viewBox="0 0 75 67"><path fill="currentColor" fill-rule="nonzero" d="M59.33 41.746c.005 5.458-3.927 10.16-9.275 11.084-.673.116-1.353.184-2.037.178-.23-.003-.32.09-.393.3-1.068 3.064-3.199 4.89-6.417 5.351-2.13.304-4.062-.266-5.755-1.597-.236-.185-.38-.188-.626-.013-1.981 1.417-4.202 2.044-6.628 1.897-4.733-.285-8.715-3.901-9.46-8.563-.051-.323-.106-.647-.11-.972-.006-.27-.108-.374-.366-.425a9.024 9.024 0 0 1-3.88-1.767c-2.112-1.652-3.379-3.809-3.674-6.477-.336-3.055.608-5.695 2.757-7.896.174-.176.184-.3.066-.507a8.565 8.565 0 0 1-1.154-4.66c.158-4.133 3.036-7.548 7.039-8.393.463-.099.706-.28.91-.719 1.973-4.251 5.288-6.837 9.888-7.69 3.23-.598 6.275.043 9.102 1.705.238.14.437.151.694.076 4.49-1.302 8.468-.355 11.845 2.855 1.997 1.898 3.091 4.3 3.415 7.04.071.598.104 1.203.058 1.805-.017.228.053.323.269.403 2.024.749 3.42 2.145 4.03 4.21.76 2.57.121 4.823-1.8 6.696-.166.162-.13.262-.036.424 1.015 1.748 1.54 3.63 1.538 5.655Zm-20.032-.877c.001 2.323 1.493 4.375 3.608 5.073 1.06.35 2.154.516 3.264.564.792.035 1.583-.02 2.315-.386.576-.287.847-.761.821-1.393-.026-.637-.311-1.113-.92-1.366a3.063 3.063 0 0 0-.652-.199c-.671-.12-1.346-.22-2.015-.353-1.103-.22-1.565-.803-1.58-1.918-.013-.986.255-1.916.558-2.837.556-1.684 1.305-3.29 2.022-4.909.693-1.563 1.42-3.113 1.908-4.76.27-.904.399-1.81.154-2.745-.373-1.42-1.224-2.37-2.692-2.644-1.343-.25-2.68-.279-3.895.522-.404.265-.792.202-1.143-.107-.267-.236-.522-.485-.785-.726-1.239-1.144-2.877-1.2-4.207-.156-.537.422-.989.944-1.572 1.31-.52.328-1.046.42-1.623.113-.55-.293-1.119-.551-1.686-.808-.575-.26-1.132-.58-1.78-.635-2.046-.174-4.188 1.042-5.091 2.89-.401.818-.728 1.668-1.038 2.523-1.433 3.953-2.6 7.991-3.807 12.015-.54 1.801.098 3.574 1.623 4.546 1.19.759 2.494.946 3.844.54 1.093-.328 1.692-1.208 2.11-2.196 1.39-3.277 2.643-6.611 3.968-9.915.365-.91.718-1.822 1.105-2.721.391-.908 1.514-1.218 2.18-.616.406.368.514.857.474 1.38-.044.56-.26 1.076-.464 1.59-.863 2.178-1.741 4.351-2.607 6.53-.176.44-.365.876-.443 1.349-.132.812.19 1.531.853 1.817.678.293 1.381.341 2.084.087.817-.297 1.306-.936 1.682-1.675 1.293-2.538 2.576-5.082 3.868-7.62.597-1.173 1.205-2.34 1.814-3.506.227-.432.492-.841.916-1.11.382-.241.793-.26 1.185-.04.382.215.408.605.392.991-.009.207-.067.41-.147.603-.167.401-.324.808-.51 1.201-1.074 2.26-2.165 4.511-3.23 6.776-.45.956-.917 1.916-.861 2.921Zm15.075 16.655c.002-1.5-1.255-2.753-2.767-2.757a2.791 2.791 0 0 0-2.813 2.771c-.007 1.503 1.272 2.778 2.784 2.78a2.807 2.807 0 0 0 2.796-2.794ZM7.632 34.552c1.458.004 2.685-1.215 2.68-2.66a2.683 2.683 0 0 0-2.654-2.65A2.633 2.633 0 0 0 5 31.897a2.643 2.643 0 0 0 2.632 2.655Zm32.653-29.71c-1.466-.009-2.66 1.162-2.669 2.614-.009 1.45 1.182 2.642 2.64 2.643a2.611 2.611 0 0 0 2.622-2.615c.003-1.46-1.15-2.635-2.593-2.643Zm21.578 16.434c-.007-1.204-1.034-2.227-2.243-2.236-1.234-.008-2.28 1.034-2.271 2.265a2.233 2.233 0 0 0 2.241 2.215c1.273.002 2.28-.992 2.273-2.244Zm-46.23-6.427c0 1.13.88 2.017 2.003 2.019 1.138.001 2.02-.89 2.017-2.037a1.973 1.973 0 0 0-2.006-1.98c-1.151.003-2.014.858-2.015 1.998ZM36.68 61.472c.01-.941-.765-1.717-1.718-1.72-.978-.003-1.746.754-1.744 1.719a1.707 1.707 0 0 0 1.728 1.704c.96.001 1.726-.75 1.734-1.703ZM63.558 34.72c-.915-.007-1.71.787-1.702 1.701.008.903.762 1.645 1.676 1.646.957.002 1.675-.703 1.678-1.648.002-.936-.733-1.692-1.652-1.699ZM23.36 3.175a1.397 1.397 0 0 0-1.43 1.416c0 .797.63 1.417 1.435 1.413a1.398 1.398 0 0 0 1.396-1.42c0-.798-.603-1.405-1.401-1.409ZM66.75 27.12c-.658-.007-1.254.581-1.262 1.248-.009.689.565 1.263 1.265 1.264A1.228 1.228 0 0 0 68 28.395a1.258 1.258 0 0 0-1.249-1.276ZM16.945 51.947c.003-.668-.573-1.242-1.251-1.249-.687-.005-1.253.572-1.248 1.276.006.686.564 1.23 1.258 1.224a1.255 1.255 0 0 0 1.24-1.251Z"/></symbol>
        <symbol id="icon-twitter" viewBox="0 0 75 67"><path fill="currentColor" fill-rule="evenodd" d="M64 33.528c-1.934.33-4.744-.01-6.229-.63 3.09-.257 5.184-1.671 5.99-3.581-1.113.693-4.578 1.442-6.48.73-.096-.46-.202-.886-.307-1.272-1.449-5.354-6.435-9.675-11.656-9.152.422-.174.853-.33 1.28-.473.572-.207 3.95-.758 3.414-1.951-.45-1.052-4.57.794-5.345 1.033 1.023-.39 2.718-1.047 2.897-2.232-1.563.22-3.103.96-4.294 2.043.43-.459.756-1.028.825-1.634-4.19 2.681-6.637 8.086-8.608 13.33-1.554-1.51-2.933-2.704-4.17-3.366-3.461-1.855-7.61-3.797-14.108-6.226-.207 2.153 1.063 5.032 4.702 6.938-.788-.106-2.232.129-3.382.404.472 2.475 2.003 4.51 6.155 5.492-1.897.129-2.878.56-3.767 1.493.866 1.722 2.979 3.747 6.765 3.329-4.217 1.823-1.72 5.207 1.718 4.707-5.857 6.066-15.097 5.616-20.4.541 13.85 18.924 43.954 11.191 48.441-7.04 3.364.028 5.34-1.16 6.559-2.483"/></symbol>
        <symbol id="icon-facebook" viewBox="0 0 75 67"><path fill="currentColor" fill-rule="nonzero" d="M37 11c12.65 0 23 10.176 23 22.613C60 44.807 51.72 54.078 40.795 56l-.098-.076.213-.037V39.945h5.06l1.035-6.332H40.91v-4.41c0-1.809.69-3.165 3.45-3.165h2.99V20.27c-1.61-.226-3.45-.452-5.06-.452-5.29 0-8.97 3.166-8.97 8.82v4.974h-5.75v6.332h5.75v15.942l.022.003-.137.11C22.28 54.078 14 44.807 14 33.613 14 21.176 24.35 11 37 11Z"/></symbol>
        <symbol id="icon-mastodon" viewBox="0 0 75 67"><path fill="currentColor" fill-rule="nonzero" d="M36.584 11c6.442.051 12.643.73 16.253 2.342 0 0 7.162 3.116 7.162 13.745v.109l.001.06v.478c-.005 1.987-.099 8.135-1 12.641-.69 3.457-6.188 7.24-12.501 7.972-3.292.382-6.534.734-9.99.58-5.653-.252-10.113-1.313-10.113-1.313 0 .535.034 1.045.102 1.521.735 5.425 5.531 5.75 10.075 5.902 4.586.152 8.67-1.1 8.67-1.1l.188 4.032-.072.036c-.505.245-3.633 1.666-8.85 1.947-3.151.169-7.064-.077-11.62-1.25-9.884-2.544-11.584-12.789-11.844-23.184-.079-3.086-.03-5.996-.03-8.43 0-10.63 7.162-13.746 7.162-13.746 3.61-1.613 9.807-2.29 16.249-2.342h.158Zm7.282 8.306c-2.684 0-4.716 1.002-6.06 3.009L36.5 24.444l-1.306-2.13c-1.343-2.006-3.375-3.008-6.058-3.008-2.32 0-4.188.792-5.615 2.339-1.383 1.546-2.072 3.637-2.072 6.267v12.87h5.244V28.29c0-2.633 1.14-3.97 3.418-3.97 2.52 0 3.783 1.586 3.783 4.721v6.838h5.213v-6.838c0-3.135 1.263-4.72 3.783-4.72 2.279 0 3.418 1.336 3.418 3.97v12.492h5.243v-12.87c0-2.631-.688-4.722-2.071-6.268-1.427-1.547-3.296-2.34-5.614-2.34Z"/></symbol>
        <symbol id="icon-linkedin" viewBox="0 0 75 67"><path fill="currentColor" fill-rule="nonzero" d="M56.675 57C58.51 57 60 55.557 60 53.776V15.224C60 13.444 58.511 12 56.675 12h-38.35C16.49 12 15 13.444 15 15.224v38.552C15 55.556 16.489 57 18.325 57h38.35ZM25.242 26.575h-.044c-2.28 0-3.756-1.56-3.756-3.51 0-1.994 1.52-3.511 3.845-3.511 2.326 0 3.757 1.517 3.8 3.511 0 1.95-1.474 3.51-3.845 3.51ZM39.2 49.67h-6.797V49.44c.005-.957.023-4.77.032-8.835l.002-.764.001-.383.001-.766.002-1.141v-.75l.001-.37V33.648c-.005-2.152-.016-3.797-.04-4.298H39.2l-.001 2.878.039-.06c.882-1.337 2.43-3.176 5.76-3.29l.327-.005c4.472 0 7.825 2.904 7.825 9.145V49.67h-6.796V38.799c0-2.732-.984-4.595-3.443-4.595-1.878 0-2.996 1.257-3.488 2.47-.18.434-.223 1.04-.223 1.648V49.67Zm-10.558 0h-6.797V29.35h6.797v20.32Z"/></symbol>
        <symbol id="map_marker" viewBox="0 0 41 54.327"><path fill="#000" fill-rule="evenodd" d="M20.5 0C31.822 0 41 9.178 41 20.5c0 7.548-6.833 18.824-20.5 33.827C6.833 39.324 0 28.047 0 20.5 0 9.178 9.178 0 20.5 0Zm0 10C14.701 10 10 14.701 10 20.5S14.701 31 20.5 31 31 26.299 31 20.5 26.299 10 20.5 10Z"/></symbol>
    </defs>
</svg>
