<svg style="display:none;">
    <defs>
        
        <symbol id="sd_signet" viewBox="0 0 372 395"><path d="M137.69 12.58c31.295-17.294 64.541-16.59 96.453 1.084l.966.54 89.194 50.4c28.6 16.161 33.242 32.818 12.827 48.763 22.856-8.244 34.633 3.776 34.87 34.47V249.47c0 36.663-15.816 65.581-46.703 83.656l-.941.544-48.924 28.006v-28.131c-7 21.884-21.851 40.639-43.79 53.197-26.7 15.284-42.182 8.72-46.122-14.49-4.259 23.724-19.551 28.976-45.438 14.423l-.787-.447-48.732-27.92v-28.116c-5.509 10.96-15.897 14.367-30.792 9.143l-1.14-.414c-3.637-1.362-7.534-3.224-11.686-5.603C16.13 315.664.318 285.909.005 252.706L0 251.7v-10.707l30.107 17.25v11.897c0 13.68 5.612 24.33 16.584 30.616l.341.193.676.365.665.338c9.008 4.417 14.901.928 14.901-12.808l-.007-1.045-.023-1.03-.038-1.017-.054-1.005-.07-.993-.088-.983a53.103 53.103 0 0 0-.05-.488l-.113-.97c-.02-.162-.042-.323-.064-.483l-.14-.96a48.315 48.315 0 0 0-.246-1.43l-.187-.95a47.381 47.381 0 0 0-.101-.472l-.217-.946a47.55 47.55 0 0 0-.117-.472l-.247-.945c-.086-.315-.176-.63-.27-.945l-.29-.948a50.52 50.52 0 0 0-.152-.475l-.323-.953a54.007 54.007 0 0 0-.526-1.44l-.38-.967-.403-.975-.427-.985-.452-.995-.476-1.006-.501-1.02-.26-.514-.54-1.04-.28-.525-.58-1.064-.3-.538-.62-1.09-.647-1.108-.676-1.13-.704-1.15-.733-1.172-.762-1.196-.792-1.22-.822-1.247-.852-1.273-.884-1.302-.915-1.331-.947-1.362-.979-1.394-1.011-1.426-1.58-2.203-1.656-2.284-2.329-3.177-2.47-3.337c-.54-.726-1.073-1.447-1.6-2.162l-1.556-2.13c-.255-.352-.51-.703-.761-1.052l-1.491-2.082-.73-1.03-1.426-2.037a330.43 330.43 0 0 1-.697-1.008l-1.364-1.993-.666-.987-1.3-1.952a273.87 273.87 0 0 1-.636-.966l-1.24-1.913-1.2-1.887-1.161-1.863-1.122-1.84a181.372 181.372 0 0 1-5.936-10.593l-.862-1.699c-.282-.564-.557-1.124-.827-1.683l-.792-1.667C3.632 176.383.81 163.25.532 149.082l-.02-1.579a123.44 123.44 0 0 1-.003-.793c0-27.744 11.328-40.332 32.953-33.543-19.22-15.117-17.033-32.073 10.206-47.465 22.64-12.793 46.651-15.491 69.558-9.625l.928.243-26.94-15.224 49.518-27.982.958-.535Zm49.061 258.069v76.323l27.986-16.018v11.904l.01.94c.009.461.025.912.047 1.35l.055.863c.01.141.022.281.034.42l.082.815c.046.4.098.789.158 1.166l.127.737c1.617 8.546 7.043 10.51 16.137 5.304 9.989-5.718 16.649-16.373 16.649-30.955l-.002-.522-.015-1.021a60.956 60.956 0 0 0-.013-.499l-.039-.974-.054-.943-.07-.913-.042-.445-.097-.87a32.81 32.81 0 0 0-.177-1.25l-.141-.8c-1.102-5.762-3.706-9.37-8.576-12.008l-.679-.354a32.898 32.898 0 0 0-3.411-1.461l-.84-.3-.872-.292-.903-.285-.934-.278-.967-.273-.999-.268-1.032-.263-1.066-.26-1.1-.257-1.714-.381-1.186-.253-1.846-.377-.633-.126c-.504-.098-1.001-.198-1.492-.302l-1.453-.317c-18.407-4.175-27.475-12.259-30.932-26.557Zm-64.296-74.245v146.22l16.33 9.356c.357.205.708.4 1.053.584l.683.354c.225.114.447.223.667.327l.65.298c7.18 3.178 11.391 1.078 12.632-7.69l.103-.803.088-.838.038-.433.063-.893c.01-.152.018-.306.026-.46l.04-.949c.005-.16.01-.323.013-.487l.016-1.003.002-.516V236.688c0-15.348-5.187-24.49-15.56-30.629l-.515-.3-16.329-9.355Zm218.297 72.17V165.749c0-.347-.003-.687-.008-1.022l-.024-.984c-.01-.323-.024-.639-.04-.948l-.056-.912-.073-.875-.088-.838a31.928 31.928 0 0 0-.104-.803l-.12-.767c-1.24-7.243-4.73-9.507-10.466-7.695l-.601.202a23.05 23.05 0 0 0-1.9.779l-.666.316c-.225.11-.452.225-.682.344l-.698.372-.714.4-16.496 9.442v146.28l16.496-9.443c10.652-6.097 16.064-15.119 16.236-30.273l.004-.75Zm-92.074-43.7v-8.295l-.008-.956-.025-.926-.041-.895a40.28 40.28 0 0 0-.058-.864l-.075-.833a31.597 31.597 0 0 0-.142-1.19l-.116-.756c-1.473-8.753-6.46-10.945-15.25-5.914-9.885 5.658-15.715 15.81-15.715 29.436l.009.948.026.919c.006.15.012.3.02.449l.053.876c.616 8.477 3.938 12.937 11.79 16.049l.814.311.846.304c.143.05.288.099.435.148l.894.292.459.143.943.28.977.275 1.01.27 1.045.264 1.08.26 1.114.256 1.15.253 1.792.376 1.875.372 1.296.247c15.99 2.961 25.235 8.774 30.157 18.589l.247.502v-66.417l-26.602 15.228ZM47.966 152.19a31.59 31.59 0 0 0-.704-.392l-.69-.36a26.32 26.32 0 0 0-.34-.168l-.668-.314c-.11-.05-.22-.097-.329-.144l-.646-.266c-7.142-2.793-11.55.331-12.321 9.892l-.06.873c-.007.149-.015.298-.021.45l-.03.925a44.4 44.4 0 0 0-.008.475l-.002.485c0 .309.002.617.008.923l.024.915.041.907c.033.603.077 1.202.134 1.797l.093.891c.034.296.071.592.112.888l.13.885c.093.589.198 1.177.317 1.766l.188.883c.033.148.067.295.102.442l.218.886c.076.296.156.592.24.89l.26.892.28.897c.098.3.2.602.304.904l.326.91c.112.305.228.611.348.918l.37.928.395.936.418.948.442.96.467.972.492.986.516 1.001.542 1.017.569 1.033.294.523.608 1.06.635 1.08.662 1.1.69 1.121 1.087 1.724.761 1.178.79 1.203 1.24 1.853.864 1.27.894 1.297 1.4 2 1.469 2.07 1.541 2.141 1.615 2.217 2.268 3.08 2.403 3.227 2.066 2.755 1.59 2.141 1.545 2.11 1.5 2.077a290.283 290.283 0 0 1 7.458 10.903l1.218 1.895c7.782 12.236 12.958 22.914 16.234 33.173l.248.788v-66.673l-26.778-15.342v-8.327c0-13.978-5.103-24.335-15.82-30.475Zm174.852 26.084-.7.301c-23.636 10.02-48.488 9.862-71.335 1.112 19.97 15.182 31.742 36.035 35.021 61.199 3.143-24.782 15.75-47.049 37.014-62.612Zm29.249-44.024c7.344 10.874 4.33 22.224-9.97 33.012 16.916-6.918 27.944-2.926 33.157 10.129l.178.453-.001-30.392-23.364-13.202Zm-193.091-7.126.656.508c15.479 12.142 25.682 27.97 30.669 45.978l.262.967v-30.4l38.628 22.132 28.372-16.031 10.544 5.958c12.123 6.85 24.417 7.35 35.564 1.051 7.929-4.48 10.059-9.895 4.383-15.543l-.514-.491a24.532 24.532 0 0 0-2.11-1.729l-.694-.496c-.357-.248-.73-.496-1.118-.744l-.797-.497a43.996 43.996 0 0 0-.414-.249l-.86-.497-.698-.39-.695-.378-1.152-.605-1.148-.574-1.145-.543-.229-.105-.916-.407-.917-.388-.92-.37a50.552 50.552 0 0 0-2.166-.788l-1.096-.357-.948-.287c-5.479-1.595-11.434-2.305-18.931-2.31l-.987.002-1.685.023-1.737.044-.71.024-1.448.057-1.484.071-1.523.084-1.562.096-1.603.109-1.645.12-1.688.134-1.733.145-1.778.157-1.825.169-1.874.18-1.923.19-1.974.202-3.058.323-5.91.64-2.536.26-2.491.24-2.448.22c-.404.036-.806.07-1.207.104l-2.382.191c-.394.03-.786.06-1.176.088l-2.32.162-2.278.143-2.239.123-1.104.054-2.18.093c-.721.028-1.435.053-2.143.074l-2.106.055c-7.305.156-13.948-.049-20.093-.615l-1.742-.172a127.063 127.063 0 0 1-5.897-.756l-1.632-.26-1.609-.28a108.667 108.667 0 0 1-5.468-1.137l-1.519-.37c-.252-.063-.502-.127-.753-.192l-1.493-.399a99.368 99.368 0 0 1-8.647-2.81Zm145.208-95.107c-13.508-7.682-24.173-7.793-34.813-1.938l-.523.293-16.477 9.37 128.686 73.184 16.83-9.574.682-.405c.222-.135.438-.27.65-.406l.618-.406c.1-.067.2-.135.297-.203l.57-.406c.186-.136.365-.271.539-.407l.506-.408.473-.408c4.035-3.61 4.233-7.315.008-11.449l-.497-.47-.535-.474a30.32 30.32 0 0 0-2.175-1.689l-.709-.492a43.574 43.574 0 0 0-.368-.247l-.767-.499a53.21 53.21 0 0 0-.807-.503l-.845-.508-.886-.512-90.457-51.443ZM142.85 74.775 115.926 90.05l-7.302-4.143c-12.257-6.953-23.905-7.741-34.68-1.628-.358.202-.702.406-1.033.612l-.646.412-.611.416c-6.726 4.734-6.733 10.116.93 15.606l.696.484c.358.243.731.486 1.12.728l.796.486.836.486.61.341.611.331.816.425c.544.278 1.09.544 1.638.797l.826.373.831.354c6.607 2.741 13.836 3.861 24.05 3.734l.966-.016 1.33-.032 1.364-.046 1.754-.074 1.81-.095 2.248-.139 1.547-.107 3.216-.252 2.522-.219 1.735-.16 1.78-.172 1.826-.182 1.873-.194 2.899-.31 3.01-.334 4.483-.513 2.678-.295 2.626-.272c.867-.087 1.725-.17 2.576-.249l2.526-.226 2.478-.202c.818-.064 1.628-.124 2.43-.18l2.385-.157a268.93 268.93 0 0 1 2.34-.133l2.296-.11 2.253-.088c14.136-.483 25.764.414 36.135 2.656l.816.18-58.465-33.168Z" fill="currentColor" fill-rule="nonzero"/></symbol>
        <symbol id="sd_full-logo" viewBox="0 0 303 85"><g fill="none" fill-rule="evenodd"><g fill="currentColor"><path d="M108 49.1v-1.35h4.365v1.5c0 1.725.813 2.662 2.404 2.662 1.442 0 2.404-.862 2.404-2.7 0-2.212-.888-3.15-3.958-5.212-3.92-2.625-5.141-4.838-5.141-8.175 0-4.2 2.367-6.825 6.843-6.825 4.475 0 6.694 2.625 6.694 6.9v.938h-4.364v-1.05c0-1.763-.74-2.7-2.293-2.7-1.443 0-2.293.862-2.293 2.587 0 1.95.961 2.925 4.031 4.95 3.995 2.625 5.104 4.875 5.104 8.362 0 4.35-2.44 7.013-6.99 7.013-4.513 0-6.806-2.663-6.806-6.9M124.385 48.912V29.375h4.624v19.837c0 1.838.814 2.625 2.33 2.625 1.517 0 2.367-.787 2.367-2.625V29.375h4.439v19.537c0 4.463-2.367 7.088-6.88 7.088-4.55 0-6.88-2.625-6.88-7.088M141.215 48.95V36.088c0-4.5 2.441-7.088 6.88-7.088 4.4 0 6.88 2.588 6.88 7.088v1.875h-4.365v-2.1c0-1.838-.888-2.7-2.404-2.7-1.517 0-2.368.862-2.368 2.7v13.274c0 1.838.851 2.7 2.368 2.7 1.516 0 2.404-.862 2.404-2.7v-4.162h-2.293V40.7h6.657v8.25c0 4.462-2.478 7.05-6.88 7.05-4.438 0-6.88-2.588-6.88-7.05M166.478 46.625l-1.96-12.487-1.961 12.487h3.92Zm.665 4.05h-5.252l-.777 4.95h-4.327l4.771-26.25h6.251l4.808 26.25h-4.697l-.777-4.95ZM181.273 40.587c1.812 0 2.737-.787 2.737-2.85V36.2c0-1.837-.703-2.662-2.293-2.662h-2.146v7.05h1.702Zm-6.325-11.212h6.842c4.698 0 6.843 2.063 6.843 6.338v1.312c0 2.737-.961 4.463-2.996 5.288v.112c2.183.638 3.033 2.587 3.033 5.925v3.862c0 1.35.074 2.363.518 3.413h-4.697c-.26-.713-.407-1.088-.407-3.45V48.05c0-2.475-.777-3.3-2.922-3.3h-1.59v10.875h-4.624v-26.25ZM205.278 51.462c1.553 0 2.33-.75 2.33-2.662V36.2c0-1.912-.777-2.662-2.33-2.662h-2.367v17.924h2.367Zm-6.99-22.087h7.064c4.55 0 6.88 2.438 6.88 6.938V48.65c0 4.537-2.33 6.975-6.88 6.975h-7.065v-26.25ZM223.735 46.625l-1.96-12.487-1.96 12.487h3.92Zm.666 4.05h-5.252l-.777 4.95h-4.327l4.771-26.25h6.251l4.808 26.25h-4.697l-.777-4.95ZM239.196 51.462c1.554 0 2.33-.75 2.33-2.662V36.2c0-1.912-.776-2.662-2.33-2.662h-2.367v17.924h2.367Zm-6.99-22.087h7.064c4.55 0 6.88 2.438 6.88 6.938V48.65c0 4.537-2.33 6.975-6.88 6.975h-7.064v-26.25ZM256.322 51.462c1.553 0 2.33-.75 2.33-2.662V36.2c0-1.912-.777-2.662-2.33-2.662h-2.367v17.924h2.367Zm-6.991-22.087h7.065c4.55 0 6.88 2.438 6.88 6.938V48.65c0 4.537-2.33 6.975-6.88 6.975h-7.065v-26.25ZM266.457 55.625h4.623v-26.25h-4.623zM274.631 29.375h12.613v4.163h-7.99v6.487h6.362v4.162h-6.362v7.275h7.99v4.163h-12.613v-26.25M289.204 49.1v-1.35h4.364v1.5c0 1.725.814 2.662 2.405 2.662 1.442 0 2.404-.862 2.404-2.7 0-2.212-.888-3.15-3.958-5.212-3.92-2.625-5.141-4.838-5.141-8.175 0-4.2 2.367-6.825 6.842-6.825 4.476 0 6.695 2.625 6.695 6.9v.938h-4.364v-1.05c0-1.763-.74-2.7-2.294-2.7-1.442 0-2.293.862-2.293 2.587 0 1.95.962 2.925 4.032 4.95C301.89 43.25 303 45.5 303 48.987c0 4.35-2.441 7.013-6.99 7.013-4.513 0-6.806-2.663-6.806-6.9"/></g><path d="M29.61 2.707c6.73-3.722 13.88-3.57 20.743.233l.208.117 19.182 10.845c6.15 3.478 7.148 7.062 2.758 10.493 4.915-1.774 7.448.813 7.499 7.418V53.684c0 7.89-3.401 14.112-10.044 18.002l-.202.117-10.521 6.026v-6.053c-1.506 4.709-4.7 8.745-9.418 11.447-5.742 3.29-9.07 1.877-9.918-3.118-.916 5.105-4.205 6.236-9.772 3.104l-.17-.096-10.48-6.009v-6.05c-1.184 2.359-3.418 3.092-6.621 1.968l-.245-.09a17.318 17.318 0 0 1-2.513-1.205C3.469 67.927.068 61.525 0 54.38L0 54.163V51.86l6.475 3.712v2.56c0 2.944 1.207 5.236 3.566 6.588l.073.042.146.079.143.072c1.937.95 3.204.2 3.204-2.756l-.001-.225-.005-.221-.008-.22-.012-.215-.015-.214-.019-.212-.01-.105-.025-.209a10.88 10.88 0 0 0-.014-.103l-.03-.207a10.403 10.403 0 0 0-.053-.308l-.04-.204a10.203 10.203 0 0 0-.022-.102l-.046-.203a10.237 10.237 0 0 0-.025-.102l-.054-.203a10.453 10.453 0 0 0-.057-.204l-.063-.204-.033-.102-.07-.205a11.626 11.626 0 0 0-.112-.31l-.082-.208-.087-.21-.092-.212-.097-.214-.102-.216-.108-.22a17.214 17.214 0 0 0-.056-.11l-.116-.224-.06-.113-.125-.229a21.625 21.625 0 0 0-.064-.116l-.134-.234-.139-.239-.145-.243-.152-.247-.157-.253-.164-.257-.17-.263-.177-.268-.183-.274-.19-.28-.197-.287-.204-.293-.21-.3-.218-.306-.34-.474-.356-.492-.5-.684-.532-.718a96.818 96.818 0 0 1-.344-.465l-.335-.458c-.055-.076-.11-.151-.163-.227l-.32-.448a78.284 78.284 0 0 1-.158-.221l-.307-.439-.15-.216-.293-.43a64.64 64.64 0 0 1-.143-.212l-.28-.42-.136-.208-.267-.411-.258-.406-.25-.401-.241-.396a39.036 39.036 0 0 1-1.277-2.28l-.185-.365c-.06-.122-.12-.242-.178-.363l-.17-.358C.78 37.956.174 35.13.114 32.08l-.004-.339v-.17c0-5.97 2.436-8.68 7.086-7.219-4.133-3.253-3.663-6.901 2.195-10.214 4.869-2.753 10.033-3.333 14.959-2.07l.2.051-5.794-3.276 10.649-6.02.206-.116Zm10.552 55.534v16.424l6.018-3.447v2.562l.002.202c.002.1.005.196.01.29l.012.186.007.09.018.176c.01.086.021.17.034.25l.027.16c.348 1.838 1.515 2.26 3.47 1.14 2.149-1.23 3.581-3.523 3.581-6.66V69.5l-.004-.22-.002-.107-.009-.21-.011-.202-.016-.197a8.763 8.763 0 0 0-.009-.096l-.02-.187a7.065 7.065 0 0 0-.038-.269l-.03-.172c-.238-1.24-.798-2.016-1.845-2.584l-.146-.076a7.073 7.073 0 0 0-.734-.315l-.18-.064-.188-.063-.194-.061-.2-.06-.209-.059-.215-.058-.222-.056-.229-.056-.236-.055-.369-.082-.255-.055-.397-.08-.136-.028a21.861 21.861 0 0 1-.32-.065l-.313-.068c-3.959-.899-5.909-2.638-6.652-5.715ZM26.334 42.264V73.73l3.512 2.014c.077.044.152.086.227.125l.147.076c.048.025.096.048.143.07l.14.065c1.544.684 2.45.232 2.716-1.655l.023-.173.018-.18.008-.093.014-.193.006-.099.008-.204.003-.104.004-.216V50.933c0-3.303-1.115-5.27-3.346-6.591l-.11-.065-3.513-2.013Zm46.946 15.53V35.668c0-.075 0-.148-.002-.22l-.005-.212c-.002-.07-.005-.138-.009-.204l-.012-.196-.015-.189-.02-.18a6.875 6.875 0 0 0-.022-.173l-.025-.165c-.267-1.558-1.017-2.046-2.251-1.656l-.13.044a4.955 4.955 0 0 0-.408.167l-.143.068a7.102 7.102 0 0 0-.147.074l-.15.08-.153.086-3.548 2.032v31.478l3.548-2.032c2.29-1.312 3.454-3.253 3.491-6.514l.001-.162Zm-19.8-9.403v-1.785l-.003-.206-.005-.2-.009-.192a8.673 8.673 0 0 0-.012-.186l-.016-.179a6.803 6.803 0 0 0-.031-.256l-.025-.163c-.317-1.883-1.39-2.355-3.28-1.273-2.125 1.218-3.379 3.402-3.379 6.335l.002.204.005.198.005.096.011.189c.133 1.824.847 2.784 2.536 3.453l.175.067.182.066.093.031.192.063.1.031.202.06.21.06.217.057.225.057.232.056.24.055.247.055.386.08.403.08.278.054c3.44.637 5.427 1.888 6.486 4l.053.108V45.114l-5.72 3.277ZM10.314 32.75a6.793 6.793 0 0 0-.151-.085l-.148-.077a5.658 5.658 0 0 0-.073-.036l-.144-.068a4.818 4.818 0 0 0-.071-.03l-.14-.058c-1.535-.601-2.483.071-2.649 2.129l-.012.188a8.192 8.192 0 0 0-.005.096l-.007.2-.001.102v.104l.001.199.005.196.01.196c.006.13.016.258.028.386l.02.192c.007.064.015.128.024.191l.028.19c.02.127.043.254.068.38l.04.19.022.096.047.19.052.192.056.192.06.193.065.194.07.196.075.198.08.2.085.201.09.204.095.206.1.21.106.212.111.215.117.22.122.221c.02.038.042.075.063.113l.13.228.137.233.143.236.148.241.234.371.164.254.17.259.266.399.186.273.192.279.301.43.316.446.332.46.347.478.488.662.517.695.444.593.342.46.332.454.322.447a62.468 62.468 0 0 1 1.604 2.346l.262.408c1.674 2.633 2.787 4.931 3.491 7.139l.054.17V44.4L13.717 41.1v-1.792c0-3.008-1.097-5.237-3.402-6.558Zm37.603 5.613-.15.065c-5.084 2.156-10.428 2.122-15.342.239 4.295 3.267 6.827 7.754 7.532 13.17.676-5.334 3.387-10.125 7.96-13.474Zm6.29-9.474c1.58 2.34.931 4.783-2.144 7.104 3.638-1.489 6.01-.63 7.13 2.18l.039.097v-6.54l-5.025-2.84Zm-41.525-1.533.141.11c3.329 2.612 5.523 6.018 6.595 9.893l.057.208v-6.542l8.307 4.763 6.102-3.45 2.267 1.282c2.607 1.474 5.251 1.582 7.648.227 1.705-.965 2.163-2.13.943-3.345l-.11-.106a5.276 5.276 0 0 0-.455-.372l-.149-.106a7.7 7.7 0 0 0-.24-.16l-.172-.108a9.46 9.46 0 0 0-.089-.053l-.184-.107-.15-.084-.15-.081-.248-.13-.247-.124-.246-.117-.05-.022-.196-.088-.197-.084-.198-.08c-.155-.06-.31-.116-.466-.169l-.236-.077-.204-.061c-1.178-.344-2.459-.496-4.07-.498l-.213.001-.362.005-.374.01-.153.005-.311.012-.32.015-.327.018-.336.02-.344.024-.354.026-.363.029-.373.031-.382.034-.393.036-.403.039-.413.041-.425.043-.657.07-1.271.138-.546.056-.536.051-.526.048-.26.022-.512.041a73 73 0 0 1-.253.019l-.498.035-.49.03-.482.027-.237.012-.47.02-.46.016-.453.011c-1.571.034-3-.01-4.321-.132l-.375-.037c-.433-.045-.856-.1-1.268-.163l-.35-.056-.347-.06c-.4-.073-.792-.154-1.176-.245l-.326-.079a22.108 22.108 0 0 1-.162-.041l-.321-.086a21.36 21.36 0 0 1-1.86-.605ZM43.91 6.89c-2.904-1.653-5.198-1.677-7.486-.417l-.113.063-3.543 2.016L60.442 24.3l3.62-2.06.146-.087a7.47 7.47 0 0 0 .14-.087l.133-.088a6.08 6.08 0 0 0 .064-.043l.123-.088c.04-.029.078-.058.115-.087l.11-.088.1-.088c.869-.776.911-1.574.003-2.464l-.107-.1-.115-.103a6.521 6.521 0 0 0-.468-.363l-.152-.106a9.367 9.367 0 0 0-.08-.053l-.165-.107a11.443 11.443 0 0 0-.173-.109l-.182-.109-.19-.11L43.91 6.89Zm-13.19 9.2-5.79 3.288-1.57-.892c-2.636-1.496-5.14-1.666-7.458-.35-.077.044-.151.087-.222.132l-.14.088-.13.09c-1.447 1.019-1.449 2.177.2 3.358l.15.104c.076.053.156.105.24.157l.171.105.18.104.131.073.132.072.175.091c.117.06.234.117.352.172l.178.08.179.076c1.42.59 2.975.831 5.172.804l.208-.004.286-.007.293-.01.377-.016.39-.02.483-.03.332-.023.692-.054.542-.047.373-.035.383-.037.393-.039.403-.042.623-.066.647-.072.965-.11.575-.064.565-.059.554-.053.543-.049.533-.043.523-.039.513-.034c.17-.01.337-.02.503-.028l.494-.024.484-.02c3.04-.103 5.54.09 7.771.573l.176.038-12.573-7.137Z" fill="#FFE000" fill-rule="nonzero"/></g></symbol>
        <symbol id="icon-chevron" viewBox="0 0 12 20"><g stroke="currentColor" stroke-width="2.5" fill="none" fill-rule="evenodd" stroke-linecap="square"><path d="M2.5 2.5l7.51 7.51M10.01 10.01L2.5 17.52"/></g></symbol>
        
        <symbol id="icon_insta" viewBox="0 0 47 47" ><path d="M27.95 27.95C29.315 26.581 30 24.931 30 23c0-1.932-.684-3.582-2.05-4.95C26.581 16.685 24.931 16 23 16c-1.932 0-3.582.684-4.95 2.05C16.685 19.419 16 21.069 16 23c0 1.932.684 3.582 2.05 4.95C19.419 29.315 21.069 30 23 30c1.932 0 3.582-.684 4.95-2.05Zm2.679-12.579c2.096 2.096 3.144 4.64 3.144 7.629 0 2.99-1.048 5.533-3.144 7.629-2.096 2.096-4.64 3.144-7.629 3.144-2.99 0-5.533-1.048-7.629-3.144-2.096-2.096-3.144-4.64-3.144-7.629 0-2.99 1.048-5.533 3.144-7.629 2.096-2.096 4.64-3.144 7.629-3.144 2.99 0 5.533 1.048 7.629 3.144Zm5.36-5.36c.491.493.738 1.085.738 1.778 0 .693-.247 1.285-.739 1.777a2.423 2.423 0 0 1-1.777.739 2.423 2.423 0 0 1-1.777-.739 2.423 2.423 0 0 1-.739-1.777c0-.693.246-1.285.739-1.777a2.423 2.423 0 0 1 1.777-.739c.693 0 1.285.247 1.777.739Zm-10.91-4.238H23c-.128 0-.825-.004-2.092-.013-1.267-.01-2.228-.01-2.885 0a101.3 101.3 0 0 0-2.638.082c-1.103.045-2.042.137-2.817.273-.774.137-1.426.306-1.955.506a7.094 7.094 0 0 0-2.406 1.586 7.094 7.094 0 0 0-1.586 2.406c-.2.529-.369 1.18-.506 1.955-.136.775-.228 1.714-.273 2.817a101.3 101.3 0 0 0-.082 2.638c-.01.657-.01 1.618 0 2.885.009 1.267.013 1.964.013 2.092 0 .128-.004.825-.013 2.092-.01 1.267-.01 2.228 0 2.885.009.656.036 1.535.082 2.638.045 1.103.137 2.042.273 2.817.137.774.306 1.426.506 1.955a7.094 7.094 0 0 0 1.586 2.406 7.094 7.094 0 0 0 2.406 1.586c.529.2 1.18.369 1.955.506.775.136 1.714.228 2.817.273a101.3 101.3 0 0 0 2.638.082c.657.01 1.618.01 2.885 0A728.53 728.53 0 0 1 23 40.227c.128 0 .825.004 2.092.013 1.267.01 2.228.01 2.885 0a101.3 101.3 0 0 0 2.638-.082c1.103-.045 2.042-.137 2.817-.273.774-.137 1.426-.306 1.955-.506a7.094 7.094 0 0 0 2.406-1.586 7.094 7.094 0 0 0 1.586-2.406c.2-.529.369-1.18.506-1.955.136-.775.228-1.714.273-2.817a101.3 101.3 0 0 0 .082-2.638c.01-.657.01-1.618 0-2.885-.009-1.267-.013-1.964-.013-2.092 0-.128.004-.825.013-2.092.01-1.267.01-2.228 0-2.885a101.3 101.3 0 0 0-.082-2.638c-.045-1.103-.137-2.042-.273-2.817-.137-.774-.306-1.426-.506-1.955a7.094 7.094 0 0 0-1.586-2.406 7.094 7.094 0 0 0-2.406-1.586c-.529-.2-1.18-.369-1.955-.506-.775-.136-1.714-.228-2.817-.273a101.3 101.3 0 0 0-2.638-.082 111.73 111.73 0 0 0-2.899.013Zm18.784 8.559C43.954 15.936 44 18.825 44 23c0 4.175-.046 7.064-.137 8.668-.182 3.792-1.312 6.727-3.39 8.805-2.078 2.078-5.013 3.208-8.805 3.39-1.604.091-4.493.137-8.668.137-4.175 0-7.064-.046-8.668-.137-3.792-.182-6.727-1.312-8.805-3.39-2.078-2.078-3.208-5.013-3.39-8.805C2.046 30.064 2 27.175 2 23c0-4.175.046-7.064.137-8.668.182-3.792 1.312-6.727 3.39-8.805 2.078-2.078 5.013-3.208 8.805-3.39C15.936 2.046 18.825 2 23 2c4.175 0 7.064.046 8.668.137 3.792.182 6.727 1.312 8.805 3.39 2.078 2.078 3.208 5.013 3.39 8.805Z" fill="currentColor" fill-rule="nonzero"/></symbol>
        <symbol id="icon_xing" viewBox="0 0 47 47"><path d="M36.144 43.514c.362 0 .618-.136.77-.408.15-.271.135-.558-.046-.86l-8.236-15.115L41.665 4.233a.957.957 0 0 0-.045-.86c-.151-.272-.408-.407-.77-.407h-5.973c-.604 0-1.116.362-1.539 1.086l-13.124 23.08 8.327 15.295c.423.725.996 1.087 1.72 1.087h5.883ZM13.788 31.385c.604 0 1.147-.362 1.63-1.086l3.982-7.06a439.79 439.79 0 0 0 2.353-4.163l-4.073-6.97c-.422-.783-.965-1.176-1.63-1.176h-5.882c-.362 0-.634.136-.815.408-.18.271-.18.558 0 .86l3.983 6.878L7.09 30.118a.957.957 0 0 0 .045.86c.15.272.407.407.77.407h5.882Z" fill="currentColor" fill-rule="nonzero"/></symbol>
        <symbol id="icon_tiktok" viewBox="0 0 47 47"><path d="M31.947 2c.133 2.679 1.057 5.408 2.937 7.302 1.878 1.941 4.533 2.83 7.116 3.13v7.047c-2.42-.082-4.853-.607-7.05-1.694-.957-.452-1.848-1.033-2.72-1.628-.012 5.114.02 10.221-.032 15.314-.131 2.447-.905 4.882-2.27 6.898-2.196 3.356-6.006 5.544-9.92 5.612-2.401.143-4.8-.54-6.845-1.797-3.39-2.084-5.776-5.9-6.124-9.995-.04-.875-.054-1.75-.02-2.604.302-3.33 1.882-6.516 4.335-8.683 2.78-2.524 6.673-3.726 10.32-3.015.033 2.593-.066 5.182-.066 7.775-1.666-.562-3.612-.405-5.067.65-1.063.717-1.87 1.817-2.29 3.062-.348.887-.248 1.873-.228 2.815.399 2.872 3.048 5.286 5.875 5.025 1.875-.021 3.671-1.155 4.648-2.816.316-.581.67-1.176.689-1.86.165-3.13.1-6.248.12-9.378.013-7.055-.02-14.09.03-21.123C27.582 2 29.766 2.02 31.948 2Z" fill="currentColor" fill-rule="nonzero"/></symbol>
        <symbol id="icon_linkedin" viewBox="0 0 47 47"><path d="M41.652 43.514c.784 0 1.463-.287 2.036-.86s.86-1.252.86-2.037V5.862c0-.785-.287-1.463-.86-2.037-.573-.573-1.252-.86-2.036-.86H6.896c-.784 0-1.463.287-2.036.86C4.287 4.4 4 5.077 4 5.862v34.755c0 .785.287 1.464.86 2.037s1.252.86 2.036.86h34.756Zm-28.42-27.787c-.966 0-1.78-.347-2.444-1.04-.664-.694-.995-1.509-.995-2.444 0-.936.331-1.75.995-2.444.664-.694 1.478-1.04 2.444-1.04.965 0 1.795.346 2.489 1.04.694.694 1.04 1.508 1.04 2.444 0 .935-.346 1.75-1.04 2.443-.694.694-1.524 1.041-2.49 1.041Zm12.762 21.994H20.02V18.352h5.793v2.625h.09c.423-.845 1.086-1.539 1.991-2.082 1.087-.664 2.323-.995 3.711-.995 2.776 0 4.737.874 5.883 2.624.845 1.388 1.267 3.59 1.267 6.607v10.59h-5.973v-9.413c0-1.569-.151-2.715-.453-3.44-.422-1.146-1.327-1.719-2.715-1.719s-2.383.513-2.987 1.539c-.422.784-.633 1.93-.633 3.439v9.594Zm-9.685 0h-6.064V18.352h6.064v19.369Z" fill="currentColor" fill-rule="nonzero"/></symbol>
        <symbol id="icon_arrow" viewBox="0 0 35 35" ><path d="m25.708 19.528-7.136 5.465c-.746.57-.74 1.79-.148 2.456.662.748 1.71.722 2.457.15l11.215-8.59c.994-.76.586-2.078-.191-2.753l-9.939-8.633c-.71-.617-1.942-.224-2.414.488-.575.869-.224 1.794.49 2.413 2.17 1.887 4.343 3.773 6.515 5.66a63.105 63.105 0 0 1-3.776.139c-4.513.06-9.212-.241-13.767-.19-6.373.072-8.026 2.61-1.36 2.873 4.997.196 10.03.548 14.943.57 1.037.004 2.074-.01 3.11-.048Z" fill="currentColor" fill-rule="evenodd"/></symbol>
        <symbol id="icon_close" viewBox="0 0 21 24" ><g stroke="currentColor" stroke-width="4" fill="none" fill-rule="evenodd" stroke-linecap="round"><path d="M2 2c3.332 5.381 16.841 18.28 17 20"/><path d="M19 2C15.668 7.381 2.159 20.28 2 22"/></g></symbol>
        <symbol id="icon_pdf" viewBox="0 0 45 52"><path d="M41.786 52c.774 0 1.431-.27 1.973-.813.542-.541.812-1.199.812-1.973V15.786c0-.774-.193-1.625-.58-2.554-.387-.928-.851-1.664-1.393-2.205l-9.053-9.054C33.003 1.432 32.268.967 31.339.58 30.411.193 29.56 0 28.786 0h-26C2.012 0 1.354.27.812.813A2.686 2.686 0 0 0 0 2.785v46.428c0 .774.27 1.432.813 1.974.541.541 1.199.812 1.973.812h39Zm-.929-3.714H3.714V3.714H26v12.072c0 .774.27 1.431.813 1.973.541.542 1.199.812 1.973.812h12.071v29.715Zm-.232-33.429h-10.91V3.947c.56.193.957.406 1.189.638l9.083 9.082c.232.233.445.63.638 1.19ZM9.315 44.571c1.721 0 4.062-2.534 7.022-7.602 3.308-1.142 7.1-1.944 11.375-2.409a21.155 21.155 0 0 0 3.772 1.538c1.297.387 2.409.58 3.337.58 1.258 0 1.945-.367 2.06-1.102v-.03l.059-.057c.02-.02.029-.039.029-.058.27-.58.251-1.084-.058-1.51-.58-.947-2.293-1.421-5.136-1.421-1.122 0-2.254.068-3.396.203-.986-.58-1.799-1.122-2.437-1.625-1.76-1.431-3.173-3.734-4.237-6.906.233-1.335.368-3.192.407-5.572v-.87a.755.755 0 0 0-.03-.232.63.63 0 0 0 .117-.232c.174-.91.087-1.567-.262-1.974-.232-.29-.57-.435-1.015-.435h-.639c-.6 0-1.005.387-1.218 1.16-.252.968-.315 2.201-.189 3.7.126 1.5.42 3.043.885 4.629-.696 2.437-1.702 4.972-3.018 7.603-1.064 2.166-2.099 4.072-3.105 5.716 0-.039-.019-.077-.058-.116-.174-.29-.396-.348-.667-.174-1.644.87-2.921 1.804-3.83 2.8-.91.997-1.451 1.882-1.625 2.655-.078.503-.02.852.174 1.045.096.077.154.126.174.145l.696.348c.252.136.523.203.813.203Zm11.404-24.433c-.252-1.74-.232-3.017.058-3.83v-.058c.02-.02.029-.039.029-.058.232.27.358.619.377 1.045 0 .019.01.048.03.087 0 .019.009.038.028.058a.654.654 0 0 0-.116.232c-.135.774-.203 1.19-.203 1.248-.116.715-.184 1.141-.203 1.276Zm-3.54 15.35c.29-.521.725-1.324 1.305-2.408 1.084-2.147 1.887-4.052 2.409-5.716.986 2.108 2.215 3.81 3.685 5.107.097.097.252.227.464.392.213.164.339.256.378.275a42.561 42.561 0 0 0-8.241 2.35Zm18.28-.347c-.928 0-2.127-.271-3.597-.813 2.244 0 3.598.232 4.062.697.039.038.058.067.058.087-.077.019-.251.029-.522.029ZM9.229 43.004c.251-.58.73-1.296 1.436-2.147a16.543 16.543 0 0 1 2.54-2.437c-1.645 2.592-2.97 4.12-3.976 4.584Z" fill="#FFE000" fill-rule="nonzero"/></svg>
    </defs>
</svg>
