<?xml version="1.0" encoding="UTF-8"?>
<svg width="64px" height="64px" viewBox="0 0 64 64" version="1.1" xmlns="http://www.w3.org/2000/svg" xmlns:xlink="http://www.w3.org/1999/xlink">
    <title>icon-discord</title>
    <g id="Symbols" stroke="none" stroke-width="1" fill="none" fill-rule="evenodd">
        <path d="M48.1192784,16.9312421 C45.2063481,15.5618747 42.0917051,14.5666754 38.8354312,14 C38.4355217,14.7264577 37.9683129,15.703559 37.6461893,16.4808396 C34.1846867,15.9577975 30.7550138,15.9577975 27.3571709,16.4808396 C27.0351089,15.703559 26.5572902,14.7264577 26.1538029,14 C22.894013,14.5666754 19.7757921,15.5655314 16.8628619,16.9384936 C10.9874552,25.8592152 9.3947291,34.5583613 10.1910937,43.133983 C14.0879722,46.0579115 17.864517,47.8341101 21.577328,48.9964051 C22.4940418,47.7287455 23.3116263,46.3811948 24.0159556,44.9610045 C22.6745346,44.4488707 21.3897413,43.8168692 20.1757633,43.08316 C20.4978253,42.8434247 20.812855,42.592781 21.1172131,42.3348858 C28.5216151,45.8145814 36.5666866,45.8145814 43.8826311,42.3348858 C44.1905669,42.592781 44.5055349,42.8434247 44.8240808,43.08316 C43.6065251,43.8204641 42.3182155,44.4524656 40.9767946,44.9646612 C41.6811238,46.3811948 42.4951923,47.7324024 43.4154222,49 C47.1318109,47.837705 50.9118596,46.0615682 54.8087411,43.133983 C55.7431587,33.1926506 53.2124958,24.5733957 48.1192784,16.9312421 Z M25.0247047,37.8600529 C22.8019776,37.8600529 20.9791601,35.7751361 20.9791601,33.236222 C20.9791601,30.697308 22.7630539,28.6087964 25.0247047,28.6087964 C27.2864172,28.6087964 29.1091731,30.6936512 29.0702493,33.236222 C29.0737653,35.7751361 27.2864172,37.8600529 25.0247047,37.8600529 Z M39.9751394,37.8600529 C37.7524124,37.8600529 35.9295949,35.7751361 35.9295949,33.236222 C35.9295949,30.697308 37.7134269,28.6087964 39.9751394,28.6087964 C42.2367903,28.6087964 44.0596078,30.6936512 44.020684,33.236222 C44.020684,35.7751361 42.2367903,37.8600529 39.9751394,37.8600529 Z" id="discord-icon" fill="#171817" fill-rule="nonzero"></path>
    </g>
</svg>