<?xml version="1.0" encoding="UTF-8"?>
<svg width="64px" height="64px" viewBox="0 0 64 64" version="1.1" xmlns="http://www.w3.org/2000/svg" xmlns:xlink="http://www.w3.org/1999/xlink">
    <title>icon-bluesky</title>
    <g id="Symbols" stroke="none" stroke-width="1" fill="none" fill-rule="evenodd">
        <path d="M19.5377333,14.6250599 C24.5818933,18.4378564 30.0082667,26.1677442 32,30.3158933 L32,41.2722501 C32,41.0390338 31.9106311,41.3025672 31.7181067,41.8703512 C30.6786311,44.9443515 26.6182133,56.9417928 17.3335289,47.35059 C12.4447378,42.300776 14.708,37.250962 23.6069511,35.7263732 C18.5160533,36.5984078 12.7925333,35.1572156 11.22232,29.5072402 C10.77,27.8820848 10,17.8708573 10,16.5186543 C10,9.74566942 15.8980533,11.8745405 19.5377333,14.6250599 Z M44.4622667,14.6250599 C39.4181067,18.4378564 33.9917333,26.1677442 32,30.3158933 L32,41.2722501 C32,41.0390338 32.0893689,41.3025672 32.2818933,41.8703512 C33.3213689,44.9443515 37.3817867,56.9417928 46.6664711,47.35059 C51.5552622,42.300776 49.292,37.250962 40.3930489,35.7263732 C45.4839467,36.5984078 51.2074667,35.1572156 52.77768,29.5072402 C53.23,27.8820848 54,17.8708573 54,16.5186543 C54,9.74566942 48.1026311,11.8745405 44.4622667,14.6250599 Z" id="bluesky-icon" fill="#171817" fill-rule="nonzero"></path>
    </g>
</svg>