<?xml version="1.0" encoding="UTF-8"?>
<svg width="75px" height="67px" viewBox="0 0 75 67" version="1.1" xmlns="http://www.w3.org/2000/svg" xmlns:xlink="http://www.w3.org/1999/xlink">
    <title>icon-twitter</title>
    <g id="Page-1" stroke="none" stroke-width="1" fill="none" fill-rule="evenodd">
        <g id="icons" transform="translate(-120.000000, -755.000000)" fill="#1A1919">
            <path d="M184,788.527604 C182.065833,788.858227 179.25625,788.51842 177.77125,787.898502 C180.860417,787.641351 182.955,786.22702 183.761667,784.316754 C182.647917,785.010144 179.182917,785.758637 177.280833,785.04688 C177.184583,784.587681 177.079167,784.160627 176.97375,783.7749 C175.525417,778.420646 170.53875,774.099589 165.318333,774.623076 C165.74,774.44858 166.170833,774.292453 166.597083,774.150101 C167.17,773.943462 170.547917,773.392424 170.011667,772.198508 C169.5625,771.146943 165.442083,772.992921 164.6675,773.231704 C165.689583,772.841386 167.385417,772.184732 167.564167,771 C166.00125,771.220415 164.46125,771.959725 163.269583,773.043433 C163.700417,772.584235 164.025833,772.014829 164.094583,771.408687 C159.905417,774.090405 157.457917,779.495171 155.487083,784.739217 C153.933333,783.228454 152.55375,782.034538 151.31625,781.373292 C147.855833,779.518131 143.707917,777.575721 137.20875,775.146562 C137.0025,777.300202 138.272083,780.179376 141.91125,782.08505 C141.122917,781.979434 139.679167,782.213625 138.52875,782.489145 C139.000833,784.964224 140.531667,786.998473 144.684167,787.981158 C142.786667,788.109733 141.805833,788.54138 140.916667,789.473553 C141.782917,791.195547 143.895833,793.220612 147.681667,792.802741 C143.465,794.625759 145.962917,798.010051 149.400417,797.509525 C143.542917,803.575536 134.302917,803.125522 129,798.051379 C142.850833,816.974946 172.954167,809.242045 177.44125,791.011867 C180.805417,791.039419 182.780833,789.850095 184,788.527604" id="twitter-copy"></path>
        </g>
    </g>
</svg>