<?xml version="1.0" encoding="UTF-8"?>
<svg width="75px" height="67px" viewBox="0 0 75 67" version="1.1" xmlns="http://www.w3.org/2000/svg" xmlns:xlink="http://www.w3.org/1999/xlink">
    <title>icon-meetup</title>
    <g id="Page-1" stroke="none" stroke-width="1" fill="none" fill-rule="evenodd">
        <g id="icons" transform="translate(-431.000000, -755.000000)" fill="#171817" fill-rule="nonzero">
            <path d="M490.330412,796.745509 C490.335332,802.203782 486.402688,806.905826 481.055003,807.830331 C480.381682,807.945834 479.701762,808.0142 479.018481,808.007723 C478.788081,808.005205 478.697601,808.097319 478.62452,808.308295 C477.556879,811.372067 475.426277,813.198407 472.207754,813.65898 C470.078592,813.963391 468.14647,813.392712 466.452789,812.062207 C466.216869,811.876778 466.072628,811.87366 465.826628,812.049373 C463.845666,813.465516 461.624584,814.092687 459.199142,813.946239 C454.466217,813.66066 450.483893,810.04504 449.738933,805.382696 C449.687693,805.060415 449.633213,804.735735 449.628293,804.410935 C449.623373,804.140828 449.520772,804.036599 449.262652,803.986104 C447.829731,803.706881 446.52941,803.117012 445.382208,802.219494 C443.270926,800.567307 442.004205,798.41005 441.709365,795.741604 C441.373125,792.687428 442.316925,790.046688 444.466368,787.846132 C444.639648,787.669579 444.650448,787.546639 444.532248,787.339022 C443.705927,785.897092 443.314246,784.335341 443.377847,782.679196 C443.536487,778.545912 446.414089,775.131073 450.416693,774.28561 C450.879774,774.187258 451.122534,774.005787 451.326054,773.567163 C453.300296,769.315857 456.615179,766.73029 461.215144,765.87751 C464.444227,765.278525 467.49043,765.919849 470.317152,767.581631 C470.554753,767.721722 470.753713,767.732996 471.010873,767.658153 C475.500437,766.356194 479.478561,767.303368 482.855845,770.513107 C484.853126,772.410813 485.947408,774.81251 486.271408,777.552441 C486.342328,778.151426 486.374608,778.756048 486.329008,779.358272 C486.311848,779.58604 486.381928,779.681273 486.597688,779.761033 C488.62161,780.509825 490.017211,781.906177 490.627772,783.97156 C491.388213,786.540695 490.749452,788.793545 488.82873,790.666783 C488.66229,790.829423 488.69745,790.928974 488.79177,791.091494 C489.806851,792.839393 490.332692,794.720786 490.330412,796.745509 Z M470.297712,795.869101 C470.299392,798.191517 471.790994,800.244187 473.906236,800.941643 C474.966317,801.291511 476.059758,801.457509 477.169639,801.506325 C477.962,801.540508 478.753041,801.485215 479.485161,801.120475 C480.060802,800.833216 480.332002,800.35873 480.305962,799.726521 C480.279922,799.090115 479.994802,798.614189 479.385801,798.360874 C479.174121,798.272957 478.959201,798.201352 478.734441,798.162372 C478.06268,798.042551 477.387679,797.94168 476.719279,797.809266 C475.616118,797.589654 475.153517,797.006021 475.138877,795.89105 C475.126037,794.904776 475.393757,793.974514 475.697358,793.054207 C476.252718,791.369637 477.001519,789.764107 477.71912,788.145385 C478.41188,786.582194 479.138121,785.031838 479.627481,783.385409 C479.897002,782.481294 480.025642,781.57478 479.780602,780.639721 C479.407641,779.22046 478.55672,778.269208 477.089479,777.995623 C475.746198,777.745786 474.409156,777.71736 473.194395,778.518085 C472.790475,778.783395 472.402034,778.719946 472.051394,778.410618 C471.783554,778.175414 471.528674,777.926417 471.266473,777.684736 C470.027352,776.541339 468.389111,776.485207 467.058789,777.529412 C466.522029,777.950885 466.070348,778.473467 465.487268,778.839647 C464.966227,779.166726 464.440867,779.25944 463.863906,778.951912 C463.314306,778.658896 462.745265,778.401023 462.177665,778.14387 C461.602744,777.884318 461.045824,777.563715 460.398663,777.509142 C458.351701,777.334988 456.209579,778.550829 455.306578,780.398999 C454.905898,781.216876 454.578777,782.066538 454.268577,782.921717 C452.836256,786.87521 451.669615,790.913261 450.462173,794.9374 C449.921453,796.738433 450.559613,798.51068 452.085415,799.483401 C453.275816,800.241668 454.579257,800.429135 455.928659,800.023855 C457.02186,799.694977 457.62054,798.81545 458.038981,797.827377 C459.429542,794.549511 460.681863,791.215992 462.007384,787.912099 C462.372185,787.002947 462.725345,786.089957 463.112346,785.19064 C463.503066,784.282567 464.625787,783.973239 465.291788,784.575462 C465.698348,784.943081 465.805508,785.43244 465.765668,785.955623 C465.721868,786.514787 465.505148,787.030534 465.301628,787.544121 C464.439187,789.723447 463.560786,791.896417 462.694505,794.074065 C462.519425,794.514488 462.329705,794.951313 462.252305,795.424 C462.119705,796.23564 462.441185,796.955046 463.105386,797.241345 C463.783026,797.533641 464.486467,797.582457 465.188948,797.327583 C466.006388,797.031449 466.494909,796.391804 466.871229,795.652728 C468.16423,793.114777 469.447272,790.57059 470.739433,788.03252 C471.336313,786.859977 471.943634,785.692952 472.553355,784.527366 C472.779915,784.095339 473.045355,783.685981 473.468596,783.417433 C473.850676,783.175752 474.262396,783.157761 474.654077,783.377612 C475.036277,783.591587 475.061837,783.982355 475.045757,784.368085 C475.036997,784.575462 474.978917,784.778163 474.899117,784.971028 C474.731597,785.37211 474.575117,785.77919 474.389356,786.172356 C473.314635,788.432163 472.223594,790.683215 471.158473,792.94794 C470.709553,793.903749 470.242272,794.864116 470.297712,795.869101 Z M485.372611,812.5235 C485.375127,811.024478 484.118006,809.771095 482.605884,809.766998 C481.056443,809.76138 479.799442,811.000729 479.792697,812.538132 C479.786242,814.040992 481.064723,815.316204 482.576604,815.318125 C484.109846,815.319683 485.370207,814.060063 485.372611,812.5235 Z M438.631722,789.552298 C440.089963,789.55553 441.316965,788.33729 441.311225,786.892841 C441.304605,785.445994 440.103763,784.246345 438.657762,784.242257 C437.175761,784.238309 435.999159,785.41349 435.999999,786.897039 C436.001199,788.364996 437.174321,789.549053 438.631722,789.552298 Z M471.284593,759.8412 C469.819032,759.833087 468.624551,761.00419 468.616221,762.455955 C468.607391,763.906161 469.797672,765.097654 471.255913,765.099214 C472.708395,765.100053 473.875036,763.937106 473.877684,762.484381 C473.881156,761.02458 472.727355,759.848559 471.284593,759.8412 Z M492.862573,776.27603 C492.856054,775.072302 491.829333,774.048606 490.620212,774.04045 C489.385891,774.031575 488.34033,775.074101 488.34861,776.305295 C488.35737,777.53337 489.354091,778.517965 490.590092,778.519649 C491.863413,778.522163 492.869734,777.527733 492.862573,776.27603 Z M446.63213,769.848515 C446.63213,770.978958 447.51233,771.865921 448.635892,771.867602 C449.773973,771.86916 450.656814,770.977399 450.652748,769.830644 C450.648654,768.718311 449.766893,767.84826 448.647292,767.851608 C447.49589,767.853897 446.63273,768.709196 446.63213,769.848515 Z M467.68087,816.472075 C467.69059,815.530539 466.915509,814.755121 465.962828,814.751753 C464.984947,814.748764 464.216947,815.506191 464.21946,816.470516 C464.221987,817.421767 464.986027,818.175357 465.946748,818.175357 C466.906629,818.176196 467.67259,817.424166 467.68087,816.472075 Z M494.557776,789.720089 C493.642535,789.713492 492.848614,790.507022 492.855934,791.420971 C492.863854,792.324127 493.618175,793.065602 494.531616,793.067404 C495.489217,793.0692 496.207417,792.364427 496.209705,791.418573 C496.212337,790.482554 495.476977,789.726566 494.557776,789.720089 Z M454.359657,758.17537 C453.552776,758.172145 452.929976,758.788161 452.929976,759.590686 C452.929976,760.388173 453.559256,761.008268 454.365417,761.00421 C455.147818,761.000112 455.760898,760.376659 455.760898,759.584809 C455.761018,758.785643 455.157538,758.179461 454.359657,758.17537 Z M497.750979,782.119072 C497.093258,782.111636 496.497218,782.700066 496.488938,783.366578 C496.480058,784.055878 497.054018,784.629556 497.754219,784.631244 C498.44962,784.633754 498.99502,784.0933 498.99994,783.395124 C499.00654,782.69287 498.45274,782.127948 497.750979,782.119072 Z M447.944584,806.946606 C447.947691,806.279255 447.37205,805.704737 446.69393,805.698381 C446.006569,805.692504 445.441489,806.270499 445.446409,806.973593 C445.452049,807.660494 446.009809,808.203107 446.70449,808.19831 C447.38609,808.194112 447.942291,807.633388 447.944584,806.946606 Z" id="Shape"></path>
        </g>
    </g>
</svg>