<?xml version="1.0" encoding="UTF-8"?>
<svg width="75px" height="67px" viewBox="0 0 75 67" version="1.1" xmlns="http://www.w3.org/2000/svg" xmlns:xlink="http://www.w3.org/1999/xlink">
    <title>icon-mastodon</title>
    <g id="Page-1" stroke="none" stroke-width="1" fill="none" fill-rule="evenodd">
        <g id="icons" transform="translate(-354.000000, -755.000000)" fill="#171817" fill-rule="nonzero">
            <path d="M390.584297,766 C397.026111,766.051216 403.226584,766.729425 406.837464,768.342186 C406.837464,768.342186 413.998956,771.457885 413.998956,782.08748 L413.999822,782.196025 C413.999932,782.213836 414.000042,782.233768 414.000147,782.255769 L414.000469,782.734394 C413.99491,784.720543 413.901122,790.868839 413.000202,795.375003 C412.3093,798.831523 406.812217,802.614343 400.49881,803.347464 C397.206641,803.729468 393.965238,804.080585 390.508827,803.92641 C384.856189,803.674557 380.395866,802.614343 380.395866,802.614343 C380.395866,803.149466 380.4298,803.658981 380.497669,804.135497 C381.23255,809.560381 386.029229,809.885362 390.572895,810.036897 C395.15891,810.189487 399.242427,808.937347 399.242427,808.937347 L399.43083,812.969117 L399.358526,813.005115 C398.854009,813.250096 395.726197,814.670971 390.508827,814.952267 C387.357825,815.120697 383.445337,814.875179 378.888369,813.702238 C369.005076,811.158358 367.305375,800.913407 367.045303,790.518241 C366.966032,787.431846 367.014897,784.521537 367.014897,782.08748 C367.014897,771.457885 374.176661,768.342186 374.176661,768.342186 C377.787812,766.729425 383.984213,766.051216 390.426027,766 L390.584297,766 Z M397.865509,774.30552 C395.181986,774.30552 393.15,775.308447 391.806746,777.314564 L390.500411,779.443704 L389.194348,777.314564 C387.850822,775.308447 385.818837,774.30552 383.135585,774.30552 C380.81638,774.30552 378.948094,775.098305 377.521496,776.644802 C376.138063,778.191299 375.449333,780.281632 375.449333,782.912103 L375.449333,795.782774 L380.692859,795.782774 L380.692859,783.290411 C380.692859,780.657036 381.832237,779.320417 384.111263,779.320417 C386.631088,779.320417 387.894258,780.905986 387.894258,784.04122 L387.894258,790.87902 L393.106836,790.87902 L393.106836,784.04122 C393.106836,780.905986 394.369735,779.320417 396.889559,779.320417 C399.168586,779.320417 400.307964,780.657036 400.307964,783.290411 L400.307964,795.782774 L405.55149,795.782774 L405.55149,782.912103 C405.55149,780.281632 404.86276,778.191299 403.479598,776.644802 C402.052729,775.098305 400.184443,774.30552 397.865509,774.30552 Z" id="Combined-Shape"></path>
        </g>
    </g>
</svg>